Oceane-Light.ufo
<glyph name="exclam" format="2">
  <advance width="206"/>
  <unicode hex="0021"/>
  <outline>
    <contour>
      <point x="102.997" y="59.9941" type="curve" smooth="yes"/>
      <point x="119.562" y="59.9941"/>
      <point x="132.994" y="46.5615"/>
      <point x="132.994" y="29.9971" type="curve" smooth="yes"/>
      <point x="132.994" y="13.4326"/>
      <point x="119.562" y="0"/>
      <point x="102.997" y="0" type="curve" smooth="yes"/>
      <point x="86.4326" y="0"/>
      <point x="73" y="13.4326"/>
      <point x="73" y="29.9971" type="curve" smooth="yes"/>
      <point x="73" y="46.5615"/>
      <point x="86.4326" y="59.9941"/>
    </contour>
    <contour>
      <point x="117.093" y="188.66" type="line" smooth="yes"/>
      <point x="117.093" y="173.083"/>
      <point x="104.45" y="160.441"/>
      <point x="88.873" y="160.441" type="curve"/>
      <point x="88.873" y="612.177" type="line" smooth="yes"/>
      <point x="88.873" y="627.768"/>
      <point x="101.516" y="640.396"/>
      <point x="117.093" y="640.396" type="curve"/>
    </contour>
  </outline>
</glyph>
<glyph name="quotedbl" format="2">
  <advance width="273"/>
  <unicode hex="0022"/>
  <outline>
    <contour>
      <point x="57" y="617.34" type="line" smooth="yes"/>
      <point x="57" y="632.93"/>
      <point x="69.6396" y="645.56"/>
      <point x="85.2197" y="645.56" type="curve"/>
      <point x="85.2197" y="508.22" type="line" smooth="yes"/>
      <point x="85.2197" y="492.64"/>
      <point x="72.5801" y="480"/>
      <point x="57" y="480" type="curve"/>
    </contour>
    <contour>
      <point x="188.76" y="617.34" type="line" smooth="yes"/>
      <point x="188.76" y="632.93"/>
      <point x="201.4" y="645.56"/>
      <point x="216.98" y="645.56" type="curve"/>
      <point x="216.98" y="508.22" type="line" smooth="yes"/>
      <point x="216.98" y="492.64"/>
      <point x="204.33" y="480"/>
      <point x="188.76" y="480" type="curve"/>
    </contour>
  </outline>
</glyph>
<glyph name="numbersign" format="2">
  <advance width="592"/>
  <unicode hex="0023"/>
  <outline>
    <contour>
      <point x="494.874" y="382.817" type="curve" smooth="yes"/>
      <point x="438.35" y="382.813" type="line"/>
      <point x="399.082" y="265.012" type="line"/>
      <point x="508.982" y="265.209" type="line"/>
      <point x="508.982" y="249.618"/>
      <point x="496.34" y="236.99"/>
      <point x="480.763" y="236.99" type="curve" smooth="yes"/>
      <point x="389.699" y="236.835" type="line"/>
      <point x="317.189" y="19.292" type="line" smooth="yes"/>
      <point x="312.266" y="4.50488"/>
      <point x="296.279" y="-3.48145"/>
      <point x="281.507" y="1.45703" type="curve"/>
      <point x="359.942" y="236.778" type="line"/>
      <point x="176.291" y="236.454" type="line"/>
      <point x="103.923" y="19.292" type="line" smooth="yes"/>
      <point x="98.999" y="4.51953"/>
      <point x="83.0127" y="-3.48047"/>
      <point x="68.2402" y="1.45801" type="curve"/>
      <point x="146.535" y="236.412" type="line"/>
      <point x="68.001" y="236.271" type="line"/>
      <point x="68.001" y="251.849"/>
      <point x="80.6436" y="264.491"/>
      <point x="96.2207" y="264.491" type="curve" smooth="yes"/>
      <point x="155.933" y="264.59" type="line"/>
      <point x="195.341" y="382.829" type="line"/>
      <point x="94.9219" y="382.829" type="line"/>
      <point x="94.9219" y="398.406"/>
      <point x="107.564" y="411.049"/>
      <point x="123.142" y="411.049" type="curve" smooth="yes"/>
      <point x="204.738" y="411.049" type="line"/>
      <point x="272.592" y="614.638" type="line" smooth="yes"/>
      <point x="277.53" y="629.41"/>
      <point x="293.502" y="637.396"/>
      <point x="308.274" y="632.473" type="curve"/>
      <point x="234.48" y="411.05" type="line"/>
      <point x="418.02" y="411.05" type="line"/>
      <point x="485.873" y="614.639" type="line" smooth="yes"/>
      <point x="490.812" y="629.411"/>
      <point x="506.783" y="637.397"/>
      <point x="521.556" y="632.474" type="curve"/>
      <point x="447.762" y="411.036" type="line"/>
      <point x="523.094" y="411.036" type="line"/>
      <point x="523.094" y="395.445"/>
      <point x="510.451" y="382.817"/>
    </contour>
    <contour>
      <point x="369.339" y="264.955" type="line"/>
      <point x="408.621" y="382.813" type="line"/>
      <point x="225.082" y="382.813" type="line"/>
      <point x="185.688" y="264.631" type="line"/>
    </contour>
  </outline>
</glyph>
<glyph name="dollar" format="2">
  <advance width="596"/>
  <unicode hex="0024"/>
  <outline>
    <contour>
      <point x="312.021" y="333.89" type="line"/>
      <point x="411.04" y="319.12"/>
      <point x="517.971" y="299.14"/>
      <point x="524.78" y="194.319" type="curve" smooth="yes"/>
      <point x="524.87" y="150.869"/>
      <point x="501.18" y="114.669"/>
      <point x="456.31" y="88.7393" type="curve" smooth="yes"/>
      <point x="417.18" y="66.1191"/>
      <point x="365.1" y="53.5488"/>
      <point x="312.01" y="50.9893" type="curve"/>
      <point x="312.01" y="28.2197" type="line" smooth="yes"/>
      <point x="312.01" y="12.6299"/>
      <point x="299.37" y="0"/>
      <point x="283.79" y="0" type="curve"/>
      <point x="283.79" y="50.6504" type="line"/>
      <point x="228.96" y="51.71"/>
      <point x="175.27" y="63.4404"/>
      <point x="135.93" y="86.1709" type="curve" smooth="yes"/>
      <point x="93.3896" y="110.761"/>
      <point x="70.9395" y="145.601"/>
      <point x="70.999" y="186.94" type="curve"/>
      <point x="85.7393" y="186.91"/>
      <point x="98.3291" y="177.101"/>
      <point x="102.859" y="163.07" type="curve" smooth="yes"/>
      <point x="109.529" y="142.471"/>
      <point x="125.339" y="124.881"/>
      <point x="150.039" y="110.611" type="curve" smooth="yes"/>
      <point x="185.02" y="90.4014"/>
      <point x="233.81" y="79.9609"/>
      <point x="283.79" y="78.9414" type="curve"/>
      <point x="283.79" y="309.571" type="line"/>
      <point x="180.87" y="324.861"/>
      <point x="78.1299" y="343.711"/>
      <point x="71.0303" y="447.701" type="curve" smooth="yes"/>
      <point x="70.9307" y="490.301"/>
      <point x="94.1504" y="525.771"/>
      <point x="138.181" y="551.211" type="curve" smooth="yes"/>
      <point x="177.581" y="573.98"/>
      <point x="230.191" y="586.471"/>
      <point x="283.802" y="588.841" type="curve"/>
      <point x="283.802" y="611.601" type="line" smooth="yes"/>
      <point x="283.802" y="627.181"/>
      <point x="296.441" y="639.82"/>
      <point x="312.021" y="639.82" type="curve"/>
      <point x="312.021" y="589.11" type="line"/>
      <point x="366.951" y="587.851"/>
      <point x="420.751" y="575.971"/>
      <point x="460.291" y="553.11" type="curve" smooth="yes"/>
      <point x="502.591" y="528.65"/>
      <point x="524.891" y="494.15"/>
      <point x="524.82" y="453.33" type="curve"/>
      <point x="510.04" y="453.36"/>
      <point x="497.521" y="463.19"/>
      <point x="492.851" y="477.221" type="curve" smooth="yes"/>
      <point x="486.15" y="497.341"/>
      <point x="470.53" y="514.581"/>
      <point x="446.15" y="528.681" type="curve" smooth="yes"/>
      <point x="410.99" y="549.021"/>
      <point x="362.101" y="559.62"/>
      <point x="312.021" y="560.83" type="curve"/>
    </contour>
    <contour>
      <point x="99.2207" y="448.689" type="curve" smooth="yes"/>
      <point x="104.711" y="368.84"/>
      <point x="189.82" y="352.157"/>
      <point x="283.801" y="338.098" type="curve"/>
      <point x="283.801" y="560.558" type="line"/>
      <point x="235.031" y="558.248"/>
      <point x="187.331" y="547.028"/>
      <point x="152.301" y="526.769" type="curve" smooth="yes"/>
      <point x="117.031" y="506.379"/>
      <point x="99.1611" y="480.119"/>
    </contour>
    <contour>
      <point x="442.2" y="113.167" type="curve" smooth="yes"/>
      <point x="478.34" y="134.057"/>
      <point x="496.649" y="161.058"/>
      <point x="496.6" y="193.397" type="curve" smooth="yes"/>
      <point x="491.31" y="274.258"/>
      <point x="406.229" y="291.248"/>
      <point x="312.02" y="305.388" type="curve"/>
      <point x="312.02" y="79.3379" type="line"/>
      <point x="360.26" y="81.8076"/>
      <point x="407.42" y="93.0674"/>
    </contour>
  </outline>
</glyph>
<glyph name="percent" format="2">
  <advance width="785"/>
  <unicode hex="0025"/>
  <outline>
    <contour>
      <point x="153.048" y="489.505" type="curve" smooth="yes"/>
      <point x="108.87" y="489.505"/>
      <point x="73.0459" y="525.329"/>
      <point x="73.0459" y="569.507" type="curve" smooth="yes"/>
      <point x="73.0459" y="613.685"/>
      <point x="108.87" y="649.495"/>
      <point x="153.048" y="649.495" type="curve" smooth="yes"/>
      <point x="197.226" y="649.495"/>
      <point x="233.036" y="613.671"/>
      <point x="233.036" y="569.493" type="curve" smooth="yes"/>
      <point x="233.036" y="525.315"/>
      <point x="197.226" y="489.505"/>
    </contour>
    <contour>
      <point x="153.048" y="621.274" type="curve" smooth="yes"/>
      <point x="124.504" y="621.274"/>
      <point x="101.279" y="598.05"/>
      <point x="101.279" y="569.506" type="curve" smooth="yes"/>
      <point x="101.279" y="540.962"/>
      <point x="124.504" y="517.737"/>
      <point x="153.048" y="517.737" type="curve" smooth="yes"/>
      <point x="181.592" y="517.737"/>
      <point x="204.816" y="540.962"/>
      <point x="204.816" y="569.506" type="curve" smooth="yes"/>
      <point x="204.816" y="598.05"/>
      <point x="181.592" y="621.274"/>
    </contour>
    <contour>
      <point x="633.003" y="168.918" type="curve" smooth="yes"/>
      <point x="677.181" y="168.918"/>
      <point x="712.991" y="133.107"/>
      <point x="712.991" y="88.9297" type="curve" smooth="yes"/>
      <point x="712.991" y="44.752"/>
      <point x="677.181" y="8.94141"/>
      <point x="633.003" y="8.94141" type="curve" smooth="yes"/>
      <point x="588.825" y="8.94141"/>
      <point x="553.015" y="44.752"/>
      <point x="553.015" y="88.9297" type="curve" smooth="yes"/>
      <point x="553.015" y="133.107"/>
      <point x="588.825" y="168.918"/>
    </contour>
    <contour>
      <point x="633.003" y="37.1475" type="curve" smooth="yes"/>
      <point x="661.547" y="37.1475"/>
      <point x="684.771" y="60.3721"/>
      <point x="684.771" y="88.916" type="curve" smooth="yes"/>
      <point x="684.771" y="117.46"/>
      <point x="661.547" y="140.685"/>
      <point x="633.003" y="140.685" type="curve" smooth="yes"/>
      <point x="604.459" y="140.685"/>
      <point x="581.234" y="117.46"/>
      <point x="581.234" y="88.916" type="curve" smooth="yes"/>
      <point x="581.234" y="60.3721"/>
      <point x="604.459" y="37.1475"/>
    </contour>
    <contour>
      <point x="683.163" y="639.193" type="line" smooth="yes"/>
      <point x="694.084" y="650.312"/>
      <point x="711.947" y="650.452"/>
      <point x="723.052" y="639.531" type="curve"/>
      <point x="102.889" y="8.43359" type="line" smooth="yes"/>
      <point x="91.9678" y="-2.68457"/>
      <point x="74.1045" y="-2.8252"/>
      <point x="63" y="8.0957" type="curve"/>
    </contour>
  </outline>
</glyph>
<glyph name="ampersand" format="2">
  <advance width="576"/>
  <unicode hex="0026"/>
  <outline>
    <contour>
      <point x="506.622" y="218.724" type="curve"/>
      <point x="506.622" y="162.031"/>
      <point x="484.851" y="110.329"/>
      <point x="449.237" y="71.542" type="curve"/>
      <point x="503.433" y="6.55273" type="line"/>
      <point x="491.468" y="-3.43652"/>
      <point x="473.689" y="-1.82812"/>
      <point x="463.7" y="10.1367" type="curve" smooth="yes"/>
      <point x="428.807" y="51.9717" type="line"/>
      <point x="390.922" y="20.126"/>
      <point x="342.061" y="0.922852"/>
      <point x="288.825" y="0.922852" type="curve" smooth="yes"/>
      <point x="168.71" y="0.922852"/>
      <point x="71" y="98.6328"/>
      <point x="71" y="218.734" type="curve" smooth="yes"/>
      <point x="71" y="283.794"/>
      <point x="100.828" y="345.354"/>
      <point x="150.96" y="386.611" type="curve"/>
      <point x="134.79" y="410.767"/>
      <point x="125.393" y="438.238"/>
      <point x="123.502" y="467.248" type="curve" smooth="yes"/>
      <point x="117.59" y="557.79"/>
      <point x="188.604" y="638.525"/>
      <point x="279.188" y="643.689" type="curve" smooth="yes"/>
      <point x="374.894" y="649.122"/>
      <point x="454.486" y="572.817"/>
      <point x="454.473" y="478.269" type="curve" smooth="yes"/>
      <point x="454.473" y="440.525"/>
      <point x="442.028" y="404.94"/>
      <point x="418.479" y="375.311" type="curve"/>
      <point x="406.966" y="384.453"/>
      <point x="403.043" y="400.595"/>
      <point x="410.013" y="413.52" type="curve" smooth="yes"/>
      <point x="419.043" y="430.268"/>
      <point x="424.419" y="448.596"/>
      <point x="425.858" y="467.742" type="curve" smooth="yes"/>
      <point x="431.573" y="543.737"/>
      <point x="371.438" y="612.07"/>
      <point x="295.302" y="615.584" type="curve" smooth="yes"/>
      <point x="216.569" y="619.225"/>
      <point x="151.354" y="556.225"/>
      <point x="151.368" y="478.283" type="curve" smooth="yes"/>
      <point x="151.368" y="447.017"/>
      <point x="161.696" y="417.514"/>
      <point x="181.224" y="392.921" type="curve" smooth="yes"/>
      <point x="430.979" y="93.415" type="line"/>
      <point x="455.121" y="120.773"/>
      <point x="471.517" y="155.145"/>
      <point x="476.667" y="193.029" type="curve" smooth="yes"/>
      <point x="478.685" y="207.845"/>
      <point x="491.651" y="218.724"/>
    </contour>
    <contour>
      <point x="288.811" y="29.1279" type="curve" smooth="yes"/>
      <point x="335.189" y="29.1279"/>
      <point x="377.729" y="45.877"/>
      <point x="410.718" y="73.6445" type="curve"/>
      <point x="168.046" y="364.628" type="line"/>
      <point x="124.715" y="328.719"/>
      <point x="99.2041" y="275.102"/>
      <point x="99.2041" y="218.72" type="curve" smooth="yes"/>
      <point x="99.2041" y="114.167"/>
      <point x="184.271" y="29.1279"/>
    </contour>
  </outline>
</glyph>
<glyph name="quotesingle" format="2">
  <advance width="178"/>
  <unicode hex="0027"/>
  <unicode hex="2019"/>
  <outline>
    <contour>
      <point x="92.8428" y="623.191" type="line" smooth="yes"/>
      <point x="100.631" y="636.681"/>
      <point x="117.887" y="641.323"/>
      <point x="131.39" y="633.535" type="curve"/>
      <point x="85.5469" y="554.111" type="line" smooth="yes"/>
      <point x="77.7588" y="540.622"/>
      <point x="60.5029" y="535.994"/>
      <point x="47" y="543.782" type="curve"/>
    </contour>
  </outline>
</glyph>
<glyph name="parenleft" format="2">
  <advance width="295"/>
  <unicode hex="0028"/>
  <outline>
    <contour>
      <point x="229.374" y="7.99023" type="curve"/>
      <point x="218.213" y="-3.1709"/>
      <point x="199.899" y="-2.54785"/>
      <point x="189.458" y="9.29004" type="curve" smooth="yes"/>
      <point x="34.1807" y="185.082"/>
      <point x="34.1807" y="450.88"/>
      <point x="189.458" y="626.687" type="curve" smooth="yes"/>
      <point x="199.913" y="638.524"/>
      <point x="218.213" y="639.146"/>
      <point x="229.374" y="627.984" type="curve"/>
      <point x="58.1816" y="456.777"/>
      <point x="58.1816" y="179.197"/>
    </contour>
  </outline>
</glyph>
<glyph name="parenright" format="2">
  <advance width="295"/>
  <unicode hex="0029"/>
  <outline>
    <contour>
      <point x="65" y="627.983" type="curve"/>
      <point x="76.1611" y="639.145"/>
      <point x="94.4746" y="638.521"/>
      <point x="104.916" y="626.684" type="curve" smooth="yes"/>
      <point x="260.193" y="450.892"/>
      <point x="260.193" y="185.094"/>
      <point x="104.916" y="9.28711" type="curve" smooth="yes"/>
      <point x="94.4609" y="-2.55078"/>
      <point x="76.1611" y="-3.17188"/>
      <point x="65" y="7.98926" type="curve"/>
      <point x="236.207" y="179.196"/>
      <point x="236.207" y="456.776"/>
    </contour>
  </outline>
</glyph>
<glyph name="asterisk" format="2">
  <advance width="297"/>
  <unicode hex="002A"/>
  <outline>
    <contour>
      <point x="242.77" y="602.86" type="line"/>
      <point x="247.159" y="587.92"/>
      <point x="238.6" y="572.25"/>
      <point x="223.659" y="567.84" type="curve" smooth="yes"/>
      <point x="171.459" y="552.49" type="line"/>
      <point x="219.509" y="485.26" type="line"/>
      <point x="206.839" y="476.21"/>
      <point x="189.209" y="479.15"/>
      <point x="180.159" y="491.82" type="curve" smooth="yes"/>
      <point x="148.469" y="536.17" type="line"/>
      <point x="116.778" y="491.82" type="line" smooth="yes"/>
      <point x="107.719" y="479.141"/>
      <point x="90.1084" y="476.2"/>
      <point x="77.418" y="485.26" type="curve"/>
      <point x="125.468" y="552.49" type="line"/>
      <point x="73.2578" y="567.84" type="line" smooth="yes"/>
      <point x="58.2979" y="572.229"/>
      <point x="49.748" y="587.92"/>
      <point x="54.1582" y="602.86" type="curve"/>
      <point x="134.398" y="579.261" type="line"/>
      <point x="134.309" y="634.641" type="line" smooth="yes"/>
      <point x="134.289" y="650.23"/>
      <point x="146.899" y="662.891"/>
      <point x="162.489" y="662.91" type="curve"/>
      <point x="162.619" y="579.29" type="line"/>
    </contour>
  </outline>
</glyph>
<glyph name="plus" format="2">
  <advance width="348"/>
  <unicode hex="002B"/>
  <outline>
    <contour>
      <point x="188.1" y="299.1" type="line"/>
      <point x="293.979" y="299.1" type="line"/>
      <point x="293.979" y="283.52"/>
      <point x="281.35" y="270.88"/>
      <point x="265.76" y="270.88" type="curve" smooth="yes"/>
      <point x="188.1" y="270.88" type="line"/>
      <point x="188.1" y="193.22" type="line" smooth="yes"/>
      <point x="188.1" y="177.64"/>
      <point x="175.47" y="165"/>
      <point x="159.88" y="165" type="curve"/>
      <point x="159.88" y="270.88" type="line"/>
      <point x="54" y="270.88" type="line"/>
      <point x="54" y="286.47"/>
      <point x="66.6299" y="299.1"/>
      <point x="82.2197" y="299.1" type="curve" smooth="yes"/>
      <point x="159.88" y="299.1" type="line"/>
      <point x="159.88" y="376.76" type="line" smooth="yes"/>
      <point x="159.88" y="392.35"/>
      <point x="172.51" y="404.979"/>
      <point x="188.1" y="404.979" type="curve"/>
    </contour>
  </outline>
</glyph>
<glyph name="hyphen" format="2">
  <advance width="230"/>
  <unicode hex="002D"/>
  <outline>
    <contour>
      <point x="63.2197" y="298.22" type="curve" smooth="yes"/>
      <point x="194.989" y="298.22" type="line"/>
      <point x="194.989" y="282.64"/>
      <point x="182.35" y="270"/>
      <point x="166.77" y="270" type="curve" smooth="yes"/>
      <point x="35" y="270" type="line"/>
      <point x="35" y="285.59"/>
      <point x="47.6396" y="298.22"/>
    </contour>
  </outline>
</glyph>
<glyph name="period" format="2">
  <advance width="146"/>
  <unicode hex="002E"/>
  <outline>
    <contour>
      <point x="72.9971" y="0" type="curve" smooth="yes"/>
      <point x="56.4297" y="0"/>
      <point x="42.999" y="13.4307"/>
      <point x="42.999" y="29.998" type="curve" smooth="yes"/>
      <point x="42.999" y="46.5654"/>
      <point x="56.4297" y="59.9961"/>
      <point x="72.9971" y="59.9961" type="curve" smooth="yes"/>
      <point x="89.5645" y="59.9961"/>
      <point x="102.995" y="46.5654"/>
      <point x="102.995" y="29.998" type="curve" smooth="yes"/>
      <point x="102.995" y="13.4307"/>
      <point x="89.5645" y="0"/>
    </contour>
  </outline>
</glyph>
<glyph name="slash" format="2">
  <advance width="316"/>
  <unicode hex="002F"/>
  <outline>
    <contour>
      <point x="217.133" y="613.408" type="line" smooth="yes"/>
      <point x="220.914" y="628.52"/>
      <point x="236.236" y="637.719"/>
      <point x="251.362" y="633.938" type="curve"/>
      <point x="98.2158" y="21.3799" type="line" smooth="yes"/>
      <point x="94.4346" y="6.26855"/>
      <point x="79.126" y="-2.93066"/>
      <point x="64" y="0.850586" type="curve"/>
    </contour>
  </outline>
</glyph>
<glyph name="zero" format="2">
  <advance width="571"/>
  <unicode hex="0030"/>
  <outline>
    <contour>
      <point x="285.311" y="611.711" type="curve" smooth="yes"/>
      <point x="183.255" y="611.711"/>
      <point x="100.22" y="480.844"/>
      <point x="100.22" y="319.965" type="curve" smooth="yes"/>
      <point x="100.22" y="159.086"/>
      <point x="183.255" y="28.2188"/>
      <point x="285.311" y="28.2188" type="curve" smooth="yes"/>
      <point x="387.366" y="28.2188"/>
      <point x="470.401" y="159.101"/>
      <point x="470.401" y="319.965" type="curve" smooth="yes"/>
      <point x="470.401" y="480.829"/>
      <point x="387.366" y="611.711"/>
    </contour>
    <contour>
      <point x="72" y="319.965" type="curve" smooth="yes"/>
      <point x="72" y="496.675"/>
      <point x="167.51" y="639.931"/>
      <point x="285.312" y="639.931" type="curve" smooth="yes"/>
      <point x="403.127" y="639.931"/>
      <point x="498.621" y="496.675"/>
      <point x="498.621" y="319.965" type="curve" smooth="yes"/>
      <point x="498.621" y="143.255"/>
      <point x="403.112" y="-0.000976562"/>
      <point x="285.311" y="-0.000976562" type="curve" smooth="yes"/>
      <point x="167.509" y="-0.000976562"/>
      <point x="72" y="143.255"/>
    </contour>
  </outline>
</glyph>
<glyph name="one" format="2">
  <advance width="329"/>
  <unicode hex="0031"/>
  <outline>
    <contour>
      <point x="239.529" y="638.872" type="curve" smooth="yes"/>
      <point x="244.792" y="636.686"/>
      <point x="248.25" y="631.535"/>
      <point x="248.25" y="625.835" type="curve" smooth="yes"/>
      <point x="248.25" y="0" type="line"/>
      <point x="232.673" y="0"/>
      <point x="220.03" y="12.6426"/>
      <point x="220.03" y="28.2197" type="curve" smooth="yes"/>
      <point x="220.03" y="591.76" type="line"/>
      <point x="100.902" y="472.646" type="line" smooth="yes"/>
      <point x="89.8828" y="461.626"/>
      <point x="72.0195" y="461.626"/>
      <point x="61" y="472.646" type="curve"/>
      <point x="224.15" y="635.81" type="line" smooth="yes"/>
      <point x="228.186" y="639.845"/>
      <point x="234.267" y="641.059"/>
    </contour>
  </outline>
</glyph>
<glyph name="two" format="2">
  <advance width="551"/>
  <unicode hex="0032"/>
  <outline>
    <contour>
      <point x="455.769" y="28.21" type="line" smooth="yes"/>
      <point x="471.358" y="28.21"/>
      <point x="484.011" y="15.585"/>
      <point x="484.011" y="0.0146484" type="curve"/>
      <point x="78.1104" y="0.0146484" type="line" smooth="yes"/>
      <point x="72.4102" y="0.0146484"/>
      <point x="67.2803" y="3.44434"/>
      <point x="65.0898" y="8.7041" type="curve" smooth="yes"/>
      <point x="62.8896" y="13.9639"/>
      <point x="64.0898" y="20.0137"/>
      <point x="68.1094" y="24.0635" type="curve" smooth="yes"/>
      <point x="387.749" y="345.203" type="line" smooth="yes"/>
      <point x="431.969" y="389.633"/>
      <point x="445.528" y="454.213"/>
      <point x="423.139" y="513.732" type="curve" smooth="yes"/>
      <point x="401.658" y="570.792"/>
      <point x="353.378" y="607.272"/>
      <point x="293.988" y="611.312" type="curve" smooth="yes"/>
      <point x="289.719" y="611.612"/>
      <point x="285.398" y="611.752"/>
      <point x="281.049" y="611.752" type="curve" smooth="yes"/>
      <point x="203.669" y="611.752"/>
      <point x="135.069" y="564.492"/>
      <point x="106.359" y="494.162" type="curve" smooth="yes"/>
      <point x="100.859" y="480.682"/>
      <point x="86.7295" y="472.882"/>
      <point x="72.6396" y="476.532" type="curve" smooth="yes"/>
      <point x="70.9893" y="476.962" type="line"/>
      <point x="95.8291" y="572.932"/>
      <point x="182.229" y="639.972"/>
      <point x="281.05" y="639.972" type="curve" smooth="yes"/>
      <point x="286.05" y="639.972"/>
      <point x="290.979" y="639.781"/>
      <point x="295.899" y="639.461" type="curve" smooth="yes"/>
      <point x="365.579" y="634.73"/>
      <point x="424.449" y="590.36"/>
      <point x="449.549" y="523.67" type="curve" smooth="yes"/>
      <point x="475.889" y="453.68"/>
      <point x="459.858" y="377.67"/>
      <point x="407.738" y="325.29" type="curve" smooth="yes"/>
      <point x="112.059" y="28.21" type="line"/>
    </contour>
  </outline>
</glyph>
<glyph name="three" format="2">
  <advance width="502"/>
  <unicode hex="0033"/>
  <outline>
    <contour>
      <point x="119.445" y="495.8" type="curve" smooth="yes"/>
      <point x="118.104" y="485.838"/>
      <point x="109.824" y="478.318"/>
      <point x="99.7783" y="478.318" type="curve" smooth="yes"/>
      <point x="90.043" y="478.318" type="line"/>
      <point x="90.043" y="571.217"/>
      <point x="170.821" y="645.617"/>
      <point x="265.836" y="634.965" type="curve" smooth="yes"/>
      <point x="335.721" y="627.12"/>
      <point x="393.358" y="571.697"/>
      <point x="403.63" y="502.094" type="curve" smooth="yes"/>
      <point x="414.325" y="429.542"/>
      <point x="375.156" y="364.708"/>
      <point x="315.458" y="336.136" type="curve"/>
      <point x="382.098" y="310.287"/>
      <point x="429.309" y="247.598"/>
      <point x="429.309" y="174.425" type="curve" smooth="yes"/>
      <point x="429.309" y="78.2393"/>
      <point x="347.839" y="0.000976562"/>
      <point x="247.717" y="0.000976562" type="curve" smooth="yes"/>
      <point x="153.45" y="0.000976562"/>
      <point x="75.791" y="69.3496"/>
      <point x="67.001" y="157.719" type="curve"/>
      <point x="78.6699" y="157.719" type="line" smooth="yes"/>
      <point x="87.9824" y="157.719"/>
      <point x="96.0254" y="151.312"/>
      <point x="98.1699" y="142.254" type="curve" smooth="yes"/>
      <point x="113.592" y="77.0811"/>
      <point x="174.757" y="28.2334"/>
      <point x="247.718" y="28.2334" type="curve" smooth="yes"/>
      <point x="332.291" y="28.2334"/>
      <point x="401.09" y="93.8291"/>
      <point x="401.09" y="174.438" type="curve" smooth="yes"/>
      <point x="401.09" y="248.33"/>
      <point x="343.254" y="309.439"/>
      <point x="268.486" y="319.133" type="curve" smooth="yes"/>
      <point x="262.32" y="319.938"/>
      <point x="257.579" y="324.918"/>
      <point x="257.579" y="331.126" type="curve" smooth="yes"/>
      <point x="257.579" y="339.084" type="line" smooth="yes"/>
      <point x="257.579" y="344.954"/>
      <point x="262.01" y="349.652"/>
      <point x="267.795" y="350.556" type="curve" smooth="yes"/>
      <point x="328.354" y="360.037"/>
      <point x="375.142" y="411.552"/>
      <point x="377.089" y="474.255" type="curve" smooth="yes"/>
      <point x="379.275" y="544.62"/>
      <point x="321.976" y="605.63"/>
      <point x="251.61" y="607.704" type="curve" smooth="yes"/>
      <point x="184.435" y="609.68"/>
      <point x="128.18" y="560.183"/>
    </contour>
  </outline>
</glyph>
<glyph name="four" format="2">
  <advance width="552"/>
  <unicode hex="0034"/>
  <outline>
    <contour>
      <point x="461.374" y="214.74" type="line" smooth="yes"/>
      <point x="476.954" y="214.74"/>
      <point x="489.595" y="202.1"/>
      <point x="489.595" y="186.52" type="curve"/>
      <point x="397.015" y="186.52" type="line"/>
      <point x="397.015" y="28.2295" type="line" smooth="yes"/>
      <point x="397.015" y="12.6396"/>
      <point x="384.375" y="0.00976562"/>
      <point x="368.795" y="0.00976562" type="curve"/>
      <point x="368.795" y="186.52" type="line"/>
      <point x="73.1045" y="186.52" type="line" smooth="yes"/>
      <point x="67.7949" y="186.52"/>
      <point x="62.9346" y="189.5"/>
      <point x="60.5342" y="194.23" type="curve" smooth="yes"/>
      <point x="58.1338" y="198.95"/>
      <point x="58.5742" y="204.641"/>
      <point x="61.6846" y="208.931" type="curve" smooth="yes"/>
      <point x="371.494" y="635.511" type="line" smooth="yes"/>
      <point x="375.094" y="640.461"/>
      <point x="381.454" y="642.521"/>
      <point x="387.264" y="640.641" type="curve" smooth="yes"/>
      <point x="393.084" y="638.751"/>
      <point x="397.014" y="633.331"/>
      <point x="397.014" y="627.221" type="curve" smooth="yes"/>
      <point x="397.014" y="214.74" type="line"/>
    </contour>
    <contour>
      <point x="368.795" y="214.739" type="line"/>
      <point x="368.795" y="583.789" type="line"/>
      <point x="100.785" y="214.739" type="line"/>
    </contour>
  </outline>
</glyph>
<glyph name="five" format="2">
  <advance width="514"/>
  <unicode hex="0035"/>
  <outline>
    <contour>
      <point x="228.681" y="413.498" type="curve" smooth="yes"/>
      <point x="346.934" y="413.498"/>
      <point x="443.133" y="320.754"/>
      <point x="443.133" y="206.748" type="curve" smooth="yes"/>
      <point x="443.133" y="92.7422"/>
      <point x="346.919" y="-0.000976562"/>
      <point x="228.68" y="-0.000976562" type="curve" smooth="yes"/>
      <point x="184.686" y="-0.000976562"/>
      <point x="142.385" y="12.7539"/>
      <point x="106.377" y="36.8955" type="curve" smooth="yes"/>
      <point x="92.2676" y="46.3486"/>
      <point x="79.3574" y="57.4248"/>
      <point x="67.999" y="69.8135" type="curve"/>
      <point x="79.1172" y="80.001"/>
      <point x="96.0352" y="80.5654"/>
      <point x="107.704" y="70.999" type="curve" smooth="yes"/>
      <point x="112.304" y="67.2178"/>
      <point x="117.115" y="63.6484"/>
      <point x="122.082" y="60.3184" type="curve" smooth="yes"/>
      <point x="153.434" y="39.3086"/>
      <point x="190.288" y="28.2041"/>
      <point x="228.681" y="28.2041" type="curve" smooth="yes"/>
      <point x="331.371" y="28.2041"/>
      <point x="414.914" y="108.291"/>
      <point x="414.914" y="206.734" type="curve" smooth="yes"/>
      <point x="414.914" y="305.178"/>
      <point x="331.371" y="385.265"/>
      <point x="228.681" y="385.265" type="curve" smooth="yes"/>
      <point x="189.286" y="385.265"/>
      <point x="151.655" y="373.624"/>
      <point x="119.838" y="351.613" type="curve" smooth="yes"/>
      <point x="115.521" y="348.636"/>
      <point x="109.905" y="348.283"/>
      <point x="105.264" y="350.725" type="curve" smooth="yes"/>
      <point x="100.622" y="353.166"/>
      <point x="97.7012" y="357.978"/>
      <point x="97.7012" y="363.227" type="curve" smooth="yes"/>
      <point x="97.7012" y="624.665" type="line" smooth="yes"/>
      <point x="97.7012" y="632.453"/>
      <point x="104.022" y="638.774"/>
      <point x="111.811" y="638.774" type="curve" smooth="yes"/>
      <point x="428.305" y="638.774" type="line"/>
      <point x="428.305" y="623.197"/>
      <point x="415.662" y="610.555"/>
      <point x="400.085" y="610.555" type="curve" smooth="yes"/>
      <point x="125.92" y="610.555" type="line"/>
      <point x="125.92" y="388.271" type="line"/>
      <point x="157.286" y="404.835"/>
      <point x="192.349" y="413.498"/>
    </contour>
  </outline>
</glyph>
<glyph name="six" format="2">
  <advance width="486"/>
  <unicode hex="0036"/>
  <outline>
    <contour>
      <point x="271.997" y="347.55" type="curve" smooth="yes"/>
      <point x="346.247" y="336.26"/>
      <point x="406.098" y="276.539"/>
      <point x="417.468" y="202.299" type="curve" smooth="yes"/>
      <point x="434.468" y="91.3184"/>
      <point x="346.308" y="-4.26172"/>
      <point x="237.548" y="0.148438" type="curve" smooth="yes"/>
      <point x="141.848" y="4.00879"/>
      <point x="68.7275" y="87.3887"/>
      <point x="70.0176" y="183.158" type="curve" smooth="yes"/>
      <point x="74.1572" y="493.599"/>
      <point x="308.697" y="655.879"/>
      <point x="311.077" y="657.499" type="curve"/>
      <point x="319.787" y="644.659"/>
      <point x="317.397" y="627.39"/>
      <point x="305.537" y="617.399" type="curve" smooth="yes"/>
      <point x="257.717" y="577.149"/>
      <point x="143.667" y="464.739"/>
      <point x="108.647" y="284.229" type="curve"/>
      <point x="145.928" y="330.52"/>
      <point x="206.188" y="357.56"/>
    </contour>
    <contour>
      <point x="269.638" y="30.2695" type="curve" smooth="yes"/>
      <point x="330.328" y="40.2998"/>
      <point x="379.298" y="89.25"/>
      <point x="389.328" y="149.93" type="curve" smooth="yes"/>
      <point x="405.898" y="250.1"/>
      <point x="320.108" y="335.909"/>
      <point x="219.929" y="319.35" type="curve" smooth="yes"/>
      <point x="159.229" y="309.319"/>
      <point x="110.288" y="260.369"/>
      <point x="100.248" y="199.689" type="curve" smooth="yes"/>
      <point x="83.668" y="99.5098"/>
      <point x="169.458" y="13.7197"/>
    </contour>
  </outline>
</glyph>
<glyph name="seven" format="2">
  <advance width="549"/>
  <unicode hex="0037"/>
  <outline>
    <contour>
      <point x="488.359" y="634.329" type="curve" smooth="yes"/>
      <point x="490.97" y="630.421"/>
      <point x="491.464" y="625.427"/>
      <point x="489.644" y="621.066" type="curve" smooth="yes"/>
      <point x="242.668" y="28.2197" type="line" smooth="yes"/>
      <point x="235.557" y="11.1328"/>
      <point x="218.851" y="0"/>
      <point x="200.339" y="0" type="curve"/>
      <point x="455.456" y="612.389" type="line"/>
      <point x="78.2197" y="612.248" type="line" smooth="yes"/>
      <point x="62.6426" y="612.234"/>
      <point x="50" y="624.862"/>
      <point x="50" y="640.453" type="curve"/>
      <point x="476.62" y="640.608" type="line" smooth="yes"/>
      <point x="481.333" y="640.608"/>
      <point x="485.735" y="638.252"/>
    </contour>
  </outline>
</glyph>
<glyph name="eight" format="2">
  <advance width="541"/>
  <unicode hex="0038"/>
  <outline>
    <contour>
      <point x="340.213" y="340.946" type="curve"/>
      <point x="415.939" y="315.958"/>
      <point x="469.965" y="251.688"/>
      <point x="469.965" y="176.116" type="curve" smooth="yes"/>
      <point x="469.965" y="78.8438"/>
      <point x="380.65" y="-0.000976562"/>
      <point x="270.482" y="-0.000976562" type="curve" smooth="yes"/>
      <point x="160.314" y="-0.000976562"/>
      <point x="71" y="78.8438"/>
      <point x="71" y="176.116" type="curve" smooth="yes"/>
      <point x="71" y="251.688"/>
      <point x="125.026" y="315.957"/>
      <point x="200.753" y="340.945" type="curve"/>
      <point x="148.674" y="366.71"/>
      <point x="112.779" y="420.214"/>
      <point x="112.779" y="482.24" type="curve" smooth="yes"/>
      <point x="112.779" y="569.339"/>
      <point x="183.384" y="639.943"/>
      <point x="270.482" y="639.943" type="curve" smooth="yes"/>
      <point x="357.581" y="639.943"/>
      <point x="428.186" y="569.339"/>
      <point x="428.172" y="482.24" type="curve" smooth="yes"/>
      <point x="428.172" y="420.214"/>
      <point x="392.277" y="366.696"/>
    </contour>
    <contour>
      <point x="140.998" y="482.239" type="curve" smooth="yes"/>
      <point x="140.998" y="410.845"/>
      <point x="199.088" y="352.755"/>
      <point x="270.482" y="352.755" type="curve" smooth="yes"/>
      <point x="341.877" y="352.755"/>
      <point x="399.967" y="410.845"/>
      <point x="399.967" y="482.239" type="curve" smooth="yes"/>
      <point x="399.967" y="553.634"/>
      <point x="341.877" y="611.724"/>
      <point x="270.482" y="611.724" type="curve" smooth="yes"/>
      <point x="199.088" y="611.724"/>
      <point x="140.998" y="553.634"/>
    </contour>
    <contour>
      <point x="270.482" y="28.2324" type="curve" smooth="yes"/>
      <point x="364.919" y="28.2324"/>
      <point x="441.746" y="94.5762"/>
      <point x="441.746" y="176.13" type="curve" smooth="yes"/>
      <point x="441.746" y="257.684"/>
      <point x="364.919" y="324.027"/>
      <point x="270.482" y="324.027" type="curve" smooth="yes"/>
      <point x="176.046" y="324.027"/>
      <point x="99.2188" y="257.684"/>
      <point x="99.2188" y="176.13" type="curve" smooth="yes"/>
      <point x="99.2188" y="94.5762"/>
      <point x="176.046" y="28.2324"/>
    </contour>
  </outline>
</glyph>
<glyph name="nine" format="2">
  <advance width="521"/>
  <unicode hex="0039"/>
  <outline>
    <contour>
      <point x="451.19" y="453.19" type="curve" smooth="yes"/>
      <point x="451.19" y="446.391"/>
      <point x="450.82" y="439.662"/>
      <point x="450.13" y="433.042" type="curve" smooth="yes"/>
      <point x="432.62" y="153.062"/>
      <point x="150.311" y="1.54199"/>
      <point x="147.381" y="0.00195312" type="curve"/>
      <point x="140.141" y="13.792"/>
      <point x="144.7" y="30.7217"/>
      <point x="157.82" y="39.0713" type="curve" smooth="yes"/>
      <point x="211.66" y="73.3711"/>
      <point x="343.15" y="169.581"/>
      <point x="398.051" y="320.781" type="curve"/>
      <point x="363.061" y="284.071"/>
      <point x="313.801" y="261.091"/>
      <point x="259.091" y="261.091" type="curve" smooth="yes"/>
      <point x="153.001" y="261.091"/>
      <point x="67.001" y="347.081"/>
      <point x="67.001" y="453.191" type="curve" smooth="yes"/>
      <point x="67.001" y="559.291"/>
      <point x="153.001" y="645.291"/>
      <point x="259.091" y="645.281" type="curve" smooth="yes"/>
      <point x="362.761" y="645.281"/>
      <point x="447.03" y="563.091"/>
      <point x="450.82" y="460.341" type="curve"/>
      <point x="450.98" y="460.341" type="line"/>
      <point x="450.98" y="459.721"/>
      <point x="450.921" y="459.11"/>
      <point x="450.921" y="458.49" type="curve" smooth="yes"/>
      <point x="450.98" y="456.721"/>
      <point x="451.19" y="454.98"/>
    </contour>
    <contour>
      <point x="259.091" y="289.302" type="curve" smooth="yes"/>
      <point x="343.261" y="289.302"/>
      <point x="412.751" y="353.121"/>
      <point x="421.881" y="434.901" type="curve" smooth="yes"/>
      <point x="422.361" y="442.632"/>
      <point x="422.661" y="450.441"/>
      <point x="422.701" y="458.371" type="curve" smooth="yes"/>
      <point x="419.941" y="546.331"/>
      <point x="347.711" y="617.071"/>
      <point x="259.091" y="617.071" type="curve" smooth="yes"/>
      <point x="168.73" y="617.071"/>
      <point x="95.2207" y="543.562"/>
      <point x="95.2207" y="453.191" type="curve" smooth="yes"/>
      <point x="95.2207" y="362.821"/>
      <point x="168.73" y="289.302"/>
    </contour>
  </outline>
</glyph>
<glyph name="colon" format="2">
  <advance width="164"/>
  <unicode hex="003A"/>
  <outline>
    <contour>
      <point x="82" y="414.97" type="curve" smooth="yes"/>
      <point x="65.4297" y="414.97"/>
      <point x="52" y="428.399"/>
      <point x="52" y="444.97" type="curve" smooth="yes"/>
      <point x="52" y="461.529"/>
      <point x="65.4297" y="474.97"/>
      <point x="82" y="474.97" type="curve" smooth="yes"/>
      <point x="98.5596" y="474.97"/>
      <point x="111.989" y="461.529"/>
      <point x="111.989" y="444.97" type="curve" smooth="yes"/>
      <point x="111.989" y="428.399"/>
      <point x="98.5596" y="414.97"/>
    </contour>
    <contour>
      <point x="82" y="155" type="curve" smooth="yes"/>
      <point x="65.4297" y="155"/>
      <point x="52" y="168.43"/>
      <point x="52" y="185" type="curve" smooth="yes"/>
      <point x="52" y="201.56"/>
      <point x="65.4297" y="214.989"/>
      <point x="82" y="214.989" type="curve" smooth="yes"/>
      <point x="98.5596" y="214.989"/>
      <point x="111.989" y="201.56"/>
      <point x="111.989" y="185" type="curve" smooth="yes"/>
      <point x="111.989" y="168.43"/>
      <point x="98.5596" y="155"/>
    </contour>
  </outline>
</glyph>
<glyph name="semicolon" format="2">
  <advance width="189"/>
  <unicode hex="003B"/>
  <outline>
    <contour>
      <point x="109.24" y="150.43" type="curve" smooth="yes"/>
      <point x="92.6807" y="150.43"/>
      <point x="79.251" y="163.859"/>
      <point x="79.251" y="180.43" type="curve" smooth="yes"/>
      <point x="79.251" y="196.989"/>
      <point x="92.6807" y="210.419"/>
      <point x="109.24" y="210.419" type="curve" smooth="yes"/>
      <point x="125.811" y="210.419"/>
      <point x="139.24" y="196.989"/>
      <point x="139.24" y="180.43" type="curve" smooth="yes"/>
      <point x="139.24" y="163.859"/>
      <point x="125.811" y="150.43"/>
    </contour>
    <contour>
      <point x="71.3701" y="44.7295" type="line" smooth="yes"/>
      <point x="78.3604" y="58.6895"/>
      <point x="95.2998" y="64.3291"/>
      <point x="109.24" y="57.3594" type="curve"/>
      <point x="41.8701" y="-77.3906" type="line" smooth="yes"/>
      <point x="34.9004" y="-91.3408"/>
      <point x="17.9404" y="-96.9805"/>
      <point x="4" y="-90.0107" type="curve"/>
    </contour>
  </outline>
</glyph>
<glyph name="less" format="2">
  <advance width="533"/>
  <unicode hex="003C"/>
  <outline>
    <contour>
      <point x="476.397" y="95.5713" type="line"/>
      <point x="469.413" y="81.6455"/>
      <point x="452.453" y="76.0146"/>
      <point x="438.527" y="82.999" type="curve" smooth="yes"/>
      <point x="63.7881" y="270.785" type="line" smooth="yes"/>
      <point x="59.0186" y="273.17"/>
      <point x="55.999" y="278.066"/>
      <point x="55.999" y="283.399" type="curve" smooth="yes"/>
      <point x="55.999" y="288.732"/>
      <point x="59.0186" y="293.629"/>
      <point x="63.7881" y="296.027" type="curve" smooth="yes"/>
      <point x="438.499" y="483.714" type="line" smooth="yes"/>
      <point x="452.439" y="490.698"/>
      <point x="469.413" y="485.055"/>
      <point x="476.397" y="471.114" type="curve"/>
      <point x="101.603" y="283.399" type="line"/>
    </contour>
  </outline>
</glyph>
<glyph name="equal" format="2">
  <advance width="326"/>
  <unicode hex="003D"/>
  <outline>
    <contour>
      <point x="43" y="200" type="line"/>
      <point x="43" y="215.59"/>
      <point x="55.6396" y="228.22"/>
      <point x="71.2197" y="228.22" type="curve" smooth="yes"/>
      <point x="282.979" y="228.22" type="line"/>
      <point x="282.979" y="212.64"/>
      <point x="270.34" y="200"/>
      <point x="254.76" y="200" type="curve" smooth="yes"/>
    </contour>
    <contour>
      <point x="282.98" y="377.73" type="line"/>
      <point x="282.98" y="362.15"/>
      <point x="270.341" y="349.511"/>
      <point x="254.761" y="349.511" type="curve" smooth="yes"/>
      <point x="43.001" y="349.511" type="line"/>
      <point x="43.001" y="365.101"/>
      <point x="55.6406" y="377.73"/>
      <point x="71.2207" y="377.73" type="curve" smooth="yes"/>
    </contour>
  </outline>
</glyph>
<glyph name="greater" format="2">
  <advance width="533"/>
  <unicode hex="003E"/>
  <outline>
    <contour>
      <point x="56" y="471.139" type="line"/>
      <point x="62.9844" y="485.064"/>
      <point x="79.9443" y="490.694"/>
      <point x="93.8701" y="483.725" type="curve" smooth="yes"/>
      <point x="468.609" y="295.925" type="line" smooth="yes"/>
      <point x="473.379" y="293.54"/>
      <point x="476.398" y="288.644"/>
      <point x="476.398" y="283.311" type="curve" smooth="yes"/>
      <point x="476.398" y="277.978"/>
      <point x="473.379" y="273.081"/>
      <point x="468.609" y="270.683" type="curve" smooth="yes"/>
      <point x="93.8984" y="82.9961" type="line" smooth="yes"/>
      <point x="79.9443" y="76.0117"/>
      <point x="62.9844" y="81.6553"/>
      <point x="56" y="95.5957" type="curve"/>
      <point x="430.781" y="283.311" type="line"/>
    </contour>
  </outline>
</glyph>
<glyph name="question" format="2">
  <advance width="470"/>
  <unicode hex="003F"/>
  <outline>
    <contour>
      <point x="232.085" y="0" type="curve" smooth="yes"/>
      <point x="215.518" y="0"/>
      <point x="202.087" y="13.4307"/>
      <point x="202.087" y="29.998" type="curve" smooth="yes"/>
      <point x="202.087" y="46.5654"/>
      <point x="215.518" y="59.9961"/>
      <point x="232.085" y="59.9961" type="curve" smooth="yes"/>
      <point x="248.652" y="59.9961"/>
      <point x="262.083" y="46.5654"/>
      <point x="262.083" y="29.998" type="curve" smooth="yes"/>
      <point x="262.083" y="13.4307"/>
      <point x="248.652" y="0"/>
    </contour>
    <contour>
      <point x="226.441" y="639.874" type="curve" smooth="yes"/>
      <point x="307.008" y="641.793"/>
      <point x="398.07" y="597.857"/>
      <point x="406.028" y="496.296" type="curve" smooth="yes"/>
      <point x="408.61" y="437.698"/>
      <point x="367.227" y="395.144"/>
      <point x="335.847" y="368.18" type="curve" smooth="yes"/>
      <point x="244.628" y="278.033"/>
      <point x="245.517" y="237.595"/>
      <point x="246.674" y="186.391" type="curve" smooth="yes"/>
      <point x="246.674" y="186.137" type="line" smooth="yes"/>
      <point x="246.984" y="171.759"/>
      <point x="235.471" y="159.991"/>
      <point x="221.093" y="159.991" type="curve" smooth="yes"/>
      <point x="218.469" y="159.991" type="line"/>
      <point x="218.681" y="168.824"/>
      <point x="218.652" y="177.445"/>
      <point x="218.469" y="185.756" type="curve" smooth="yes"/>
      <point x="217.27" y="239.133"/>
      <point x="216.155" y="289.561"/>
      <point x="316.743" y="388.921" type="curve"/>
      <point x="360.794" y="426.806"/>
      <point x="379.419" y="459.188"/>
      <point x="377.867" y="494.561" type="curve" smooth="yes"/>
      <point x="371.377" y="577.328"/>
      <point x="295.185" y="613.688"/>
      <point x="227.147" y="611.656" type="curve" smooth="yes"/>
      <point x="166.18" y="610.104"/>
      <point x="103.899" y="579.486"/>
      <point x="89.3379" y="514.948" type="curve" smooth="yes"/>
      <point x="86.0225" y="500.26"/>
      <point x="73.0557" y="489.79"/>
      <point x="58.001" y="490.199" type="curve"/>
      <point x="60.752" y="590.166"/>
      <point x="147.244" y="637.856"/>
    </contour>
  </outline>
</glyph>
<glyph name="at" format="2">
  <advance width="614"/>
  <unicode hex="0040"/>
  <outline>
    <contour>
      <point x="399.622" y="331.74" type="line" smooth="yes"/>
      <point x="399.622" y="347.34"/>
      <point x="412.262" y="359.959"/>
      <point x="427.842" y="359.959" type="curve"/>
      <point x="427.842" y="119.989" type="line"/>
      <point x="412.262" y="119.989"/>
      <point x="399.622" y="132.629"/>
      <point x="399.622" y="148.209" type="curve" smooth="yes"/>
      <point x="399.622" y="163.909" type="line"/>
      <point x="372.972" y="131.499"/>
      <point x="329.752" y="113.229"/>
      <point x="282.882" y="122.34" type="curve" smooth="yes"/>
      <point x="236.102" y="131.439"/>
      <point x="198.422" y="169.14"/>
      <point x="189.332" y="215.93" type="curve" smooth="yes"/>
      <point x="174.422" y="292.75"/>
      <point x="232.862" y="359.96"/>
      <point x="306.992" y="359.96" type="curve" smooth="yes"/>
      <point x="344.282" y="359.96"/>
      <point x="377.612" y="342.95"/>
      <point x="399.622" y="316.24" type="curve"/>
    </contour>
    <contour>
      <point x="308.353" y="148.22" type="curve" smooth="yes"/>
      <point x="357.022" y="148.939"/>
      <point x="398.031" y="189.929"/>
      <point x="398.731" y="238.619" type="curve" smooth="yes"/>
      <point x="399.481" y="289.839"/>
      <point x="358.041" y="331.739"/>
      <point x="306.981" y="331.739" type="curve" smooth="yes"/>
      <point x="256.382" y="331.739"/>
      <point x="215.212" y="290.569"/>
      <point x="215.212" y="239.979" type="curve" smooth="yes"/>
      <point x="215.212" y="188.93"/>
      <point x="257.112" y="147.47"/>
    </contour>
    <contour>
      <point x="293.151" y="479.559" type="curve" smooth="yes"/>
      <point x="427.642" y="487.188"/>
      <point x="544.801" y="378.48"/>
      <point x="546.931" y="243.801" type="curve" smooth="yes"/>
      <point x="547.631" y="198.591"/>
      <point x="535.641" y="156.331"/>
      <point x="514.591" y="119.991" type="curve"/>
      <point x="500.421" y="119.991"/>
      <point x="491.171" y="134.761"/>
      <point x="497.371" y="147.491" type="curve" smooth="yes"/>
      <point x="515.941" y="185.481"/>
      <point x="523.491" y="229.802"/>
      <point x="515.671" y="276.321" type="curve" smooth="yes"/>
      <point x="500.461" y="366.791"/>
      <point x="425.841" y="438.261"/>
      <point x="334.86" y="449.94" type="curve" smooth="yes"/>
      <point x="197.261" y="467.61"/>
      <point x="80.8008" y="352.2"/>
      <point x="96.6709" y="214.9" type="curve" smooth="yes"/>
      <point x="107.44" y="121.721"/>
      <point x="180.91" y="45.4004"/>
      <point x="273.58" y="30.8604" type="curve" smooth="yes"/>
      <point x="303.75" y="26.1201"/>
      <point x="332.9" y="27.96"/>
      <point x="359.971" y="35.0195" type="curve" smooth="yes"/>
      <point x="373.671" y="38.5898"/>
      <point x="386.971" y="28.0996"/>
      <point x="386.971" y="13.9492" type="curve"/>
      <point x="348.501" y="0.338867"/>
      <point x="305.831" y="-4.35156"/>
      <point x="260.911" y="4.55859" type="curve" smooth="yes"/>
      <point x="157.701" y="24.999"/>
      <point x="77.8213" y="112.199"/>
      <point x="68.0713" y="216.979" type="curve" smooth="yes"/>
      <point x="55.2217" y="355.119"/>
      <point x="159.562" y="471.969"/>
    </contour>
  </outline>
</glyph>
<glyph name="A" format="2">
  <advance width="694"/>
  <unicode hex="0041"/>
  <outline>
    <contour>
      <point x="359.28" y="632.04" type="curve" smooth="yes"/>
      <point x="675.28" y="0" type="line"/>
      <point x="655.95" y="-0"/>
      <point x="638.271" y="10.9199"/>
      <point x="629.62" y="28.2197" type="curve" smooth="yes"/>
      <point x="531.311" y="224.87" type="line"/>
      <point x="161.99" y="224.87" type="line"/>
      <point x="63.6602" y="28.2197" type="line" smooth="yes"/>
      <point x="55.0205" y="10.9199"/>
      <point x="37.3408" y="0"/>
      <point x="18.001" y="0" type="curve"/>
      <point x="334.031" y="632.04" type="line" smooth="yes"/>
      <point x="336.421" y="636.83"/>
      <point x="341.311" y="639.85"/>
      <point x="346.65" y="639.85" type="curve" smooth="yes"/>
      <point x="352" y="639.85"/>
      <point x="356.88" y="636.83"/>
    </contour>
    <contour>
      <point x="176.101" y="253.09" type="line"/>
      <point x="517.201" y="253.09" type="line"/>
      <point x="346.671" y="594.189" type="line"/>
    </contour>
  </outline>
</glyph>
<glyph name="B" format="2">
  <advance width="599"/>
  <unicode hex="0042"/>
  <outline>
    <contour>
      <point x="410.111" y="333.34" type="curve"/>
      <point x="492.201" y="325.692"/>
      <point x="556.67" y="256.497"/>
      <point x="556.67" y="172.46" type="curve" smooth="yes"/>
      <point x="556.67" y="161.779" type="line" smooth="yes"/>
      <point x="556.67" y="72.5078"/>
      <point x="484.302" y="0.125"/>
      <point x="395.016" y="0.125" type="curve" smooth="yes"/>
      <point x="99.1074" y="0.125" type="line" smooth="yes"/>
      <point x="88.0029" y="0.125"/>
      <point x="79.001" y="9.12695"/>
      <point x="79.001" y="20.2314" type="curve" smooth="yes"/>
      <point x="79.001" y="619.752" type="line" smooth="yes"/>
      <point x="79.001" y="630.87"/>
      <point x="88.0029" y="639.872"/>
      <point x="99.1211" y="639.872" type="curve" smooth="yes"/>
      <point x="320.106" y="639.872" type="line" smooth="yes"/>
      <point x="409.378" y="639.872"/>
      <point x="481.761" y="567.504"/>
      <point x="481.761" y="478.218" type="curve" smooth="yes"/>
      <point x="481.761" y="467.537" type="line" smooth="yes"/>
      <point x="481.761" y="411.705"/>
      <point x="453.287" y="362.392"/>
    </contour>
    <contour>
      <point x="107.221" y="611.651" type="line"/>
      <point x="107.221" y="334.1" type="line"/>
      <point x="320.107" y="334.1" type="line" smooth="yes"/>
      <point x="393.689" y="334.1"/>
      <point x="453.543" y="393.953"/>
      <point x="453.543" y="467.535" type="curve" smooth="yes"/>
      <point x="453.543" y="478.216" type="line" smooth="yes"/>
      <point x="453.543" y="551.798"/>
      <point x="393.689" y="611.651"/>
      <point x="320.107" y="611.651" type="curve" smooth="yes"/>
    </contour>
    <contour>
      <point x="528.451" y="161.764" type="curve" smooth="yes"/>
      <point x="528.451" y="172.444" type="line" smooth="yes"/>
      <point x="528.451" y="246.026"/>
      <point x="468.598" y="305.88"/>
      <point x="395.016" y="305.88" type="curve" smooth="yes"/>
      <point x="107.221" y="305.88" type="line"/>
      <point x="107.221" y="28.3281" type="line"/>
      <point x="395.016" y="28.3281" type="line" smooth="yes"/>
      <point x="468.598" y="28.3281"/>
      <point x="528.451" y="88.1816"/>
    </contour>
  </outline>
</glyph>
<glyph name="C" format="2">
  <advance width="557"/>
  <unicode hex="0043"/>
  <outline>
    <contour>
      <point x="490.637" y="55.7334" type="curve" smooth="yes"/>
      <point x="504.662" y="62.2939"/>
      <point x="521.311" y="57.5"/>
      <point x="529.17" y="44.166" type="curve"/>
      <point x="480.209" y="15.2832"/>
      <point x="424.081" y="0.00195312"/>
      <point x="366.908" y="0.00195312" type="curve" smooth="yes"/>
      <point x="190.509" y="0.00195312"/>
      <point x="46.999" y="143.525"/>
      <point x="46.999" y="319.925" type="curve" smooth="yes"/>
      <point x="46.999" y="496.324"/>
      <point x="190.509" y="639.848"/>
      <point x="366.908" y="639.861" type="curve" smooth="yes"/>
      <point x="424.081" y="639.861"/>
      <point x="480.195" y="624.58"/>
      <point x="529.17" y="595.697" type="curve"/>
      <point x="521.311" y="582.363"/>
      <point x="504.647" y="577.566"/>
      <point x="490.622" y="584.127" type="curve" smooth="yes"/>
      <point x="452.117" y="602.159"/>
      <point x="409.845" y="611.599"/>
      <point x="366.909" y="611.599" type="curve" smooth="yes"/>
      <point x="206.102" y="611.599"/>
      <point x="75.2627" y="480.745"/>
      <point x="75.2627" y="319.923" type="curve" smooth="yes"/>
      <point x="75.2627" y="159.101"/>
      <point x="206.102" y="28.2617"/>
      <point x="366.924" y="28.2617" type="curve" smooth="yes"/>
      <point x="409.859" y="28.2617"/>
      <point x="452.132" y="37.7012"/>
    </contour>
  </outline>
</glyph>
<glyph name="D" format="2">
  <advance width="607"/>
  <unicode hex="0044"/>
  <outline>
    <contour>
      <point x="239.989" y="611.711" type="curve" smooth="yes"/>
      <point x="108.219" y="611.71" type="line"/>
      <point x="108.219" y="28.2188" type="line"/>
      <point x="239.989" y="28.2188" type="line" smooth="yes"/>
      <point x="400.854" y="28.2188"/>
      <point x="531.735" y="159.101"/>
      <point x="531.735" y="319.965" type="curve" smooth="yes"/>
      <point x="531.735" y="480.829"/>
      <point x="400.854" y="611.711"/>
    </contour>
    <contour>
      <point x="80" y="639.93" type="line"/>
      <point x="239.989" y="639.931" type="line" smooth="yes"/>
      <point x="416.699" y="639.931"/>
      <point x="559.955" y="496.675"/>
      <point x="559.955" y="319.965" type="curve" smooth="yes"/>
      <point x="559.955" y="143.255"/>
      <point x="416.699" y="-0.000976562"/>
      <point x="239.989" y="-0.000976562" type="curve" smooth="yes"/>
      <point x="80" y="-0.000976562" type="line"/>
    </contour>
  </outline>
</glyph>
<glyph name="E" format="2">
  <advance width="519"/>
  <unicode hex="0045"/>
  <outline>
    <contour>
      <point x="465.857" y="28.2197" type="line" smooth="yes"/>
      <point x="481.448" y="28.2197"/>
      <point x="494.076" y="15.5771"/>
      <point x="494.076" y="0" type="curve"/>
      <point x="94.1094" y="0" type="line" smooth="yes"/>
      <point x="86.3213" y="0"/>
      <point x="80" y="6.32129"/>
      <point x="80" y="14.1094" type="curve" smooth="yes"/>
      <point x="80" y="625.75" type="line" smooth="yes"/>
      <point x="80" y="633.538"/>
      <point x="86.3213" y="639.859"/>
      <point x="94.1094" y="639.859" type="curve" smooth="yes"/>
      <point x="494.076" y="639.859" type="line"/>
      <point x="494.076" y="624.269"/>
      <point x="481.448" y="611.641"/>
      <point x="465.857" y="611.641" type="curve" smooth="yes"/>
      <point x="108.22" y="611.641" type="line"/>
      <point x="108.22" y="334.132" type="line"/>
      <point x="401.207" y="334.132" type="line"/>
      <point x="401.207" y="318.555"/>
      <point x="388.579" y="305.912"/>
      <point x="372.988" y="305.912" type="curve" smooth="yes"/>
      <point x="108.22" y="305.912" type="line"/>
      <point x="108.22" y="28.2197" type="line"/>
    </contour>
  </outline>
</glyph>
<glyph name="F" format="2">
  <advance width="425"/>
  <unicode hex="0046"/>
  <outline>
    <contour>
      <point x="248.96" y="639.887" type="curve" smooth="yes"/>
      <point x="408.076" y="639.899" type="line"/>
      <point x="408.076" y="624.309"/>
      <point x="395.434" y="611.681"/>
      <point x="379.856" y="611.681" type="curve" smooth="yes"/>
      <point x="248.975" y="611.681" type="line" smooth="yes"/>
      <point x="167.929" y="611.681"/>
      <point x="102.22" y="545.986"/>
      <point x="102.22" y="464.926" type="curve" smooth="yes"/>
      <point x="102.22" y="319.935" type="line"/>
      <point x="328.088" y="319.935" type="line"/>
      <point x="328.088" y="304.344"/>
      <point x="315.445" y="291.716"/>
      <point x="299.868" y="291.716" type="curve" smooth="yes"/>
      <point x="102.22" y="291.716" type="line"/>
      <point x="102.22" y="28.2461" type="line" smooth="yes"/>
      <point x="102.22" y="12.6553"/>
      <point x="89.5771" y="0.0273438"/>
      <point x="74" y="0.0273438" type="curve"/>
      <point x="74" y="464.927" type="line" smooth="yes"/>
      <point x="74" y="561.55"/>
      <point x="152.323" y="639.887"/>
    </contour>
  </outline>
</glyph>
<glyph name="G" format="2">
  <advance width="730"/>
  <unicode hex="0047"/>
  <outline>
    <contour>
      <point x="432.899" y="262.723" type="curve"/>
      <point x="684.037" y="262.724" type="line"/>
      <point x="684.037" y="249.009"/>
      <point x="681.949" y="235.337"/>
      <point x="677.759" y="222.285" type="curve" smooth="yes"/>
      <point x="635.345" y="90.3037"/>
      <point x="511.956" y="0.00195312"/>
      <point x="370.026" y="0.00195312" type="curve" smooth="yes"/>
      <point x="191.906" y="0.00195312"/>
      <point x="47" y="143.512"/>
      <point x="47" y="319.911" type="curve" smooth="yes"/>
      <point x="47" y="496.311"/>
      <point x="191.906" y="639.834"/>
      <point x="370.026" y="639.834" type="curve" smooth="yes"/>
      <point x="515.808" y="639.834"/>
      <point x="644.051" y="542.59"/>
      <point x="681.949" y="403.355" type="curve"/>
      <point x="667.063" y="399.306"/>
      <point x="651.769" y="407.419"/>
      <point x="646.336" y="421.867" type="curve" smooth="yes"/>
      <point x="603.81" y="534.844"/>
      <point x="493.853" y="611.614"/>
      <point x="370.026" y="611.614" type="curve" smooth="yes"/>
      <point x="207.469" y="611.614"/>
      <point x="75.2188" y="480.761"/>
      <point x="75.2188" y="319.91" type="curve" smooth="yes"/>
      <point x="75.2188" y="159.06"/>
      <point x="207.469" y="28.2207"/>
      <point x="370.026" y="28.2207" type="curve" smooth="yes"/>
      <point x="500.823" y="28.2207"/>
      <point x="614.138" y="112.258"/>
      <point x="651.769" y="234.504" type="curve"/>
      <point x="461.118" y="234.504" type="line" smooth="yes"/>
      <point x="445.527" y="234.504"/>
      <point x="432.899" y="247.132"/>
    </contour>
  </outline>
</glyph>
<glyph name="H" format="2">
  <advance width="640"/>
  <unicode hex="0048"/>
  <outline>
    <contour>
      <point x="531.735" y="611.725" type="line" smooth="yes"/>
      <point x="531.735" y="627.302"/>
      <point x="544.376" y="639.943"/>
      <point x="559.953" y="639.943" type="curve"/>
      <point x="559.953" y="28.2188" type="line" smooth="yes"/>
      <point x="559.953" y="12.6416"/>
      <point x="547.325" y="-0.000976562"/>
      <point x="531.734" y="-0.000976562" type="curve"/>
      <point x="531.734" y="305.854" type="line"/>
      <point x="108.219" y="305.854" type="line"/>
      <point x="108.219" y="28.2188" type="line" smooth="yes"/>
      <point x="108.219" y="12.6416"/>
      <point x="95.5908" y="-0.000976562"/>
      <point x="80" y="-0.000976562" type="curve"/>
      <point x="80" y="611.724" type="line" smooth="yes"/>
      <point x="80" y="627.301"/>
      <point x="92.6426" y="639.943"/>
      <point x="108.22" y="639.943" type="curve"/>
      <point x="108.22" y="334.074" type="line"/>
      <point x="531.735" y="334.074" type="line"/>
    </contour>
  </outline>
</glyph>
<glyph name="I" format="2">
  <advance width="189"/>
  <unicode hex="0049"/>
  <outline>
    <contour>
      <point x="80" y="611.668" type="line" smooth="yes"/>
      <point x="80" y="627.259"/>
      <point x="92.6426" y="639.888"/>
      <point x="108.22" y="639.888" type="curve"/>
      <point x="108.22" y="28.1768" type="line" smooth="yes"/>
      <point x="108.22" y="12.5996"/>
      <point x="95.5771" y="-0.0429688"/>
      <point x="80" y="-0.0429688" type="curve"/>
    </contour>
  </outline>
</glyph>
<glyph name="J" format="2">
  <advance width="448"/>
  <unicode hex="004A"/>
  <outline>
    <contour>
      <point x="199.1" y="639.87" type="curve"/>
      <point x="359.069" y="639.871" type="line" smooth="yes"/>
      <point x="366.859" y="639.871"/>
      <point x="373.18" y="633.551"/>
      <point x="373.18" y="625.761" type="curve" smooth="yes"/>
      <point x="373.18" y="179.221" type="line" smooth="yes"/>
      <point x="373.18" y="88.6211"/>
      <point x="306.08" y="9.31152"/>
      <point x="215.87" y="0.821289" type="curve" smooth="yes"/>
      <point x="112.36" y="-8.91895"/>
      <point x="25" y="72.5908"/>
      <point x="25" y="174.131" type="curve"/>
      <point x="39.7402" y="174.131"/>
      <point x="52.8398" y="163.801"/>
      <point x="55.3301" y="149.271" type="curve" smooth="yes"/>
      <point x="67.9297" y="76.1904"/>
      <point x="135.069" y="21.54"/>
      <point x="213.159" y="28.9102" type="curve" smooth="yes"/>
      <point x="288.749" y="36.04"/>
      <point x="344.979" y="102.49"/>
      <point x="344.979" y="178.42" type="curve" smooth="yes"/>
      <point x="344.979" y="611.65" type="line"/>
      <point x="227.319" y="611.65" type="line" smooth="yes"/>
      <point x="211.739" y="611.65"/>
      <point x="199.1" y="624.28"/>
    </contour>
  </outline>
</glyph>
<glyph name="K" format="2">
  <advance width="601"/>
  <unicode hex="004B"/>
  <outline>
    <contour>
      <point x="581.37" y="639.89" type="curve"/>
      <point x="118.912" y="317.381" type="line"/>
      <point x="580.762" y="0.000976562" type="line"/>
      <point x="548.312" y="0.000976562"/>
      <point x="516.621" y="9.83105"/>
      <point x="489.871" y="28.2207" type="curve" smooth="yes"/>
      <point x="108.221" y="290.49" type="line"/>
      <point x="108.221" y="28.1602" type="line" smooth="yes"/>
      <point x="108.221" y="12.5801"/>
      <point x="95.5703" y="-0.0595703"/>
      <point x="80" y="-0.0595703" type="curve"/>
      <point x="80" y="611.65" type="line" smooth="yes"/>
      <point x="80" y="627.24"/>
      <point x="92.6396" y="639.87"/>
      <point x="108.22" y="639.87" type="curve"/>
      <point x="108.22" y="344.33" type="line"/>
      <point x="491.56" y="611.67" type="line" smooth="yes"/>
      <point x="517.899" y="630.04"/>
      <point x="549.26" y="639.89"/>
    </contour>
  </outline>
</glyph>
<glyph name="L" format="2">
  <advance width="413"/>
  <unicode hex="004C"/>
  <outline>
    <contour>
      <point x="371.76" y="28.2197" type="line" smooth="yes"/>
      <point x="387.351" y="28.2197"/>
      <point x="399.979" y="15.5781"/>
      <point x="399.979" y="0.000976562" type="curve"/>
      <point x="94.1094" y="0.000976562" type="line" smooth="yes"/>
      <point x="86.3213" y="0.000976562"/>
      <point x="80" y="6.32227"/>
      <point x="80" y="14.1104" type="curve" smooth="yes"/>
      <point x="80" y="638.76" type="line"/>
      <point x="95.5908" y="638.76"/>
      <point x="108.219" y="626.117"/>
      <point x="108.219" y="610.54" type="curve" smooth="yes"/>
      <point x="108.219" y="28.2197" type="line"/>
    </contour>
  </outline>
</glyph>
<glyph name="M" format="2">
  <advance width="723"/>
  <unicode hex="004D"/>
  <outline>
    <contour>
      <point x="67.0361" y="28.2334" type="line" smooth="yes"/>
      <point x="62.9443" y="11.6543"/>
      <point x="48.0713" y="0"/>
      <point x="30.999" y="-0" type="curve"/>
      <point x="186.432" y="629.094" type="line" smooth="yes"/>
      <point x="187.913" y="635.104"/>
      <point x="193.162" y="639.465"/>
      <point x="199.342" y="639.789" type="curve" smooth="yes"/>
      <point x="205.268" y="640.339"/>
      <point x="211.222" y="636.402"/>
      <point x="213.366" y="630.589" type="curve" smooth="yes"/>
      <point x="358.23" y="237.366" type="line"/>
      <point x="503.095" y="630.589" type="line" smooth="yes"/>
      <point x="505.226" y="636.374"/>
      <point x="511.081" y="640.24"/>
      <point x="517.035" y="639.803" type="curve" smooth="yes"/>
      <point x="523.201" y="639.492"/>
      <point x="528.45" y="635.217"/>
      <point x="529.988" y="629.248" type="curve" smooth="yes"/>
      <point x="692.842" y="-0.000976562" type="line"/>
      <point x="675.685" y="-0.000976562"/>
      <point x="660.7" y="11.6113"/>
      <point x="656.396" y="28.2188" type="curve" smooth="yes"/>
      <point x="513.974" y="578.51" type="line"/>
      <point x="371.466" y="191.679" type="line" smooth="yes"/>
      <point x="369.434" y="186.134"/>
      <point x="364.128" y="182.451"/>
      <point x="358.23" y="182.451" type="curve" smooth="yes"/>
      <point x="352.333" y="182.451"/>
      <point x="347.042" y="186.12"/>
      <point x="344.996" y="191.68" type="curve" smooth="yes"/>
      <point x="202.785" y="577.664" type="line"/>
    </contour>
  </outline>
</glyph>
<glyph name="N" format="2">
  <advance width="669"/>
  <unicode hex="004E"/>
  <outline>
    <contour>
      <point x="559.955" y="611.668" type="line" smooth="yes"/>
      <point x="559.955" y="627.259"/>
      <point x="572.599" y="639.888"/>
      <point x="588.176" y="639.888" type="curve"/>
      <point x="588.176" y="21.3896" type="line" smooth="yes"/>
      <point x="588.176" y="0.958984"/>
      <point x="562.172" y="-7.7041"/>
      <point x="549.91" y="8.63477" type="curve" smooth="yes"/>
      <point x="108.221" y="597.559" type="line"/>
      <point x="108.221" y="28.1768" type="line" smooth="yes"/>
      <point x="108.221" y="12.5996"/>
      <point x="95.5781" y="-0.0429688"/>
      <point x="80.001" y="-0.0429688" type="curve"/>
      <point x="80.001" y="618.638" type="line" smooth="yes"/>
      <point x="80.001" y="638.998"/>
      <point x="105.935" y="647.647"/>
      <point x="118.153" y="631.351" type="curve" smooth="yes"/>
      <point x="559.955" y="42.2861" type="line"/>
    </contour>
  </outline>
</glyph>
<glyph name="O" format="2">
  <advance width="734"/>
  <unicode hex="004F"/>
  <outline>
    <contour>
      <point x="366.965" y="639.887" type="curve" smooth="yes"/>
      <point x="543.675" y="639.887"/>
      <point x="686.931" y="496.631"/>
      <point x="686.931" y="319.921" type="curve" smooth="yes"/>
      <point x="686.931" y="143.211"/>
      <point x="543.675" y="-0.0449219"/>
      <point x="366.965" y="-0.0449219" type="curve" smooth="yes"/>
      <point x="190.255" y="-0.0449219"/>
      <point x="46.999" y="143.211"/>
      <point x="46.999" y="319.921" type="curve" smooth="yes"/>
      <point x="46.999" y="496.631"/>
      <point x="190.255" y="639.887"/>
    </contour>
    <contour>
      <point x="366.965" y="32.5361" type="curve" smooth="yes"/>
      <point x="525.431" y="32.5361"/>
      <point x="654.351" y="161.456"/>
      <point x="654.351" y="319.922" type="curve" smooth="yes"/>
      <point x="654.351" y="478.388"/>
      <point x="525.431" y="607.308"/>
      <point x="366.965" y="607.308" type="curve" smooth="yes"/>
      <point x="208.499" y="607.308"/>
      <point x="79.5791" y="478.388"/>
      <point x="79.5791" y="319.922" type="curve" smooth="yes"/>
      <point x="79.5791" y="161.456"/>
      <point x="208.499" y="32.5361"/>
    </contour>
  </outline>
</glyph>
<glyph name="P" format="2">
  <advance width="624"/>
  <unicode hex="0050"/>
  <outline>
    <contour>
      <point x="414.06" y="639.82" type="line" smooth="yes"/>
      <point x="510.06" y="639.82"/>
      <point x="588.16" y="561.73"/>
      <point x="588.16" y="465.73" type="curve" smooth="yes"/>
      <point x="588.16" y="369.73"/>
      <point x="510.061" y="291.631"/>
      <point x="414.061" y="291.631" type="curve" smooth="yes"/>
      <point x="108.221" y="291.631" type="line"/>
      <point x="108.221" y="28.1904" type="line" smooth="yes"/>
      <point x="108.221" y="12.6104"/>
      <point x="95.5703" y="-0.0292969"/>
      <point x="80" y="-0.0292969" type="curve"/>
      <point x="80" y="620.021" type="line" smooth="yes"/>
      <point x="80" y="631.001"/>
      <point x="88.8896" y="639.891"/>
      <point x="99.8594" y="639.891" type="curve" smooth="yes"/>
      <point x="108.22" y="639.891" type="line"/>
      <point x="108.22" y="639.82" type="line"/>
    </contour>
    <contour>
      <point x="414.061" y="319.84" type="line" smooth="yes"/>
      <point x="494.501" y="319.84"/>
      <point x="559.941" y="385.278"/>
      <point x="559.941" y="465.719" type="curve" smooth="yes"/>
      <point x="559.941" y="546.159"/>
      <point x="494.501" y="611.6"/>
      <point x="414.061" y="611.6" type="curve" smooth="yes"/>
      <point x="108.221" y="611.6" type="line"/>
      <point x="108.221" y="319.84" type="line"/>
    </contour>
  </outline>
</glyph>
<glyph name="Q" format="2">
  <advance width="660"/>
  <unicode hex="0051"/>
  <outline>
    <contour>
      <point x="583.954" y="-22.9297" type="curve" smooth="yes"/>
      <point x="598.501" y="-26.457"/>
      <point x="608.929" y="-39.1562"/>
      <point x="608.929" y="-54.127" type="curve"/>
      <point x="571.961" y="-54.127"/>
      <point x="538.422" y="-39.1006"/>
      <point x="514.139" y="-14.8037" type="curve" smooth="yes"/>
      <point x="496.699" y="2.63574"/>
      <point x="484.155" y="24.8867"/>
      <point x="478.398" y="49.7197" type="curve"/>
      <point x="435.152" y="18.4531"/>
      <point x="383.935" y="0.280273"/>
      <point x="328.978" y="0.280273" type="curve" smooth="yes"/>
      <point x="174.35" y="0.280273"/>
      <point x="48.999" y="143.536"/>
      <point x="48.999" y="320.246" type="curve" smooth="yes"/>
      <point x="48.999" y="496.956"/>
      <point x="174.35" y="640.212"/>
      <point x="328.978" y="640.212" type="curve" smooth="yes"/>
      <point x="483.605" y="640.212"/>
      <point x="608.956" y="496.956"/>
      <point x="608.956" y="320.246" type="curve" smooth="yes"/>
      <point x="608.956" y="218.995"/>
      <point x="567.756" y="128.792"/>
      <point x="503.528" y="70.166" type="curve"/>
      <point x="507.705" y="24.7891"/>
      <point x="540.651" y="-12.418"/>
    </contour>
    <contour>
      <point x="79.4775" y="320.245" type="curve" smooth="yes"/>
      <point x="79.4775" y="160.622"/>
      <point x="191.396" y="30.7559"/>
      <point x="328.965" y="30.7559" type="curve" smooth="yes"/>
      <point x="383.329" y="30.7559"/>
      <point x="433.546" y="51.2715"/>
      <point x="474.577" y="85.6572" type="curve"/>
      <point x="472.037" y="132.91"/>
      <point x="438.498" y="172.051"/>
      <point x="393.911" y="182.873" type="curve" smooth="yes"/>
      <point x="379.364" y="186.4"/>
      <point x="368.938" y="199.085"/>
      <point x="368.938" y="214.056" type="curve"/>
      <point x="432.643" y="214.056"/>
      <point x="486.048" y="169.328"/>
      <point x="499.607" y="109.645" type="curve"/>
      <point x="548.018" y="162.485"/>
      <point x="578.452" y="237.238"/>
      <point x="578.452" y="320.245" type="curve" smooth="yes"/>
      <point x="578.452" y="479.868"/>
      <point x="466.534" y="609.733"/>
      <point x="328.965" y="609.733" type="curve" smooth="yes"/>
      <point x="191.396" y="609.733"/>
      <point x="79.4775" y="479.868"/>
    </contour>
  </outline>
</glyph>
<glyph name="R" format="2">
  <advance width="654"/>
  <unicode hex="0052"/>
  <outline>
    <contour>
      <point x="586.045" y="465.675" type="line" smooth="yes"/>
      <point x="586.045" y="399.373"/>
      <point x="546.71" y="342.245"/>
      <point x="490.229" y="315.973" type="curve"/>
      <point x="546.441" y="290.998"/>
      <point x="586.047" y="232.02"/>
      <point x="586.047" y="163.362" type="curve" smooth="yes"/>
      <point x="586.047" y="0.0283203" type="line"/>
      <point x="570.47" y="0.0283203"/>
      <point x="557.827" y="12.6709"/>
      <point x="557.827" y="28.248" type="curve" smooth="yes"/>
      <point x="557.827" y="163.362" type="line" smooth="yes"/>
      <point x="557.827" y="238.99"/>
      <point x="500.641" y="300.509"/>
      <point x="430.374" y="300.509" type="curve"/>
      <point x="430.374" y="300.988" type="line"/>
      <point x="427.214" y="300.805"/>
      <point x="424.081" y="300.509"/>
      <point x="420.878" y="300.509" type="curve" smooth="yes"/>
      <point x="107.22" y="300.509" type="line"/>
      <point x="107.22" y="28.248" type="line" smooth="yes"/>
      <point x="107.22" y="12.6709"/>
      <point x="94.5771" y="0.0283203"/>
      <point x="79" y="0.0283203" type="curve"/>
      <point x="79" y="625.849" type="line" smooth="yes"/>
      <point x="79" y="633.651"/>
      <point x="85.3066" y="639.958"/>
      <point x="93.1094" y="639.958" type="curve" smooth="yes"/>
      <point x="420.877" y="639.958" type="line" smooth="yes"/>
      <point x="511.955" y="639.958"/>
      <point x="586.045" y="565.854"/>
      <point x="586.045" y="474.775" type="curve" smooth="yes"/>
    </contour>
    <contour>
      <point x="420.88" y="328.729" type="line" smooth="yes"/>
      <point x="496.395" y="328.729"/>
      <point x="557.828" y="390.148"/>
      <point x="557.828" y="465.663" type="curve" smooth="yes"/>
      <point x="557.828" y="474.764" type="line" smooth="yes"/>
      <point x="557.828" y="550.293"/>
      <point x="496.395" y="611.727"/>
      <point x="420.88" y="611.727" type="curve" smooth="yes"/>
      <point x="107.222" y="611.727" type="line"/>
      <point x="107.222" y="328.729" type="line"/>
    </contour>
  </outline>
</glyph>
<glyph name="S" format="2">
  <advance width="642"/>
  <unicode hex="0053"/>
  <outline>
    <contour>
      <point x="322.24" y="336.46" type="curve" smooth="yes"/>
      <point x="449.601" y="317.68"/>
      <point x="581.31" y="298.219"/>
      <point x="589.67" y="169.639" type="curve" smooth="yes"/>
      <point x="589.77" y="118.889"/>
      <point x="561.909" y="76.3691"/>
      <point x="509.089" y="45.8594" type="curve" smooth="yes"/>
      <point x="456.709" y="15.5596"/>
      <point x="384.799" y="0.339844"/>
      <point x="313.648" y="0.339844" type="curve" smooth="yes"/>
      <point x="245.158" y="0.339844"/>
      <point x="177.389" y="14.4297"/>
      <point x="128.329" y="42.7793" type="curve" smooth="yes"/>
      <point x="78.3291" y="71.6895"/>
      <point x="51.9287" y="112.55"/>
      <point x="51.999" y="160.99" type="curve"/>
      <point x="66.9092" y="160.98"/>
      <point x="79.5293" y="150.69"/>
      <point x="83.3291" y="136.271" type="curve" smooth="yes"/>
      <point x="90.5596" y="108.931"/>
      <point x="110.35" y="85.7705"/>
      <point x="142.449" y="67.2305" type="curve" smooth="yes"/>
      <point x="233.319" y="14.6904"/>
      <point x="401.35" y="16.1504"/>
      <point x="494.96" y="70.29" type="curve" smooth="yes"/>
      <point x="525.33" y="87.8701"/>
      <point x="561.54" y="119.2"/>
      <point x="561.47" y="168.72" type="curve" smooth="yes"/>
      <point x="554.63" y="273.64"/>
      <point x="439.75" y="290.59"/>
      <point x="318.12" y="308.52" type="curve" smooth="yes"/>
      <point x="191.57" y="327.189"/>
      <point x="60.6904" y="346.479"/>
      <point x="52.0303" y="473.38" type="curve" smooth="yes"/>
      <point x="51.9307" y="523.14"/>
      <point x="79.2402" y="564.77"/>
      <point x="131.03" y="594.689" type="curve" smooth="yes"/>
      <point x="234.05" y="654.26"/>
      <point x="412.939" y="655.319"/>
      <point x="513.84" y="596.979" type="curve" smooth="yes"/>
      <point x="563.56" y="568.22"/>
      <point x="589.8" y="527.76"/>
      <point x="589.7" y="479.939" type="curve"/>
      <point x="574.76" y="479.97"/>
      <point x="562.2" y="490.3"/>
      <point x="558.29" y="504.7" type="curve" smooth="yes"/>
      <point x="551.04" y="531.47"/>
      <point x="531.43" y="554.21"/>
      <point x="499.71" y="572.56" type="curve" smooth="yes"/>
      <point x="408.01" y="625.59"/>
      <point x="238.979" y="624.49"/>
      <point x="145.149" y="570.271" type="curve" smooth="yes"/>
      <point x="115.479" y="553.11"/>
      <point x="80.1299" y="522.57"/>
      <point x="80.2197" y="474.38" type="curve" smooth="yes"/>
      <point x="87.2998" y="371.1"/>
      <point x="201.42" y="354.26"/>
    </contour>
  </outline>
</glyph>
<glyph name="T" format="2">
  <advance width="505"/>
  <unicode hex="0054"/>
  <outline>
    <contour>
      <point x="41.2197" y="639.887" type="curve" smooth="yes"/>
      <point x="492.954" y="639.888" type="line"/>
      <point x="492.954" y="624.297"/>
      <point x="480.326" y="611.669"/>
      <point x="464.735" y="611.669" type="curve" smooth="yes"/>
      <point x="267.087" y="611.669" type="line"/>
      <point x="267.087" y="28.3887" type="line" smooth="yes"/>
      <point x="267.087" y="12.8115"/>
      <point x="254.459" y="0.168945"/>
      <point x="238.868" y="0.168945" type="curve"/>
      <point x="238.868" y="611.668" type="line"/>
      <point x="13" y="611.668" type="line"/>
      <point x="13" y="627.259"/>
      <point x="25.6426" y="639.887"/>
    </contour>
  </outline>
</glyph>
<glyph name="U" format="2">
  <advance width="665"/>
  <unicode hex="0055"/>
  <outline>
    <contour>
      <point x="230.423" y="38.7314" type="curve" smooth="yes"/>
      <point x="244.222" y="31.6768"/>
      <point x="251.064" y="15.873"/>
      <point x="245.745" y="1.31152" type="curve"/>
      <point x="146.61" y="37.5312"/>
      <point x="79.999" y="132.813"/>
      <point x="79.999" y="238.396" type="curve" smooth="yes"/>
      <point x="79.999" y="642.709" type="line"/>
      <point x="95.5762" y="642.709"/>
      <point x="108.219" y="630.081"/>
      <point x="108.219" y="614.49" type="curve" smooth="yes"/>
      <point x="108.219" y="238.383" type="line" smooth="yes"/>
      <point x="108.219" y="153.781"/>
      <point x="156.361" y="76.6299"/>
    </contour>
    <contour>
      <point x="556.455" y="614.49" type="line" smooth="yes"/>
      <point x="556.455" y="630.081"/>
      <point x="569.097" y="642.709"/>
      <point x="584.674" y="642.709" type="curve"/>
      <point x="584.674" y="238.396" type="line" smooth="yes"/>
      <point x="584.674" y="131.036"/>
      <point x="516.58" y="35.2314"/>
      <point x="415.216" y="-0" type="curve"/>
      <point x="410.137" y="14.6172"/>
      <point x="417.206" y="30.3076"/>
      <point x="431.104" y="37.1367" type="curve" smooth="yes"/>
      <point x="507.057" y="74.4141"/>
      <point x="556.455" y="152.215"/>
      <point x="556.455" y="238.396" type="curve" smooth="yes"/>
    </contour>
  </outline>
</glyph>
<glyph name="V" format="2">
  <advance width="655"/>
  <unicode hex="0056"/>
  <outline>
    <contour>
      <point x="592.646" y="611.64" type="line" smooth="yes"/>
      <point x="600.745" y="628.867"/>
      <point x="618.084" y="639.873"/>
      <point x="637.132" y="639.873" type="curve"/>
      <point x="339.827" y="8.12598" type="line" smooth="yes"/>
      <point x="337.499" y="3.1875"/>
      <point x="332.519" y="0.0273438"/>
      <point x="327.059" y="0.0273438" type="curve" smooth="yes"/>
      <point x="321.599" y="0.0273438"/>
      <point x="316.618" y="3.17383"/>
      <point x="314.29" y="8.12598" type="curve" smooth="yes"/>
      <point x="16.999" y="639.873" type="line"/>
      <point x="36.0469" y="639.873"/>
      <point x="53.374" y="628.867"/>
      <point x="61.4873" y="611.64" type="curve" smooth="yes"/>
      <point x="327.06" y="47.2666" type="line"/>
    </contour>
  </outline>
</glyph>
<glyph name="W" format="2">
  <advance width="707"/>
  <unicode hex="0057"/>
  <outline>
    <contour>
      <point x="642.152" y="611.653" type="line" smooth="yes"/>
      <point x="646.54" y="628.289"/>
      <point x="661.562" y="639.872"/>
      <point x="678.763" y="639.872" type="curve"/>
      <point x="513.905" y="14.207" type="line" smooth="yes"/>
      <point x="511.719" y="5.88281"/>
      <point x="504.185" y="0.0839844"/>
      <point x="495.578" y="0.0839844" type="curve" smooth="yes"/>
      <point x="486.972" y="0.0839844"/>
      <point x="479.438" y="5.88281"/>
      <point x="477.251" y="14.207" type="curve" smooth="yes"/>
      <point x="353.382" y="484.384" type="line"/>
      <point x="229.499" y="14.207" type="line" smooth="yes"/>
      <point x="227.312" y="5.88281"/>
      <point x="219.778" y="0.0839844"/>
      <point x="211.172" y="0.0839844" type="curve" smooth="yes"/>
      <point x="202.565" y="0.0839844"/>
      <point x="195.031" y="5.88281"/>
      <point x="192.845" y="14.208" type="curve" smooth="yes"/>
      <point x="28.001" y="639.873" type="line"/>
      <point x="45.2002" y="639.873"/>
      <point x="60.2266" y="628.274"/>
      <point x="64.6143" y="611.653" type="curve" smooth="yes"/>
      <point x="211.172" y="55.3936" type="line"/>
      <point x="336.269" y="530.156" type="line" smooth="yes"/>
      <point x="338.314" y="537.931"/>
      <point x="345.341" y="543.349"/>
      <point x="353.384" y="543.349" type="curve" smooth="yes"/>
      <point x="361.427" y="543.349"/>
      <point x="368.453" y="537.931"/>
      <point x="370.499" y="530.156" type="curve" smooth="yes"/>
      <point x="495.581" y="55.3936" type="line"/>
    </contour>
  </outline>
</glyph>
<glyph name="X" format="2">
  <advance width="584"/>
  <unicode hex="0058"/>
  <outline>
    <contour>
      <point x="309.606" y="319.936" type="line"/>
      <point x="558.487" y="-0.0292969" type="line"/>
      <point x="535.94" y="-0.0292969"/>
      <point x="514.635" y="10.3838"/>
      <point x="500.793" y="28.1904" type="curve" smooth="yes"/>
      <point x="291.744" y="296.951" type="line"/>
      <point x="82.6953" y="28.1904" type="line" smooth="yes"/>
      <point x="68.8535" y="10.3838"/>
      <point x="47.5625" y="-0.0292969"/>
      <point x="25.001" y="-0.0292969" type="curve"/>
      <point x="273.882" y="319.936" type="line"/>
      <point x="25.0156" y="639.887" type="line"/>
      <point x="47.5625" y="639.887"/>
      <point x="68.8535" y="629.474"/>
      <point x="82.6953" y="611.667" type="curve" smooth="yes"/>
      <point x="291.744" y="342.906" type="line"/>
      <point x="500.793" y="611.667" type="line" smooth="yes"/>
      <point x="514.635" y="629.474"/>
      <point x="535.926" y="639.887"/>
      <point x="558.473" y="639.887" type="curve"/>
    </contour>
  </outline>
</glyph>
<glyph name="Y" format="2">
  <advance width="526"/>
  <unicode hex="0059"/>
  <outline>
    <contour>
      <point x="457.91" y="611.68" type="line" smooth="yes"/>
      <point x="470.84" y="629.399"/>
      <point x="491.431" y="639.89"/>
      <point x="513.36" y="639.89" type="curve"/>
      <point x="276.17" y="314.489" type="line"/>
      <point x="276.17" y="28.1797" type="line" smooth="yes"/>
      <point x="276.17" y="12.5996"/>
      <point x="263.53" y="-0.0400391"/>
      <point x="247.95" y="-0.0400391" type="curve"/>
      <point x="247.95" y="316.18" type="line"/>
      <point x="12" y="639.89" type="line"/>
      <point x="33.9404" y="639.89"/>
      <point x="54.54" y="629.399"/>
      <point x="67.46" y="611.68" type="curve" smooth="yes"/>
      <point x="262.68" y="343.85" type="line"/>
    </contour>
  </outline>
</glyph>
<glyph name="Z" format="2">
  <advance width="554"/>
  <unicode hex="005A"/>
  <outline>
    <contour>
      <point x="526.623" y="633.23" type="curve" smooth="yes"/>
      <point x="528.993" y="628.391"/>
      <point x="528.414" y="622.652"/>
      <point x="525.114" y="618.383" type="curve" smooth="yes"/>
      <point x="67.9541" y="28.3027" type="line"/>
      <point x="490.794" y="29.5029" type="line" smooth="yes"/>
      <point x="506.384" y="29.5625"/>
      <point x="519.063" y="16.9521"/>
      <point x="519.104" y="1.37207" type="curve"/>
      <point x="39.1436" y="0.00195312" type="line"/>
      <point x="39.1035" y="0.00195312" type="line" smooth="yes"/>
      <point x="33.7432" y="0.00195312"/>
      <point x="28.8135" y="3.06152"/>
      <point x="26.4434" y="7.8916" type="curve" smooth="yes"/>
      <point x="24.0732" y="12.7314"/>
      <point x="24.6533" y="18.501"/>
      <point x="27.9531" y="22.7607" type="curve" smooth="yes"/>
      <point x="485.184" y="612.911" type="line"/>
      <point x="39.1133" y="612.911" type="line"/>
      <point x="39.1133" y="628.491"/>
      <point x="51.7432" y="641.131"/>
      <point x="67.333" y="641.131" type="curve" smooth="yes"/>
      <point x="513.953" y="641.131" type="line" smooth="yes"/>
      <point x="519.343" y="641.131"/>
      <point x="524.253" y="638.051"/>
    </contour>
  </outline>
</glyph>
<glyph name="bracketleft" format="2">
  <advance width="244"/>
  <unicode hex="005B"/>
  <outline>
    <contour>
      <point x="150.903" y="608.085" type="curve" smooth="yes"/>
      <point x="125.464" y="599.436"/>
      <point x="107.234" y="576.382"/>
      <point x="107.234" y="549.361" type="curve" smooth="yes"/>
      <point x="107.234" y="90.585" type="line" smooth="yes"/>
      <point x="107.234" y="63.5645"/>
      <point x="125.479" y="40.5088"/>
      <point x="150.918" y="31.8594" type="curve" smooth="yes"/>
      <point x="163.814" y="27.4717"/>
      <point x="173.112" y="16.2119"/>
      <point x="173.112" y="2.58203" type="curve" smooth="yes"/>
      <point x="173.112" y="0" type="line"/>
      <point x="121.217" y="-0"/>
      <point x="79.001" y="40.6357"/>
      <point x="79.001" y="90.584" type="curve" smooth="yes"/>
      <point x="79.001" y="549.36" type="line" smooth="yes"/>
      <point x="79.001" y="599.309"/>
      <point x="121.217" y="639.944"/>
      <point x="173.098" y="639.944" type="curve"/>
      <point x="173.098" y="637.362" type="line" smooth="yes"/>
      <point x="173.098" y="623.732"/>
      <point x="163.813" y="612.473"/>
    </contour>
  </outline>
</glyph>
<glyph name="backslash" format="2">
  <advance width="316"/>
  <unicode hex="005C"/>
  <outline>
    <contour>
      <point x="98.2305" y="613.408" type="curve" smooth="yes"/>
      <point x="251.363" y="0.849609" type="line"/>
      <point x="236.237" y="-2.93164"/>
      <point x="220.914" y="6.25391"/>
      <point x="217.133" y="21.3799" type="curve" smooth="yes"/>
      <point x="64" y="633.938" type="line"/>
      <point x="79.126" y="637.719"/>
      <point x="94.4492" y="628.52"/>
    </contour>
  </outline>
</glyph>
<glyph name="bracketright" format="2">
  <advance width="244"/>
  <unicode hex="005D"/>
  <outline>
    <contour>
      <point x="70" y="639.944" type="line"/>
      <point x="121.896" y="639.944"/>
      <point x="164.111" y="599.308"/>
      <point x="164.111" y="549.359" type="curve" smooth="yes"/>
      <point x="164.111" y="90.583" type="line" smooth="yes"/>
      <point x="164.111" y="40.6348"/>
      <point x="121.896" y="-0.000976562"/>
      <point x="70" y="-0.000976562" type="curve"/>
      <point x="70" y="2.58105" type="line" smooth="yes"/>
      <point x="70" y="16.2109"/>
      <point x="79.2842" y="27.4707"/>
      <point x="92.1943" y="31.8584" type="curve" smooth="yes"/>
      <point x="117.634" y="40.5078"/>
      <point x="135.878" y="63.5635"/>
      <point x="135.878" y="90.584" type="curve" smooth="yes"/>
      <point x="135.878" y="549.36" type="line" smooth="yes"/>
      <point x="135.878" y="576.381"/>
      <point x="117.634" y="599.45"/>
      <point x="92.1943" y="608.085" type="curve" smooth="yes"/>
      <point x="79.2979" y="612.473"/>
      <point x="70" y="623.732"/>
      <point x="70" y="637.362" type="curve" smooth="yes"/>
    </contour>
  </outline>
</glyph>
<glyph name="asciicircum" format="2">
  <advance width="363"/>
  <unicode hex="005E"/>
  <outline>
    <contour>
      <point x="97.6602" y="345.22" type="line" smooth="yes"/>
      <point x="89.0098" y="327.92"/>
      <point x="71.332" y="317"/>
      <point x="52.002" y="317" type="curve"/>
      <point x="168.422" y="549.81" type="line" smooth="yes"/>
      <point x="173.222" y="559.38"/>
      <point x="188.861" y="559.38"/>
      <point x="193.661" y="549.81" type="curve" smooth="yes"/>
      <point x="310.051" y="317" type="line"/>
      <point x="290.721" y="317"/>
      <point x="273.041" y="327.92"/>
      <point x="264.391" y="345.22" type="curve" smooth="yes"/>
      <point x="181.03" y="511.939" type="line"/>
    </contour>
  </outline>
</glyph>
<glyph name="underscore" format="2">
  <advance width="552"/>
  <unicode hex="005F"/>
  <outline>
    <contour>
      <point x="64.2197" y="28.2197" type="curve" smooth="yes"/>
      <point x="515.95" y="28.2197" type="line"/>
      <point x="515.95" y="12.6396"/>
      <point x="503.311" y="0"/>
      <point x="487.74" y="0" type="curve" smooth="yes"/>
      <point x="36" y="-0" type="line"/>
      <point x="36" y="15.5898"/>
      <point x="48.6396" y="28.2197"/>
    </contour>
  </outline>
</glyph>
<glyph name="grave" format="2">
  <advance width="218"/>
  <unicode hex="0060"/>
  <outline>
    <contour>
      <point x="224.94" y="-51.7402" type="line"/>
      <point x="213.921" y="-62.75"/>
      <point x="196.061" y="-62.75"/>
      <point x="185.041" y="-51.7402" type="curve" smooth="yes"/>
      <point x="45.001" y="88.25" type="line"/>
      <point x="56.0205" y="99.2695"/>
      <point x="73.8809" y="99.2695"/>
      <point x="84.9004" y="88.25" type="curve" smooth="yes"/>
    </contour>
  </outline>
</glyph>
<glyph name="a" format="2">
  <advance width="599"/>
  <unicode hex="0061"/>
  <outline>
    <contour>
      <point x="498.601" y="451.59" type="line" smooth="yes"/>
      <point x="498.601" y="467.25"/>
      <point x="511.301" y="479.95"/>
      <point x="526.961" y="479.95" type="curve"/>
      <point x="526.961" y="28.3701" type="line" smooth="yes"/>
      <point x="526.961" y="12.71"/>
      <point x="514.261" y="0.00976562"/>
      <point x="498.601" y="0.00976562" type="curve"/>
      <point x="498.601" y="127.359" type="line"/>
      <point x="454.261" y="44.249"/>
      <point x="362.721" y="-9.87109"/>
      <point x="259.65" y="1.51855" type="curve" smooth="yes"/>
      <point x="149.62" y="13.6689"/>
      <point x="60.6602" y="102.609"/>
      <point x="48.5098" y="212.649" type="curve" smooth="yes"/>
      <point x="32.5293" y="357.419"/>
      <point x="145.449" y="479.949"/>
      <point x="286.979" y="479.93" type="curve" smooth="yes"/>
      <point x="378.59" y="479.93"/>
      <point x="458.16" y="428.56"/>
      <point x="498.601" y="353.09" type="curve"/>
    </contour>
    <contour>
      <point x="297.101" y="28.4502" type="curve" smooth="yes"/>
      <point x="404.82" y="33.4902"/>
      <point x="493.461" y="122.131"/>
      <point x="498.501" y="229.851" type="curve" smooth="yes"/>
      <point x="504.171" y="351.2"/>
      <point x="407.101" y="451.73"/>
      <point x="286.98" y="451.73" type="curve" smooth="yes"/>
      <point x="170.211" y="451.73"/>
      <point x="75.2207" y="356.73"/>
      <point x="75.2207" y="239.971" type="curve" smooth="yes"/>
      <point x="75.2207" y="119.851"/>
      <point x="175.751" y="22.7803"/>
    </contour>
  </outline>
</glyph>
<glyph name="b" format="2">
  <advance width="599"/>
  <unicode hex="0062"/>
  <outline>
    <contour>
      <point x="311.98" y="480.6" type="curve" smooth="yes"/>
      <point x="444.511" y="480.6"/>
      <point x="551.951" y="373.151"/>
      <point x="551.951" y="240.621" type="curve" smooth="yes"/>
      <point x="551.951" y="108.091"/>
      <point x="444.511" y="0.640625"/>
      <point x="311.98" y="0.640625" type="curve" smooth="yes"/>
      <point x="220.25" y="0.640625"/>
      <point x="140.6" y="52.1406"/>
      <point x="100.22" y="127.771" type="curve"/>
      <point x="100.22" y="28.8604" type="line" smooth="yes"/>
      <point x="100.22" y="13.2705"/>
      <point x="87.5801" y="0.640625"/>
      <point x="72" y="0.640625" type="curve"/>
      <point x="72" y="611.7" type="line" smooth="yes"/>
      <point x="72" y="627.29"/>
      <point x="84.6396" y="639.92"/>
      <point x="100.22" y="639.92" type="curve"/>
      <point x="100.22" y="353.47" type="line"/>
      <point x="140.6" y="429.1"/>
      <point x="220.25" y="480.6"/>
    </contour>
    <contour>
      <point x="311.98" y="28.8613" type="curve" smooth="yes"/>
      <point x="428.75" y="28.8613"/>
      <point x="523.74" y="123.852"/>
      <point x="523.74" y="240.621" type="curve" smooth="yes"/>
      <point x="523.74" y="357.391"/>
      <point x="428.73" y="452.381"/>
      <point x="311.98" y="452.381" type="curve" smooth="yes"/>
      <point x="195.221" y="452.381"/>
      <point x="100.221" y="357.391"/>
      <point x="100.221" y="240.621" type="curve" smooth="yes"/>
      <point x="100.221" y="123.852"/>
      <point x="195.221" y="28.8613"/>
    </contour>
  </outline>
</glyph>
<glyph name="c" format="2">
  <advance width="508"/>
  <unicode hex="0063"/>
  <outline>
    <contour>
      <point x="427.636" y="80.9297" type="curve" smooth="yes"/>
      <point x="438.626" y="90.5596"/>
      <point x="454.846" y="91.04"/>
      <point x="465.716" y="81.2998" type="curve" smooth="yes"/>
      <point x="466.946" y="80.2002" type="line"/>
      <point x="421.336" y="29.2402"/>
      <point x="355.966" y="0"/>
      <point x="287.616" y="0" type="curve" smooth="yes"/>
      <point x="148.206" y="0"/>
      <point x="36.1064" y="119.16"/>
      <point x="47.8467" y="260.97" type="curve" smooth="yes"/>
      <point x="56.7666" y="368.779"/>
      <point x="138.986" y="459.229"/>
      <point x="245.586" y="477.6" type="curve" smooth="yes"/>
      <point x="332.796" y="492.63"/>
      <point x="418.496" y="460.02"/>
      <point x="473.256" y="393.67" type="curve"/>
      <point x="461.336" y="383.83"/>
      <point x="444.206" y="384.93"/>
      <point x="432.926" y="395.51" type="curve" smooth="yes"/>
      <point x="389.936" y="435.899"/>
      <point x="331.916" y="456.869"/>
      <point x="271.586" y="452.399" type="curve" smooth="yes"/>
      <point x="163.546" y="444.38"/>
      <point x="77.1562" y="352.729"/>
      <point x="75.2461" y="244.409" type="curve" smooth="yes"/>
      <point x="73.1758" y="125.579"/>
      <point x="169.235" y="28.2295"/>
      <point x="287.615" y="28.2295" type="curve" smooth="yes"/>
      <point x="339.325" y="28.2295"/>
      <point x="389.105" y="47.1797"/>
    </contour>
  </outline>
</glyph>
<glyph name="d" format="2">
  <advance width="599"/>
  <unicode hex="0064"/>
  <outline>
    <contour>
      <point x="498.74" y="611.7" type="line" smooth="yes"/>
      <point x="498.74" y="627.29"/>
      <point x="511.38" y="639.919"/>
      <point x="526.95" y="639.919" type="curve"/>
      <point x="526.95" y="28.2393" type="line" smooth="yes"/>
      <point x="526.95" y="12.6494"/>
      <point x="514.311" y="0.0195312"/>
      <point x="498.74" y="0.0195312" type="curve"/>
      <point x="498.74" y="127.149" type="line"/>
      <point x="458.34" y="51.5195"/>
      <point x="378.7" y="0.0195312"/>
      <point x="286.98" y="0.0195312" type="curve" smooth="yes"/>
      <point x="154.45" y="0.0195312"/>
      <point x="47" y="107.47"/>
      <point x="47" y="240" type="curve" smooth="yes"/>
      <point x="47" y="372.53"/>
      <point x="154.45" y="479.98"/>
      <point x="286.98" y="479.98" type="curve" smooth="yes"/>
      <point x="378.7" y="479.98"/>
      <point x="458.351" y="428.48"/>
      <point x="498.74" y="352.851" type="curve"/>
    </contour>
    <contour>
      <point x="286.98" y="28.249" type="curve" smooth="yes"/>
      <point x="403.75" y="28.249"/>
      <point x="498.74" y="123.239"/>
      <point x="498.74" y="240.009" type="curve" smooth="yes"/>
      <point x="498.74" y="356.778"/>
      <point x="403.73" y="451.769"/>
      <point x="286.98" y="451.769" type="curve" smooth="yes"/>
      <point x="170.221" y="451.769"/>
      <point x="75.2207" y="356.778"/>
      <point x="75.2207" y="240.009" type="curve" smooth="yes"/>
      <point x="75.2207" y="123.239"/>
      <point x="170.221" y="28.249"/>
    </contour>
  </outline>
</glyph>
<glyph name="e" format="2">
  <advance width="572"/>
  <unicode hex="0065"/>
  <outline>
    <contour>
      <point x="507.471" y="225.86" type="line"/>
      <point x="75.8682" y="225.869" type="line"/>
      <point x="83.208" y="118.739"/>
      <point x="172.798" y="31.9893"/>
      <point x="280.528" y="28.7793" type="curve" smooth="yes"/>
      <point x="361.648" y="26.3496"/>
      <point x="432.969" y="69.8496"/>
      <point x="470.549" y="135.14" type="curve" smooth="yes"/>
      <point x="479.179" y="150.149"/>
      <point x="494.619" y="159.979"/>
      <point x="511.939" y="159.979" type="curve" smooth="yes"/>
      <point x="512.829" y="159.979" type="line"/>
      <point x="479.729" y="67.0791"/>
      <point x="391.249" y="0.458984"/>
      <point x="286.979" y="0.458984" type="curve" smooth="yes"/>
      <point x="145.449" y="0.458984"/>
      <point x="32.5293" y="122.989"/>
      <point x="48.5098" y="267.749" type="curve" smooth="yes"/>
      <point x="60.6602" y="377.779"/>
      <point x="149.61" y="466.739"/>
      <point x="259.65" y="478.89" type="curve" smooth="yes"/>
      <point x="404.41" y="494.88"/>
      <point x="526.94" y="381.96"/>
      <point x="526.94" y="240.42" type="curve" smooth="yes"/>
      <point x="526.94" y="235.51"/>
      <point x="526.511" y="230.7"/>
      <point x="526.211" y="225.86" type="curve"/>
    </contour>
    <contour>
      <point x="75.7285" y="254.079" type="curve"/>
      <point x="498.028" y="254.08" type="line"/>
      <point x="490.929" y="364.47"/>
      <point x="399.119" y="452.18"/>
      <point x="286.969" y="452.18" type="curve" smooth="yes"/>
      <point x="174.809" y="452.18"/>
      <point x="82.7988" y="364.489"/>
    </contour>
  </outline>
</glyph>
<glyph name="f" format="2">
  <advance width="290"/>
  <unicode hex="0066"/>
  <outline>
    <contour>
      <point x="125.12" y="505.9" type="curve" smooth="yes"/>
      <point x="125.121" y="479.921" type="line"/>
      <point x="270.971" y="479.921" type="line"/>
      <point x="270.971" y="464.331"/>
      <point x="258.331" y="451.701"/>
      <point x="242.761" y="451.701" type="curve" smooth="yes"/>
      <point x="125.121" y="451.701" type="line"/>
      <point x="125.121" y="28.2109" type="line" smooth="yes"/>
      <point x="125.121" y="12.6211"/>
      <point x="112.481" y="-0.00878906"/>
      <point x="96.9014" y="-0.00878906" type="curve"/>
      <point x="96.9014" y="451.701" type="line"/>
      <point x="31.001" y="451.701" type="line"/>
      <point x="31.001" y="467.291"/>
      <point x="43.6406" y="479.921"/>
      <point x="59.2207" y="479.921" type="curve" smooth="yes"/>
      <point x="96.9004" y="479.921" type="line"/>
      <point x="96.9004" y="505.881" type="line" smooth="yes"/>
      <point x="96.9004" y="579.9"/>
      <point x="156.91" y="639.91"/>
      <point x="230.93" y="639.91" type="curve" smooth="yes"/>
      <point x="270.989" y="639.91" type="line"/>
      <point x="270.989" y="624.32"/>
      <point x="258.35" y="611.69"/>
      <point x="242.77" y="611.69" type="curve" smooth="yes"/>
      <point x="230.92" y="611.69" type="line" smooth="yes"/>
      <point x="172.49" y="611.69"/>
      <point x="125.12" y="564.32"/>
    </contour>
  </outline>
</glyph>
<glyph name="g" format="2">
  <advance width="577"/>
  <unicode hex="0067"/>
  <outline>
    <contour>
      <point x="164.15" y="160.11" type="line" smooth="yes"/>
      <point x="120.091" y="160.11"/>
      <point x="84.2324" y="124.241"/>
      <point x="84.2324" y="80.1816" type="curve" smooth="yes"/>
      <point x="84.2324" y="36.1113"/>
      <point x="120.093" y="0.261719"/>
      <point x="164.152" y="0.261719" type="curve" smooth="yes"/>
      <point x="295.992" y="0.261719" type="line"/>
      <point x="295.992" y="-0.0185547" type="line"/>
      <point x="428.522" y="-0.0185547"/>
      <point x="535.952" y="-53.7383"/>
      <point x="535.952" y="-120.008" type="curve" smooth="yes"/>
      <point x="535.952" y="-186.277"/>
      <point x="428.512" y="-239.997"/>
      <point x="295.981" y="-239.997" type="curve" smooth="yes"/>
      <point x="163.451" y="-239.997"/>
      <point x="56.001" y="-186.277"/>
      <point x="56.001" y="-120.008" type="curve" smooth="yes"/>
      <point x="56.001" y="-82.0977"/>
      <point x="91.2705" y="-48.3281"/>
      <point x="146.2" y="-26.3477" type="curve"/>
      <point x="95.1104" y="-17.7578"/>
      <point x="56" y="26.6719"/>
      <point x="56" y="80.1816" type="curve" smooth="yes"/>
      <point x="56" y="138.481"/>
      <point x="102.42" y="186.041"/>
      <point x="160.229" y="188.121" type="curve"/>
      <point x="97.3096" y="216.971"/>
      <point x="56" y="265.24"/>
      <point x="56" y="320" type="curve" smooth="yes"/>
      <point x="56" y="408.36"/>
      <point x="163.43" y="479.99"/>
      <point x="295.96" y="479.99" type="curve"/>
      <point x="295.96" y="480.021" type="line"/>
      <point x="535.95" y="480.021" type="line"/>
      <point x="535.95" y="464.431"/>
      <point x="523.311" y="451.801"/>
      <point x="507.74" y="451.801" type="curve" smooth="yes"/>
      <point x="431.9" y="451.801" type="line"/>
      <point x="494.71" y="422.961"/>
      <point x="535.95" y="374.721"/>
      <point x="535.95" y="320.011" type="curve" smooth="yes"/>
      <point x="535.95" y="231.65"/>
      <point x="428.51" y="160.021"/>
      <point x="295.979" y="160.021" type="curve" smooth="yes"/>
      <point x="295.13" y="160.021"/>
      <point x="294.3" y="160.11"/>
      <point x="293.45" y="160.11" type="curve" smooth="yes"/>
    </contour>
    <contour>
      <point x="84.2324" y="320.012" type="curve" smooth="yes"/>
      <point x="84.2324" y="249.132"/>
      <point x="179.764" y="189.252"/>
      <point x="293.384" y="188.332" type="curve" smooth="yes"/>
      <point x="296.014" y="188.332" type="line"/>
      <point x="296.014" y="188.242" type="line"/>
      <point x="410.794" y="188.262"/>
      <point x="507.754" y="248.592"/>
      <point x="507.754" y="320.012" type="curve" smooth="yes"/>
      <point x="507.754" y="391.441"/>
      <point x="410.773" y="451.781"/>
      <point x="295.993" y="451.781" type="curve" smooth="yes"/>
      <point x="181.213" y="451.781"/>
      <point x="84.2324" y="391.441"/>
    </contour>
    <contour>
      <point x="507.753" y="-119.979" type="curve" smooth="yes"/>
      <point x="507.753" y="-67.4482"/>
      <point x="395.963" y="-28.207"/>
      <point x="295.993" y="-28.207" type="curve" smooth="yes"/>
      <point x="196.023" y="-28.207"/>
      <point x="84.2334" y="-67.4473"/>
      <point x="84.2334" y="-119.978" type="curve" smooth="yes"/>
      <point x="84.2334" y="-172.508"/>
      <point x="196.023" y="-211.748"/>
      <point x="295.993" y="-211.748" type="curve" smooth="yes"/>
      <point x="395.963" y="-211.748"/>
      <point x="507.753" y="-172.498"/>
    </contour>
  </outline>
</glyph>
<glyph name="h" format="2">
  <advance width="563"/>
  <unicode hex="0068"/>
  <outline>
    <contour>
      <point x="275.39" y="479.57" type="curve" smooth="yes"/>
      <point x="398.31" y="485.63"/>
      <point x="500.261" y="387.351"/>
      <point x="500.261" y="265.73" type="curve" smooth="yes"/>
      <point x="500.261" y="28.3105" type="line" smooth="yes"/>
      <point x="500.261" y="12.7207"/>
      <point x="487.61" y="0.0908203"/>
      <point x="472.04" y="0.0908203" type="curve"/>
      <point x="472.04" y="260.331" type="line" smooth="yes"/>
      <point x="472.04" y="360.312"/>
      <point x="395.37" y="446.451"/>
      <point x="295.53" y="451.381" type="curve" smooth="yes"/>
      <point x="188.8" y="456.65"/>
      <point x="100.29" y="371.351"/>
      <point x="100.29" y="265.751" type="curve" smooth="yes"/>
      <point x="100.29" y="225.751" type="line"/>
      <point x="100.22" y="225.751" type="line"/>
      <point x="100.22" y="28.2812" type="line" smooth="yes"/>
      <point x="100.22" y="12.6914"/>
      <point x="87.5801" y="0.0615234"/>
      <point x="72" y="0.0615234" type="curve"/>
      <point x="72" y="611.701" type="line" smooth="yes"/>
      <point x="72" y="627.291"/>
      <point x="84.6396" y="639.921"/>
      <point x="100.22" y="639.921" type="curve"/>
      <point x="100.22" y="367.851" type="line"/>
      <point x="135.1" y="431.021"/>
      <point x="199.31" y="475.811"/>
    </contour>
  </outline>
</glyph>
<glyph name="i" format="2">
  <advance width="173"/>
  <unicode hex="0069"/>
  <outline>
    <contour>
      <point x="72.46" y="451.78" type="line" smooth="yes"/>
      <point x="72.46" y="467.351"/>
      <point x="85.1094" y="480"/>
      <point x="100.68" y="480" type="curve"/>
      <point x="100.68" y="28.2197" type="line" smooth="yes"/>
      <point x="100.68" y="12.6396"/>
      <point x="88.04" y="0"/>
      <point x="72.46" y="0" type="curve"/>
    </contour>
    <contour>
      <point x="86.999" y="580.299" type="curve" smooth="yes"/>
      <point x="70.4287" y="580.299"/>
      <point x="56.999" y="593.729"/>
      <point x="56.999" y="610.299" type="curve" smooth="yes"/>
      <point x="56.999" y="626.869"/>
      <point x="70.4287" y="640.299"/>
      <point x="86.999" y="640.299" type="curve" smooth="yes"/>
      <point x="103.559" y="640.299"/>
      <point x="116.988" y="626.869"/>
      <point x="116.988" y="610.299" type="curve" smooth="yes"/>
      <point x="116.988" y="593.729"/>
      <point x="103.559" y="580.299"/>
    </contour>
  </outline>
</glyph>
<glyph name="j" format="2">
  <advance width="174"/>
  <unicode hex="006A"/>
  <outline>
    <contour>
      <point x="72.8945" y="451.706" type="line" smooth="yes"/>
      <point x="72.8945" y="467.283"/>
      <point x="85.5225" y="479.925"/>
      <point x="101.113" y="479.925" type="curve"/>
      <point x="101.113" y="-65.8936" type="line" smooth="yes"/>
      <point x="101.113" y="-161.896"/>
      <point x="23.0166" y="-239.992"/>
      <point x="-73" y="-239.992" type="curve"/>
      <point x="-73" y="-225.275"/>
      <point x="-62.7139" y="-212.168"/>
      <point x="-48.209" y="-209.671" type="curve" smooth="yes"/>
      <point x="20.4629" y="-197.875"/>
      <point x="72.8945" y="-137.909"/>
      <point x="72.8945" y="-65.9072" type="curve" smooth="yes"/>
    </contour>
    <contour>
      <point x="86.9902" y="580.272" type="curve" smooth="yes"/>
      <point x="70.4229" y="580.272"/>
      <point x="56.9922" y="593.703"/>
      <point x="56.9922" y="610.271" type="curve" smooth="yes"/>
      <point x="56.9922" y="626.838"/>
      <point x="70.4229" y="640.269"/>
      <point x="86.9902" y="640.269" type="curve" smooth="yes"/>
      <point x="103.558" y="640.269"/>
      <point x="116.988" y="626.838"/>
      <point x="116.988" y="610.271" type="curve" smooth="yes"/>
      <point x="116.988" y="593.703"/>
      <point x="103.558" y="580.272"/>
    </contour>
  </outline>
</glyph>
<glyph name="k" format="2">
  <advance width="444"/>
  <unicode hex="006B"/>
  <outline>
    <contour>
      <point x="416.36" y="469.32" type="curve"/>
      <point x="110.701" y="201.85" type="line"/>
      <point x="414.551" y="11.9395" type="line"/>
      <point x="406.281" y="-1.26074"/>
      <point x="388.881" y="-5.27051"/>
      <point x="375.661" y="2.97949" type="curve" smooth="yes"/>
      <point x="101.221" y="174.52" type="line"/>
      <point x="101.221" y="28.21" type="line" smooth="yes"/>
      <point x="101.221" y="12.6201"/>
      <point x="88.5703" y="-0.00976562"/>
      <point x="73" y="-0.00976562" type="curve"/>
      <point x="73" y="613.431" type="line" smooth="yes"/>
      <point x="73" y="629.021"/>
      <point x="85.6396" y="639.921"/>
      <point x="101.22" y="639.921" type="curve"/>
      <point x="101.22" y="231.071" type="line"/>
      <point x="376.54" y="471.991" type="line" smooth="yes"/>
      <point x="388.28" y="482.251"/>
      <point x="406.101" y="481.061"/>
    </contour>
  </outline>
</glyph>
<glyph name="l" format="2">
  <advance width="175"/>
  <unicode hex="006C"/>
  <outline>
    <contour>
      <point x="73" y="611.7" type="line" smooth="yes"/>
      <point x="73" y="627.29"/>
      <point x="85.6396" y="639.92"/>
      <point x="101.22" y="639.92" type="curve"/>
      <point x="101.22" y="28.21" type="line" smooth="yes"/>
      <point x="101.22" y="12.6201"/>
      <point x="88.5801" y="-0.00976562"/>
      <point x="73" y="-0.00976562" type="curve"/>
    </contour>
  </outline>
</glyph>
<glyph name="m" format="2">
  <advance width="886"/>
  <unicode hex="006D"/>
  <outline>
    <contour>
      <point x="617.28" y="479.75" type="curve" smooth="yes"/>
      <point x="728.721" y="485.24"/>
      <point x="821.142" y="396.142"/>
      <point x="821.142" y="285.872" type="curve" smooth="yes"/>
      <point x="821.142" y="28.2422" type="line" smooth="yes"/>
      <point x="821.142" y="12.6523"/>
      <point x="808.502" y="0.0224609"/>
      <point x="792.922" y="0.0224609" type="curve"/>
      <point x="792.922" y="281.022" type="line" smooth="yes"/>
      <point x="792.922" y="367.353"/>
      <point x="728.981" y="442.912"/>
      <point x="643.041" y="450.992" type="curve" smooth="yes"/>
      <point x="544.411" y="460.282"/>
      <point x="461.161" y="382.622"/>
      <point x="461.161" y="285.882" type="curve" smooth="yes"/>
      <point x="461.161" y="28.252" type="line" smooth="yes"/>
      <point x="461.161" y="12.6816"/>
      <point x="448.531" y="0.0419922"/>
      <point x="432.961" y="0.0419922" type="curve"/>
      <point x="432.961" y="281.032" type="line" smooth="yes"/>
      <point x="432.961" y="367.372"/>
      <point x="369.011" y="442.922"/>
      <point x="283.07" y="451.012" type="curve" smooth="yes"/>
      <point x="184.54" y="460.281"/>
      <point x="101.38" y="382.771"/>
      <point x="101.22" y="286.151" type="curve" smooth="yes"/>
      <point x="101.22" y="28.2109" type="line" smooth="yes"/>
      <point x="101.22" y="12.6211"/>
      <point x="88.5801" y="-0.00878906"/>
      <point x="73" y="-0.00878906" type="curve"/>
      <point x="73" y="280.271" type="line" smooth="yes"/>
      <point x="73" y="280.371"/>
      <point x="73" y="451.631"/>
      <point x="73" y="451.73" type="curve" smooth="yes"/>
      <point x="73" y="467.32"/>
      <point x="85.6504" y="479.95"/>
      <point x="101.221" y="479.95" type="curve"/>
      <point x="101.221" y="383.3" type="line"/>
      <point x="133.411" y="438"/>
      <point x="190.281" y="476.45"/>
      <point x="257.301" y="479.75" type="curve" smooth="yes"/>
      <point x="343.671" y="484.01"/>
      <point x="418.391" y="431.37"/>
      <point x="447.761" y="356.19" type="curve"/>
      <point x="475.48" y="425.021"/>
      <point x="539.641" y="475.91"/>
    </contour>
  </outline>
</glyph>
<glyph name="n" format="2">
  <advance width="564"/>
  <unicode hex="006E"/>
  <outline>
    <contour>
      <point x="276.32" y="478.45" type="curve" smooth="yes"/>
      <point x="399.24" y="484.5"/>
      <point x="501.19" y="386.25"/>
      <point x="501.19" y="264.63" type="curve" smooth="yes"/>
      <point x="501.19" y="28.2695" type="line" smooth="yes"/>
      <point x="501.19" y="12.6797"/>
      <point x="488.54" y="0.0498047"/>
      <point x="472.97" y="0.0498047" type="curve"/>
      <point x="472.97" y="259.229" type="line" smooth="yes"/>
      <point x="472.97" y="359.199"/>
      <point x="396.3" y="445.339"/>
      <point x="296.45" y="450.259" type="curve" smooth="yes"/>
      <point x="189.73" y="455.539"/>
      <point x="101.221" y="370.229"/>
      <point x="101.221" y="264.63" type="curve" smooth="yes"/>
      <point x="101.221" y="28.21" type="line" smooth="yes"/>
      <point x="101.221" y="12.6201"/>
      <point x="88.5811" y="-0.00976562"/>
      <point x="73.001" y="-0.00976562" type="curve"/>
      <point x="73.001" y="451.73" type="line" smooth="yes"/>
      <point x="73.001" y="467.32"/>
      <point x="85.6406" y="479.95"/>
      <point x="101.221" y="479.95" type="curve"/>
      <point x="101.221" y="366.86" type="line"/>
      <point x="136.11" y="429.96"/>
      <point x="200.28" y="474.71"/>
    </contour>
  </outline>
</glyph>
<glyph name="o" format="2">
  <advance width="574"/>
  <unicode hex="006F"/>
  <outline>
    <contour>
      <point x="286.98" y="479.93" type="curve" smooth="yes"/>
      <point x="419.511" y="479.93"/>
      <point x="526.951" y="372.489"/>
      <point x="526.951" y="239.959" type="curve" smooth="yes"/>
      <point x="526.951" y="107.419"/>
      <point x="419.511" y="-0.0214844"/>
      <point x="286.98" y="-0.0214844" type="curve" smooth="yes"/>
      <point x="154.45" y="-0.0214844"/>
      <point x="47" y="107.419"/>
      <point x="47" y="239.959" type="curve" smooth="yes"/>
      <point x="47" y="372.489"/>
      <point x="154.45" y="479.93"/>
    </contour>
    <contour>
      <point x="286.98" y="28.1992" type="curve" smooth="yes"/>
      <point x="403.75" y="28.1992"/>
      <point x="498.74" y="123.18"/>
      <point x="498.74" y="239.96" type="curve" smooth="yes"/>
      <point x="498.74" y="356.729"/>
      <point x="403.75" y="451.71"/>
      <point x="286.98" y="451.71" type="curve" smooth="yes"/>
      <point x="170.211" y="451.71"/>
      <point x="75.2207" y="356.729"/>
      <point x="75.2207" y="239.96" type="curve" smooth="yes"/>
      <point x="75.2207" y="123.18"/>
      <point x="170.221" y="28.1992"/>
    </contour>
  </outline>
</glyph>
<glyph name="p" format="2">
  <advance width="600"/>
  <unicode hex="0070"/>
  <outline>
    <contour>
      <point x="312.98" y="479.98" type="curve" smooth="yes"/>
      <point x="445.511" y="479.98"/>
      <point x="552.951" y="372.561"/>
      <point x="552.951" y="240.03" type="curve" smooth="yes"/>
      <point x="552.951" y="107.49"/>
      <point x="445.511" y="0.0498047"/>
      <point x="312.98" y="0.0498047" type="curve" smooth="yes"/>
      <point x="221.25" y="0.0498047"/>
      <point x="141.6" y="51.5498"/>
      <point x="101.22" y="127.18" type="curve"/>
      <point x="101.22" y="-211.75" type="line" smooth="yes"/>
      <point x="101.22" y="-227.34"/>
      <point x="88.5801" y="-239.97"/>
      <point x="73" y="-239.97" type="curve"/>
      <point x="73" y="451.73" type="line" smooth="yes"/>
      <point x="73" y="467.32"/>
      <point x="85.6396" y="479.95"/>
      <point x="101.22" y="479.95" type="curve"/>
      <point x="101.22" y="352.851" type="line"/>
      <point x="141.6" y="428.48"/>
      <point x="221.25" y="479.98"/>
    </contour>
    <contour>
      <point x="312.98" y="28.2412" type="curve" smooth="yes"/>
      <point x="429.75" y="28.2412"/>
      <point x="524.74" y="123.231"/>
      <point x="524.74" y="240.001" type="curve" smooth="yes"/>
      <point x="524.74" y="356.771"/>
      <point x="429.73" y="451.761"/>
      <point x="312.98" y="451.761" type="curve" smooth="yes"/>
      <point x="196.221" y="451.761"/>
      <point x="101.221" y="356.771"/>
      <point x="101.221" y="240.001" type="curve" smooth="yes"/>
      <point x="101.221" y="123.231"/>
      <point x="196.221" y="28.2412"/>
    </contour>
  </outline>
</glyph>
<glyph name="q" format="2">
  <advance width="600"/>
  <unicode hex="0071"/>
  <outline>
    <contour>
      <point x="498.735" y="479.933" type="line"/>
      <point x="514.312" y="479.933"/>
      <point x="526.955" y="467.303"/>
      <point x="526.955" y="451.712" type="curve" smooth="yes"/>
      <point x="526.955" y="-240.001" type="line"/>
      <point x="511.364" y="-240.001"/>
      <point x="498.736" y="-227.358"/>
      <point x="498.736" y="-211.781" type="curve" smooth="yes"/>
      <point x="498.736" y="127.147" type="line"/>
      <point x="458.354" y="51.5195"/>
      <point x="378.705" y="0.0195312"/>
      <point x="286.979" y="0.0195312" type="curve" smooth="yes"/>
      <point x="154.446" y="0.0195312"/>
      <point x="47.001" y="107.465"/>
      <point x="47.001" y="239.997" type="curve" smooth="yes"/>
      <point x="47.001" y="372.529"/>
      <point x="154.446" y="479.975"/>
      <point x="286.979" y="479.975" type="curve" smooth="yes"/>
      <point x="378.705" y="479.975"/>
      <point x="458.34" y="428.475"/>
      <point x="498.735" y="352.833" type="curve"/>
    </contour>
    <contour>
      <point x="286.978" y="28.2373" type="curve" smooth="yes"/>
      <point x="403.735" y="28.2373"/>
      <point x="498.735" y="123.237"/>
      <point x="498.735" y="239.995" type="curve" smooth="yes"/>
      <point x="498.735" y="356.753"/>
      <point x="403.749" y="451.753"/>
      <point x="286.978" y="451.753" type="curve" smooth="yes"/>
      <point x="170.206" y="451.753"/>
      <point x="75.2197" y="356.767"/>
      <point x="75.2197" y="239.995" type="curve" smooth="yes"/>
      <point x="75.2197" y="123.224"/>
      <point x="170.22" y="28.2373"/>
    </contour>
  </outline>
</glyph>
<glyph name="r" format="2">
  <advance width="355"/>
  <unicode hex="0072"/>
  <outline>
    <contour>
      <point x="156.95" y="454.68" type="curve" smooth="yes"/>
      <point x="213.69" y="488.699"/>
      <point x="281.471" y="486.93"/>
      <point x="334.141" y="456.439" type="curve"/>
      <point x="326.801" y="443.77"/>
      <point x="311.44" y="437.439"/>
      <point x="297.69" y="442.499" type="curve" smooth="yes"/>
      <point x="257.83" y="457.199"/>
      <point x="211.58" y="454.39"/>
      <point x="171.71" y="430.699" type="curve" smooth="yes"/>
      <point x="126.94" y="404.109"/>
      <point x="101.221" y="354.199"/>
      <point x="101.221" y="302.119" type="curve" smooth="yes"/>
      <point x="101.221" y="28.1992" type="line" smooth="yes"/>
      <point x="101.221" y="12.6094"/>
      <point x="88.5703" y="-0.0205078"/>
      <point x="73" y="-0.0205078" type="curve"/>
      <point x="73" y="451.71" type="line" smooth="yes"/>
      <point x="73" y="467.31"/>
      <point x="85.6396" y="479.93"/>
      <point x="101.22" y="479.93" type="curve"/>
      <point x="101.22" y="399.1" type="line"/>
      <point x="115.16" y="421.42"/>
      <point x="133.74" y="440.76"/>
    </contour>
  </outline>
</glyph>
<glyph name="s" format="2">
  <advance width="530"/>
  <unicode hex="0073"/>
  <outline>
    <contour>
      <point x="265.48" y="255.74" type="curve"/>
      <point x="265.531" y="255.741" type="line"/>
      <point x="366.751" y="241.711"/>
      <point x="471.401" y="227.171"/>
      <point x="478.171" y="129.201" type="curve" smooth="yes"/>
      <point x="478.261" y="91.251"/>
      <point x="457.23" y="59.541"/>
      <point x="417.421" y="36.5215" type="curve" smooth="yes"/>
      <point x="375.571" y="12.3213"/>
      <point x="316.701" y="0.161133"/>
      <point x="258.471" y="0.161133" type="curve" smooth="yes"/>
      <point x="202.411" y="0.161133"/>
      <point x="146.951" y="11.4209"/>
      <point x="107.751" y="34.0713" type="curve" smooth="yes"/>
      <point x="69.9209" y="55.9209"/>
      <point x="49.9404" y="86.501"/>
      <point x="50" y="122.491" type="curve"/>
      <point x="52.3398" y="122.491" type="line" smooth="yes"/>
      <point x="66.0303" y="122.481"/>
      <point x="77.3203" y="113.291"/>
      <point x="82.1602" y="100.501" type="curve" smooth="yes"/>
      <point x="88.2803" y="84.3008"/>
      <point x="101.57" y="70.2305"/>
      <point x="121.87" y="58.5107" type="curve" smooth="yes"/>
      <point x="193.11" y="17.3203"/>
      <point x="329.891" y="18.4805"/>
      <point x="403.28" y="60.9502" type="curve" smooth="yes"/>
      <point x="434.311" y="78.8799"/>
      <point x="450.011" y="101.5"/>
      <point x="449.971" y="128.19" type="curve" smooth="yes"/>
      <point x="444.801" y="202.381"/>
      <point x="355.831" y="214.73"/>
      <point x="261.631" y="227.79" type="curve" smooth="yes"/>
      <point x="161.061" y="241.75"/>
      <point x="57.0703" y="256.18"/>
      <point x="50.04" y="352.92" type="curve" smooth="yes"/>
      <point x="49.9404" y="390.13"/>
      <point x="70.54" y="421.21"/>
      <point x="109.61" y="443.8" type="curve" smooth="yes"/>
      <point x="191.891" y="491.359"/>
      <point x="340.261" y="492.249"/>
      <point x="420.831" y="445.619" type="curve" smooth="yes"/>
      <point x="458.431" y="423.889"/>
      <point x="478.261" y="393.599"/>
      <point x="478.19" y="358.068" type="curve"/>
      <point x="475.45" y="358.068" type="line" smooth="yes"/>
      <point x="461.97" y="358.099"/>
      <point x="450.87" y="367.139"/>
      <point x="446.07" y="379.729" type="curve" smooth="yes"/>
      <point x="439.99" y="395.669"/>
      <point x="426.83" y="409.569"/>
      <point x="406.69" y="421.209" type="curve" smooth="yes"/>
      <point x="334.82" y="462.779"/>
      <point x="197.28" y="461.89"/>
      <point x="123.721" y="419.37" type="curve" smooth="yes"/>
      <point x="93.4707" y="401.88"/>
      <point x="78.1611" y="379.88"/>
      <point x="78.2109" y="353.96" type="curve" smooth="yes"/>
      <point x="83.5205" y="280.99"/>
      <point x="171.921" y="268.73"/>
    </contour>
  </outline>
</glyph>
<glyph name="t" format="2">
  <advance width="297"/>
  <unicode hex="0074"/>
  <outline>
    <contour>
      <point x="241.76" y="28.3398" type="line" smooth="yes"/>
      <point x="257.34" y="28.3398"/>
      <point x="269.979" y="15.71"/>
      <point x="269.979" y="0.120117" type="curve"/>
      <point x="229.84" y="0.120117" type="line" smooth="yes"/>
      <point x="155.859" y="0.120117"/>
      <point x="95.8896" y="60.0898"/>
      <point x="95.8896" y="134.06" type="curve" smooth="yes"/>
      <point x="95.8896" y="451.77" type="line"/>
      <point x="30" y="451.77" type="line"/>
      <point x="30" y="467.359"/>
      <point x="42.6396" y="479.989"/>
      <point x="58.2197" y="479.989" type="curve" smooth="yes"/>
      <point x="95.8896" y="479.989" type="line"/>
      <point x="95.8896" y="611.689" type="line" smooth="yes"/>
      <point x="95.8896" y="627.279"/>
      <point x="108.529" y="639.909"/>
      <point x="124.109" y="639.909" type="curve"/>
      <point x="124.109" y="479.989" type="line"/>
      <point x="269.979" y="479.989" type="line"/>
      <point x="269.979" y="464.399"/>
      <point x="257.34" y="451.77"/>
      <point x="241.76" y="451.77" type="curve" smooth="yes"/>
      <point x="124.109" y="451.77" type="line"/>
      <point x="124.109" y="134.05" type="line" smooth="yes"/>
      <point x="124.109" y="75.6602"/>
      <point x="171.439" y="28.3398"/>
      <point x="229.819" y="28.3398" type="curve" smooth="yes"/>
    </contour>
  </outline>
</glyph>
<glyph name="u" format="2">
  <advance width="562"/>
  <unicode hex="0075"/>
  <outline>
    <contour>
      <point x="460.97" y="479.93" type="line"/>
      <point x="476.54" y="479.93"/>
      <point x="489.19" y="467.309"/>
      <point x="489.19" y="451.709" type="curve" smooth="yes"/>
      <point x="489.19" y="28.2285" type="line" smooth="yes"/>
      <point x="489.19" y="12.6387"/>
      <point x="476.54" y="0.00878906"/>
      <point x="460.97" y="0.00878906" type="curve"/>
      <point x="460.97" y="108.159" type="line"/>
      <point x="420.25" y="36.9893"/>
      <point x="339.95" y="-8.76074"/>
      <point x="250.24" y="1.39941" type="curve" smooth="yes"/>
      <point x="141.2" y="13.749"/>
      <point x="61" y="110.119"/>
      <point x="61" y="219.85" type="curve" smooth="yes"/>
      <point x="61" y="451.71" type="line" smooth="yes"/>
      <point x="61" y="467.31"/>
      <point x="73.6396" y="479.93"/>
      <point x="89.2197" y="479.93" type="curve"/>
      <point x="89.2197" y="219.09" type="line" smooth="yes"/>
      <point x="89.2197" y="123.82"/>
      <point x="158.84" y="40.1602"/>
      <point x="253.479" y="29.4297" type="curve" smooth="yes"/>
      <point x="365.6" y="16.71"/>
      <point x="460.97" y="104.46"/>
      <point x="460.97" y="214.06" type="curve" smooth="yes"/>
    </contour>
  </outline>
</glyph>
<glyph name="v" format="2">
  <advance width="467"/>
  <unicode hex="0076"/>
  <outline>
    <contour>
      <point x="400.36" y="451.73" type="line" smooth="yes"/>
      <point x="407.49" y="468.82"/>
      <point x="424.212" y="479.95"/>
      <point x="442.722" y="479.95" type="curve"/>
      <point x="246.382" y="8.74023" type="line" smooth="yes"/>
      <point x="244.202" y="3.49023"/>
      <point x="239.052" y="0.0605469"/>
      <point x="233.361" y="0.0605469" type="curve" smooth="yes"/>
      <point x="227.671" y="0.0605469"/>
      <point x="222.521" y="3.49023"/>
      <point x="220.341" y="8.74023" type="curve" smooth="yes"/>
      <point x="24.001" y="479.95" type="line"/>
      <point x="42.5107" y="479.95"/>
      <point x="59.2012" y="468.82"/>
      <point x="66.3311" y="451.73" type="curve" smooth="yes"/>
      <point x="233.351" y="50.8604" type="line"/>
    </contour>
  </outline>
</glyph>
<glyph name="w" format="2">
  <advance width="788"/>
  <unicode hex="0077"/>
  <outline>
    <contour>
      <point x="719.49" y="450.7" type="line" smooth="yes"/>
      <point x="726.88" y="468.431"/>
      <point x="744.19" y="479.99"/>
      <point x="763.4" y="479.99" type="curve"/>
      <point x="567.21" y="9.07031" type="line" smooth="yes"/>
      <point x="564.95" y="3.65039"/>
      <point x="559.66" y="0.0908203"/>
      <point x="553.79" y="0.0507812" type="curve" smooth="yes"/>
      <point x="553.69" y="0.0507812" type="line" smooth="yes"/>
      <point x="547.851" y="0.0507812"/>
      <point x="542.561" y="3.53125"/>
      <point x="540.24" y="8.90137" type="curve" smooth="yes"/>
      <point x="393.7" y="348.741" type="line"/>
      <point x="247.16" y="8.90137" type="line" smooth="yes"/>
      <point x="244.84" y="3.53125"/>
      <point x="239.55" y="0.0507812"/>
      <point x="233.71" y="0.0507812" type="curve" smooth="yes"/>
      <point x="233.61" y="0.0507812" type="line" smooth="yes"/>
      <point x="227.74" y="0.0908203"/>
      <point x="222.45" y="3.65039"/>
      <point x="220.2" y="9.07031" type="curve" smooth="yes"/>
      <point x="24" y="479.99" type="line"/>
      <point x="43.2197" y="479.99"/>
      <point x="60.5596" y="468.431"/>
      <point x="67.9395" y="450.7" type="curve" smooth="yes"/>
      <point x="233.949" y="52.2305" type="line"/>
      <point x="374.939" y="379.19" type="line" smooth="yes"/>
      <point x="378.17" y="386.681"/>
      <point x="385.55" y="391.541"/>
      <point x="393.72" y="391.541" type="curve" smooth="yes"/>
      <point x="401.89" y="391.541"/>
      <point x="409.26" y="386.681"/>
      <point x="412.5" y="379.19" type="curve" smooth="yes"/>
      <point x="553.48" y="52.2305" type="line"/>
    </contour>
  </outline>
</glyph>
<glyph name="x" format="2">
  <advance width="566"/>
  <unicode hex="0078"/>
  <outline>
    <contour>
      <point x="542.83" y="479.91" type="curve"/>
      <point x="302.869" y="239.96" type="line"/>
      <point x="542.81" y="0.0195312" type="line"/>
      <point x="517.26" y="0.0195312"/>
      <point x="492.77" y="10.1797"/>
      <point x="474.689" y="28.2393" type="curve" smooth="yes"/>
      <point x="282.909" y="220.009" type="line"/>
      <point x="91.1396" y="28.2393" type="line" smooth="yes"/>
      <point x="73.0596" y="10.1689"/>
      <point x="48.5693" y="0.0185547"/>
      <point x="23.0098" y="0.0185547" type="curve"/>
      <point x="262.96" y="239.959" type="line"/>
      <point x="23" y="479.909" type="line"/>
      <point x="48.5498" y="479.909"/>
      <point x="73.0498" y="469.749"/>
      <point x="91.1201" y="451.689" type="curve" smooth="yes"/>
      <point x="282.91" y="259.899" type="line"/>
      <point x="474.71" y="451.689" type="line" smooth="yes"/>
      <point x="492.78" y="469.76"/>
      <point x="517.28" y="479.91"/>
    </contour>
  </outline>
</glyph>
<glyph name="y" format="2">
  <advance width="476"/>
  <unicode hex="0079"/>
  <outline>
    <contour>
      <point x="413.86" y="458.6" type="line" smooth="yes"/>
      <point x="420" y="472.93"/>
      <point x="436.579" y="479.602"/>
      <point x="450.909" y="473.472" type="curve"/>
      <point x="190.899" y="-137.998" type="line" smooth="yes"/>
      <point x="165.14" y="-199.868"/>
      <point x="105.09" y="-239.908"/>
      <point x="37.9697" y="-239.908" type="curve"/>
      <point x="37.9697" y="-224.898"/>
      <point x="48.6895" y="-212.089"/>
      <point x="63.4297" y="-209.339" type="curve" smooth="yes"/>
      <point x="108.46" y="-200.929"/>
      <point x="146.81" y="-170.479"/>
      <point x="164.899" y="-127.049" type="curve" smooth="yes"/>
      <point x="223.3" y="10.291" type="line"/>
      <point x="25" y="473.431" type="line"/>
      <point x="39.3203" y="479.57"/>
      <point x="55.9004" y="472.92"/>
      <point x="62.04" y="458.6" type="curve" smooth="yes"/>
      <point x="237.94" y="47.7793" type="line"/>
    </contour>
  </outline>
</glyph>
<glyph name="z" format="2">
  <advance width="563"/>
  <unicode hex="007A"/>
  <outline>
    <contour>
      <point x="531.047" y="471.36" type="curve" smooth="yes"/>
      <point x="533.187" y="466.011"/>
      <point x="531.847" y="459.89"/>
      <point x="527.667" y="455.909" type="curve" smooth="yes"/>
      <point x="78.4766" y="28.2891" type="line"/>
      <point x="523.026" y="29.2188" type="line"/>
      <point x="523.057" y="13.6387"/>
      <point x="510.457" y="0.96875"/>
      <point x="494.867" y="0.949219" type="curve" smooth="yes"/>
      <point x="43.127" y="-0.000976562" type="line"/>
      <point x="43.0967" y="-0.000976562" type="line" smooth="yes"/>
      <point x="37.3467" y="-0.000976562"/>
      <point x="32.1562" y="3.50879"/>
      <point x="30.0059" y="8.8584" type="curve" smooth="yes"/>
      <point x="27.8662" y="14.2188"/>
      <point x="29.2061" y="20.3486"/>
      <point x="33.376" y="24.3291" type="curve" smooth="yes"/>
      <point x="482.646" y="452.02" type="line"/>
      <point x="43.0957" y="452.02" type="line"/>
      <point x="43.0957" y="467.59"/>
      <point x="55.7461" y="480.24"/>
      <point x="71.3164" y="480.24" type="curve" smooth="yes"/>
      <point x="517.937" y="480.24" type="line" smooth="yes"/>
      <point x="523.706" y="480.24"/>
      <point x="528.896" y="476.721"/>
    </contour>
  </outline>
</glyph>
<glyph name="braceleft" format="2">
  <advance width="297"/>
  <unicode hex="007B"/>
  <outline>
    <contour>
      <point x="230.194" y="0" type="curve"/>
      <point x="178.299" y="0"/>
      <point x="136.097" y="34.5264"/>
      <point x="136.097" y="77.5752" type="curve" smooth="yes"/>
      <point x="136.097" y="229.099" type="line" smooth="yes"/>
      <point x="136.097" y="259.42"/>
      <point x="114.325" y="286.977"/>
      <point x="79.3047" y="300.987" type="curve" smooth="yes"/>
      <point x="71.2061" y="304.232"/>
      <point x="66" y="311.64"/>
      <point x="66" y="319.852" type="curve" smooth="yes"/>
      <point x="66" y="328.063"/>
      <point x="71.2207" y="335.429"/>
      <point x="79.291" y="338.66" type="curve" smooth="yes"/>
      <point x="114.325" y="352.657"/>
      <point x="136.097" y="380.214"/>
      <point x="136.097" y="410.563" type="curve" smooth="yes"/>
      <point x="136.097" y="561.692" type="line" smooth="yes"/>
      <point x="136.097" y="604.77"/>
      <point x="178.299" y="639.804"/>
      <point x="230.194" y="639.804" type="curve"/>
      <point x="230.194" y="625.496"/>
      <point x="221.079" y="612.36"/>
      <point x="207.308" y="608.48" type="curve" smooth="yes"/>
      <point x="182.234" y="601.426"/>
      <point x="164.315" y="583.111"/>
      <point x="164.315" y="561.692" type="curve" smooth="yes"/>
      <point x="164.315" y="410.563" type="line" smooth="yes"/>
      <point x="164.315" y="373.455"/>
      <point x="142.163" y="339.874"/>
      <point x="105.464" y="319.824" type="curve"/>
      <point x="142.163" y="299.774"/>
      <point x="164.315" y="266.193"/>
      <point x="164.315" y="229.099" type="curve" smooth="yes"/>
      <point x="164.315" y="77.5752" type="line" smooth="yes"/>
      <point x="164.315" y="56.1562"/>
      <point x="182.234" y="38.3779"/>
      <point x="207.308" y="31.3232" type="curve" smooth="yes"/>
      <point x="221.079" y="27.4434"/>
      <point x="230.194" y="14.3076"/>
    </contour>
  </outline>
</glyph>
<glyph name="verticalbar" format="2">
  <advance width="189"/>
  <unicode hex="007C"/>
  <outline>
    <contour>
      <point x="108.22" y="611.711" type="curve" smooth="yes"/>
      <point x="108.22" y="0" type="line"/>
      <point x="92.6289" y="-0"/>
      <point x="80.001" y="12.6279"/>
      <point x="80.001" y="28.2188" type="curve" smooth="yes"/>
      <point x="80.001" y="639.93" type="line"/>
      <point x="95.5918" y="639.93"/>
      <point x="108.22" y="627.302"/>
    </contour>
  </outline>
</glyph>
<glyph name="braceright" format="2">
  <advance width="297"/>
  <unicode hex="007D"/>
  <outline>
    <contour>
      <point x="66" y="639.804" type="curve"/>
      <point x="117.896" y="639.804"/>
      <point x="160.098" y="605.277"/>
      <point x="160.098" y="562.229" type="curve" smooth="yes"/>
      <point x="160.098" y="410.705" type="line" smooth="yes"/>
      <point x="160.098" y="380.384"/>
      <point x="181.869" y="352.827"/>
      <point x="216.89" y="338.816" type="curve" smooth="yes"/>
      <point x="224.988" y="335.571"/>
      <point x="230.194" y="328.164"/>
      <point x="230.194" y="319.952" type="curve" smooth="yes"/>
      <point x="230.194" y="311.74"/>
      <point x="224.974" y="304.375"/>
      <point x="216.903" y="301.144" type="curve" smooth="yes"/>
      <point x="181.869" y="287.146"/>
      <point x="160.098" y="259.59"/>
      <point x="160.098" y="229.24" type="curve" smooth="yes"/>
      <point x="160.098" y="78.1113" type="line" smooth="yes"/>
      <point x="160.098" y="35.0342"/>
      <point x="117.896" y="0"/>
      <point x="66" y="0" type="curve"/>
      <point x="66" y="14.3076"/>
      <point x="75.1152" y="27.4434"/>
      <point x="88.8867" y="31.3232" type="curve" smooth="yes"/>
      <point x="113.96" y="38.3779"/>
      <point x="131.879" y="56.6924"/>
      <point x="131.879" y="78.1113" type="curve" smooth="yes"/>
      <point x="131.879" y="229.24" type="line" smooth="yes"/>
      <point x="131.879" y="266.349"/>
      <point x="154.031" y="299.93"/>
      <point x="190.73" y="319.979" type="curve"/>
      <point x="154.031" y="340.029"/>
      <point x="131.879" y="373.61"/>
      <point x="131.879" y="410.705" type="curve" smooth="yes"/>
      <point x="131.879" y="562.229" type="line" smooth="yes"/>
      <point x="131.879" y="583.647"/>
      <point x="113.96" y="601.426"/>
      <point x="88.8867" y="608.48" type="curve" smooth="yes"/>
      <point x="75.1152" y="612.36"/>
      <point x="66" y="625.496"/>
    </contour>
  </outline>
</glyph>
<glyph name="asciitilde" format="2">
  <advance width="569"/>
  <unicode hex="007E"/>
  <outline>
    <contour>
      <point x="408.6" y="220.01" type="curve" smooth="yes"/>
      <point x="360.81" y="220.01"/>
      <point x="317.7" y="245.811"/>
      <point x="277.681" y="269.761" type="curve" smooth="yes"/>
      <point x="214.291" y="307.721"/>
      <point x="158.841" y="340.931"/>
      <point x="88.5508" y="288.661" type="curve" smooth="yes"/>
      <point x="76.4004" y="279.631"/>
      <point x="59.3701" y="281.141"/>
      <point x="49" y="292.16" type="curve"/>
      <point x="144.64" y="382.32"/>
      <point x="223.029" y="335.37"/>
      <point x="292.149" y="294.01" type="curve" smooth="yes"/>
      <point x="355.529" y="256.05"/>
      <point x="411.029" y="222.859"/>
      <point x="481.289" y="275.109" type="curve" smooth="yes"/>
      <point x="493.439" y="284.14"/>
      <point x="510.459" y="282.63"/>
      <point x="520.839" y="271.63" type="curve"/>
      <point x="480.569" y="233.689"/>
      <point x="443.35" y="220.01"/>
    </contour>
  </outline>
</glyph>
<glyph name="exclamdown" format="2">
  <advance width="202"/>
  <unicode hex="00A1"/>
  <outline>
    <contour>
      <point x="100.997" y="580.41" type="curve" smooth="yes"/>
      <point x="117.562" y="580.41"/>
      <point x="130.994" y="566.978"/>
      <point x="130.994" y="550.413" type="curve" smooth="yes"/>
      <point x="130.994" y="533.849"/>
      <point x="117.562" y="520.416"/>
      <point x="100.997" y="520.416" type="curve" smooth="yes"/>
      <point x="84.4326" y="520.416"/>
      <point x="71" y="533.849"/>
      <point x="71" y="550.413" type="curve" smooth="yes"/>
      <point x="71" y="566.978"/>
      <point x="84.4326" y="580.41"/>
    </contour>
    <contour>
      <point x="86.9014" y="391.735" type="line" smooth="yes"/>
      <point x="86.9014" y="407.312"/>
      <point x="99.5303" y="419.954"/>
      <point x="115.121" y="419.954" type="curve"/>
      <point x="115.121" y="-31.7812" type="line" smooth="yes"/>
      <point x="115.121" y="-47.3721"/>
      <point x="102.479" y="-60"/>
      <point x="86.9014" y="-60" type="curve"/>
    </contour>
  </outline>
</glyph>
<glyph name="cent" format="2">
  <advance width="438"/>
  <unicode hex="00A2"/>
  <outline>
    <contour>
      <point x="373.797" y="132.993" type="curve"/>
      <point x="342.798" y="113.521"/>
      <point x="307.23" y="103.221"/>
      <point x="270.982" y="103.221" type="curve" smooth="yes"/>
      <point x="241.056" y="103.221"/>
      <point x="212.737" y="110.332"/>
      <point x="187.171" y="122.763" type="curve"/>
      <point x="159.883" y="20.9189" type="line" smooth="yes"/>
      <point x="155.848" y="5.86426"/>
      <point x="140.384" y="-3.06738"/>
      <point x="125.329" y="0.967773" type="curve"/>
      <point x="161.888" y="137.408" type="line"/>
      <point x="106.098" y="175.547"/>
      <point x="69.0029" y="241.862"/>
      <point x="69.0029" y="317.307" type="curve" smooth="yes"/>
      <point x="69.0029" y="434.093"/>
      <point x="157.696" y="529.164"/>
      <point x="267.413" y="531.21" type="curve"/>
      <point x="289.509" y="613.695" type="line" smooth="yes"/>
      <point x="293.544" y="628.75"/>
      <point x="309.008" y="637.682"/>
      <point x="324.062" y="633.646" type="curve"/>
      <point x="296.224" y="529.687" type="line"/>
      <point x="323.597" y="526.046"/>
      <point x="350.038" y="516.578"/>
      <point x="373.799" y="501.65" type="curve"/>
      <point x="365.883" y="489.051"/>
      <point x="349.953" y="483.703"/>
      <point x="336.295" y="489.615" type="curve" smooth="yes"/>
      <point x="321.155" y="496.176"/>
      <point x="305.169" y="500.381"/>
      <point x="288.844" y="502.173" type="curve"/>
      <point x="194.647" y="150.616" type="line"/>
      <point x="217.73" y="138.468"/>
      <point x="243.579" y="131.455"/>
      <point x="270.994" y="131.455" type="curve" smooth="yes"/>
      <point x="293.471" y="131.455"/>
      <point x="315.651" y="136.097"/>
      <point x="336.266" y="145.028" type="curve" smooth="yes"/>
      <point x="349.938" y="150.94"/>
      <point x="365.867" y="145.607"/>
    </contour>
    <contour>
      <point x="97.2227" y="317.308" type="curve" smooth="yes"/>
      <point x="97.2227" y="255.268"/>
      <point x="125.894" y="200.365"/>
      <point x="169.704" y="166.587" type="curve"/>
      <point x="259.738" y="502.581" type="line"/>
      <point x="169.168" y="496.316"/>
      <point x="97.2227" y="415.736"/>
    </contour>
  </outline>
</glyph>
<glyph name="sterling" format="2">
  <advance width="620"/>
  <unicode hex="00A3"/>
  <outline>
    <contour>
      <point x="508.72" y="67.0498" type="curve" smooth="yes"/>
      <point x="520.279" y="76.21"/>
      <point x="536.683" y="75.6699"/>
      <point x="546.973" y="65.1201" type="curve" smooth="yes"/>
      <point x="547.963" y="64.1201" type="line"/>
      <point x="456.473" y="-24.9697"/>
      <point x="374.453" y="2.2002"/>
      <point x="302.083" y="26.1504" type="curve" smooth="yes"/>
      <point x="234.003" y="48.6904"/>
      <point x="169.533" y="70.0303"/>
      <point x="94.583" y="3.90039" type="curve" smooth="yes"/>
      <point x="88.873" y="-1.13965"/>
      <point x="80.4033" y="-1.37988"/>
      <point x="74.7236" y="3.67969" type="curve" smooth="yes"/>
      <point x="73.9141" y="4.39941" type="line" smooth="yes"/>
      <point x="68.1641" y="9.5293"/>
      <point x="67.4141" y="18.2598"/>
      <point x="72.0537" y="24.4102" type="curve" smooth="yes"/>
      <point x="156.704" y="136.67"/>
      <point x="177.544" y="201.76"/>
      <point x="173.614" y="251.55" type="curve"/>
      <point x="95.2246" y="251.55" type="line" smooth="yes"/>
      <point x="79.6445" y="251.55"/>
      <point x="67.0049" y="264.18"/>
      <point x="67.0049" y="279.77" type="curve"/>
      <point x="168.604" y="279.77" type="line"/>
      <point x="163.765" y="297.489"/>
      <point x="156.305" y="313.829"/>
      <point x="148.555" y="330.719" type="curve" smooth="yes"/>
      <point x="144.935" y="338.629"/>
      <point x="141.295" y="346.589"/>
      <point x="137.835" y="354.799" type="curve" smooth="yes"/>
      <point x="110.635" y="419.499"/>
      <point x="117.265" y="493.039"/>
      <point x="155.574" y="551.539" type="curve" smooth="yes"/>
      <point x="192.664" y="608.169"/>
      <point x="252.395" y="641.149"/>
      <point x="319.414" y="642.02" type="curve" smooth="yes"/>
      <point x="385.684" y="642.869"/>
      <point x="450.783" y="616.689"/>
      <point x="494.613" y="571.979" type="curve" smooth="yes"/>
      <point x="534.273" y="531.51"/>
      <point x="554.193" y="479.279"/>
      <point x="552.253" y="420.939" type="curve"/>
      <point x="537.393" y="421.43"/>
      <point x="524.702" y="432.6"/>
      <point x="523.252" y="447.39" type="curve" smooth="yes"/>
      <point x="519.342" y="487.52"/>
      <point x="502.722" y="523.39"/>
      <point x="474.462" y="552.229" type="curve" smooth="yes"/>
      <point x="435.952" y="591.52"/>
      <point x="378.372" y="614.729"/>
      <point x="319.802" y="613.789" type="curve" smooth="yes"/>
      <point x="262.321" y="613.049"/>
      <point x="211.062" y="584.719"/>
      <point x="179.201" y="536.068" type="curve" smooth="yes"/>
      <point x="146.041" y="485.448"/>
      <point x="140.311" y="421.769"/>
      <point x="163.881" y="365.738" type="curve" smooth="yes"/>
      <point x="167.211" y="357.809"/>
      <point x="170.73" y="350.118"/>
      <point x="174.23" y="342.488" type="curve" smooth="yes"/>
      <point x="183.53" y="322.179"/>
      <point x="192.67" y="302.159"/>
      <point x="197.979" y="279.77" type="curve"/>
      <point x="353.499" y="279.77" type="line" smooth="yes"/>
      <point x="369.069" y="279.77"/>
      <point x="381.72" y="267.13"/>
      <point x="381.72" y="251.55" type="curve"/>
      <point x="202.229" y="251.55" type="line"/>
      <point x="205.22" y="205.97"/>
      <point x="190.14" y="148.649"/>
      <point x="133.64" y="62.6094" type="curve"/>
      <point x="198.02" y="90.2998"/>
      <point x="257.17" y="70.7295"/>
      <point x="310.96" y="52.9297" type="curve" smooth="yes"/>
      <point x="376.07" y="31.3701"/>
      <point x="437.87" y="10.9102"/>
    </contour>
  </outline>
</glyph>
<glyph name="currency" format="2">
  <advance width="474"/>
  <unicode hex="00A4"/>
  <outline>
    <contour>
      <point x="354.59" y="225.11" type="curve"/>
      <point x="411.431" y="168.261" type="line"/>
      <point x="400.411" y="157.251"/>
      <point x="382.541" y="157.251"/>
      <point x="371.521" y="168.261" type="curve" smooth="yes"/>
      <point x="334.632" y="205.161" type="line"/>
      <point x="306.832" y="181.881"/>
      <point x="271.052" y="167.811"/>
      <point x="231.952" y="167.811" type="curve" smooth="yes"/>
      <point x="192.853" y="167.811"/>
      <point x="157.062" y="181.87"/>
      <point x="129.272" y="205.16" type="curve"/>
      <point x="101.902" y="177.79" type="line" smooth="yes"/>
      <point x="90.8828" y="166.771"/>
      <point x="73.0225" y="166.771"/>
      <point x="62.0029" y="177.79" type="curve"/>
      <point x="109.353" y="225.11" type="line"/>
      <point x="86.0625" y="252.91"/>
      <point x="71.9922" y="288.69"/>
      <point x="71.9922" y="327.79" type="curve" smooth="yes"/>
      <point x="71.9922" y="366.89"/>
      <point x="86.042" y="402.68"/>
      <point x="109.342" y="430.46" type="curve"/>
      <point x="62.002" y="477.8" type="line"/>
      <point x="73.0215" y="488.819"/>
      <point x="90.8818" y="488.819"/>
      <point x="101.901" y="477.8" type="curve" smooth="yes"/>
      <point x="129.291" y="450.42" type="line"/>
      <point x="157.091" y="473.71"/>
      <point x="192.871" y="487.78"/>
      <point x="231.971" y="487.78" type="curve" smooth="yes"/>
      <point x="271.061" y="487.78"/>
      <point x="306.86" y="473.71"/>
      <point x="334.641" y="450.42" type="curve"/>
      <point x="362.03" y="477.8" type="line" smooth="yes"/>
      <point x="373.05" y="488.819"/>
      <point x="390.91" y="488.819"/>
      <point x="401.93" y="477.8" type="curve"/>
      <point x="354.59" y="430.46" type="line"/>
      <point x="377.89" y="402.67"/>
      <point x="391.949" y="366.89"/>
      <point x="391.949" y="327.79" type="curve" smooth="yes"/>
      <point x="391.949" y="288.69"/>
      <point x="377.89" y="252.91"/>
    </contour>
    <contour>
      <point x="231.971" y="196.021" type="curve" smooth="yes"/>
      <point x="263.23" y="196.021"/>
      <point x="291.952" y="207.02"/>
      <point x="314.562" y="225.27" type="curve" smooth="yes"/>
      <point x="321.902" y="231.18"/>
      <point x="328.572" y="237.85"/>
      <point x="334.502" y="245.189" type="curve" smooth="yes"/>
      <point x="352.762" y="267.81"/>
      <point x="363.752" y="296.54"/>
      <point x="363.752" y="327.79" type="curve" smooth="yes"/>
      <point x="363.752" y="359.04"/>
      <point x="352.762" y="387.74"/>
      <point x="334.512" y="410.36" type="curve" smooth="yes"/>
      <point x="328.592" y="417.7"/>
      <point x="321.912" y="424.38"/>
      <point x="314.562" y="430.31" type="curve" smooth="yes"/>
      <point x="291.952" y="448.55"/>
      <point x="263.252" y="459.54"/>
      <point x="231.982" y="459.54" type="curve" smooth="yes"/>
      <point x="200.713" y="459.54"/>
      <point x="172.013" y="448.55"/>
      <point x="149.402" y="430.31" type="curve" smooth="yes"/>
      <point x="142.062" y="424.38"/>
      <point x="135.372" y="417.71"/>
      <point x="129.442" y="410.36" type="curve" smooth="yes"/>
      <point x="111.202" y="387.75"/>
      <point x="100.212" y="359.06"/>
      <point x="100.212" y="327.79" type="curve" smooth="yes"/>
      <point x="100.212" y="296.521"/>
      <point x="111.202" y="267.811"/>
      <point x="129.462" y="245.19" type="curve" smooth="yes"/>
      <point x="135.382" y="237.851"/>
      <point x="142.062" y="231.171"/>
      <point x="149.401" y="225.251" type="curve" smooth="yes"/>
      <point x="172.001" y="207.011"/>
      <point x="200.711" y="196.021"/>
    </contour>
  </outline>
</glyph>
<glyph name="yen" format="2">
  <advance width="610"/>
  <unicode hex="00A5"/>
  <outline>
    <contour>
      <point x="435.836" y="300.409" type="curve" smooth="yes"/>
      <point x="318.175" y="300.411" type="line"/>
      <point x="318.175" y="248.643" type="line"/>
      <point x="464.041" y="248.643" type="line"/>
      <point x="464.041" y="233.065"/>
      <point x="451.398" y="220.423"/>
      <point x="435.821" y="220.423" type="curve" smooth="yes"/>
      <point x="318.175" y="220.423" type="line"/>
      <point x="318.175" y="28.2207" type="line" smooth="yes"/>
      <point x="318.175" y="12.6299"/>
      <point x="305.532" y="0.00195312"/>
      <point x="289.955" y="0.00195312" type="curve"/>
      <point x="289.955" y="220.423" type="line"/>
      <point x="144.089" y="220.423" type="line"/>
      <point x="144.089" y="236.014"/>
      <point x="156.731" y="248.642"/>
      <point x="172.309" y="248.642" type="curve" smooth="yes"/>
      <point x="289.955" y="248.642" type="line"/>
      <point x="289.955" y="300.41" type="line"/>
      <point x="144.089" y="300.41" type="line"/>
      <point x="144.089" y="316.001"/>
      <point x="156.731" y="328.629"/>
      <point x="172.309" y="328.629" type="curve" smooth="yes"/>
      <point x="280.911" y="328.629" type="line"/>
      <point x="53.999" y="639.931" type="line"/>
      <point x="75.9258" y="639.931"/>
      <point x="96.54" y="629.447"/>
      <point x="109.465" y="611.726" type="curve" smooth="yes"/>
      <point x="304.687" y="343.91" type="line"/>
      <point x="499.908" y="611.726" type="line" smooth="yes"/>
      <point x="512.833" y="629.447"/>
      <point x="533.434" y="639.931"/>
      <point x="555.374" y="639.931" type="curve"/>
      <point x="328.462" y="328.629" type="line"/>
      <point x="464.056" y="328.629" type="line"/>
      <point x="464.056" y="313.052"/>
      <point x="451.413" y="300.409"/>
    </contour>
  </outline>
</glyph>
<glyph name="section" format="2">
  <advance width="540"/>
  <unicode hex="00A7"/>
  <outline>
    <contour>
      <point x="361.45" y="217.35" type="curve"/>
      <point x="416.13" y="202.869"/>
      <point x="460.393" y="176.775"/>
      <point x="464.463" y="117.966" type="curve" smooth="yes"/>
      <point x="464.533" y="83.1162"/>
      <point x="445.313" y="54.0459"/>
      <point x="408.913" y="32.9961" type="curve" smooth="yes"/>
      <point x="370.923" y="11.0264"/>
      <point x="317.503" y="-0.00390625"/>
      <point x="264.653" y="-0.00390625" type="curve" smooth="yes"/>
      <point x="213.783" y="-0.00390625"/>
      <point x="163.443" y="10.2266"/>
      <point x="127.863" y="30.7861" type="curve" smooth="yes"/>
      <point x="93.2334" y="50.7861"/>
      <point x="74.9639" y="78.8164"/>
      <point x="75.0039" y="111.847" type="curve"/>
      <point x="77.334" y="111.847" type="line" smooth="yes"/>
      <point x="90.9443" y="111.827"/>
      <point x="102.204" y="102.887"/>
      <point x="107.554" y="90.3672" type="curve" smooth="yes"/>
      <point x="113.313" y="76.9072"/>
      <point x="124.823" y="65.1377"/>
      <point x="141.983" y="55.2275" type="curve" smooth="yes"/>
      <point x="205.983" y="18.2578"/>
      <point x="328.863" y="19.3174"/>
      <point x="394.804" y="57.4375" type="curve" smooth="yes"/>
      <point x="422.354" y="73.3672"/>
      <point x="436.313" y="93.417"/>
      <point x="436.264" y="116.997" type="curve" smooth="yes"/>
      <point x="432.164" y="176.027"/>
      <point x="370.994" y="190.817"/>
      <point x="277.464" y="204.167" type="curve" smooth="yes"/>
      <point x="274.934" y="204.067"/>
      <point x="272.424" y="203.897"/>
      <point x="269.904" y="203.867" type="curve"/>
      <point x="269.904" y="205.237" type="line" smooth="yes"/>
      <point x="269.044" y="205.367"/>
      <point x="268.224" y="205.478"/>
      <point x="267.344" y="205.607" type="curve" smooth="yes"/>
      <point x="180.224" y="217.697"/>
      <point x="81.4639" y="231.377"/>
      <point x="75.0439" y="319.867" type="curve" smooth="yes"/>
      <point x="74.9336" y="373.808"/>
      <point x="122.313" y="407.878"/>
      <point x="182.323" y="424.318" type="curve"/>
      <point x="125.813" y="438.398"/>
      <point x="79.333" y="464.009"/>
      <point x="75.0029" y="523.749" type="curve" smooth="yes"/>
      <point x="74.9229" y="557.979"/>
      <point x="93.7725" y="586.47"/>
      <point x="129.492" y="607.13" type="curve" smooth="yes"/>
      <point x="204.162" y="650.3"/>
      <point x="338.792" y="651.09"/>
      <point x="411.952" y="608.76" type="curve" smooth="yes"/>
      <point x="446.372" y="588.87"/>
      <point x="464.532" y="561.11"/>
      <point x="464.462" y="528.49" type="curve"/>
      <point x="440.432" y="528.53" type="line" smooth="yes"/>
      <point x="438.071" y="528.53"/>
      <point x="436.251" y="530.4"/>
      <point x="436.081" y="532.75" type="curve" smooth="yes"/>
      <point x="434.571" y="553.17"/>
      <point x="421.731" y="570.51"/>
      <point x="397.831" y="584.319" type="curve" smooth="yes"/>
      <point x="333.221" y="621.699"/>
      <point x="209.69" y="620.899"/>
      <point x="143.62" y="582.689" type="curve" smooth="yes"/>
      <point x="116.75" y="567.149"/>
      <point x="103.15" y="547.669"/>
      <point x="103.19" y="524.779" type="curve" smooth="yes"/>
      <point x="107.931" y="460.06"/>
      <point x="187.23" y="449.069"/>
      <point x="271.181" y="437.409" type="curve" smooth="yes"/>
      <point x="358.86" y="425.27"/>
      <point x="458.23" y="411.479"/>
      <point x="464.41" y="321.859" type="curve" smooth="yes"/>
      <point x="464.53" y="268.729"/>
      <point x="419.38" y="234.6"/>
    </contour>
    <contour>
      <point x="103.223" y="320.906" type="curve" smooth="yes"/>
      <point x="107.963" y="256.196"/>
      <point x="187.263" y="245.177"/>
      <point x="271.213" y="233.537" type="curve" smooth="yes"/>
      <point x="273.812" y="233.177"/>
      <point x="276.463" y="232.807"/>
      <point x="279.083" y="232.437" type="curve" smooth="yes"/>
      <point x="358.763" y="235.757"/>
      <point x="436.312" y="266.316"/>
      <point x="436.223" y="320.847" type="curve" smooth="yes"/>
      <point x="432.003" y="381.547"/>
      <point x="367.543" y="395.477"/>
      <point x="269.533" y="409.146" type="curve"/>
      <point x="186.753" y="408.206"/>
      <point x="103.123" y="376.706"/>
    </contour>
  </outline>
</glyph>
<glyph name="dieresis" format="2">
  <advance width="251"/>
  <unicode hex="00A8"/>
  <outline>
    <contour>
      <point x="177.47" y="480" type="curve" smooth="yes"/>
      <point x="160.899" y="480"/>
      <point x="147.47" y="493.43"/>
      <point x="147.47" y="510" type="curve" smooth="yes"/>
      <point x="147.47" y="526.56"/>
      <point x="160.899" y="539.989"/>
      <point x="177.47" y="539.989" type="curve" smooth="yes"/>
      <point x="194.029" y="539.989"/>
      <point x="207.459" y="526.56"/>
      <point x="207.459" y="510" type="curve" smooth="yes"/>
      <point x="207.459" y="493.43"/>
      <point x="194.029" y="480"/>
    </contour>
    <contour>
      <point x="73" y="480" type="curve" smooth="yes"/>
      <point x="56.4297" y="480"/>
      <point x="43" y="493.43"/>
      <point x="43" y="510" type="curve" smooth="yes"/>
      <point x="43" y="526.56"/>
      <point x="56.4297" y="539.989"/>
      <point x="73" y="539.989" type="curve" smooth="yes"/>
      <point x="89.5596" y="539.989"/>
      <point x="102.989" y="526.56"/>
      <point x="102.989" y="510" type="curve" smooth="yes"/>
      <point x="102.989" y="493.43"/>
      <point x="89.5596" y="480"/>
    </contour>
  </outline>
</glyph>
<glyph name="copyright" format="2">
  <advance width="614"/>
  <unicode hex="00A9"/>
  <outline>
    <contour>
      <point x="266.89" y="489.7" type="curve" smooth="yes"/>
      <point x="243.72" y="475.69"/>
      <point x="226.777" y="452.521"/>
      <point x="220.327" y="426.241" type="curve" smooth="yes"/>
      <point x="203.188" y="356.392"/>
      <point x="255.888" y="293.752"/>
      <point x="322.938" y="293.752" type="curve" smooth="yes"/>
      <point x="333.348" y="293.752"/>
      <point x="343.647" y="295.282"/>
      <point x="353.508" y="298.252" type="curve" smooth="yes"/>
      <point x="367.888" y="302.582"/>
      <point x="383.338" y="296.992"/>
      <point x="390.958" y="284.052" type="curve"/>
      <point x="370.428" y="271.952"/>
      <point x="346.908" y="265.542"/>
      <point x="322.938" y="265.542" type="curve" smooth="yes"/>
      <point x="238.219" y="265.542"/>
      <point x="171.608" y="344.502"/>
      <point x="192.818" y="432.682" type="curve" smooth="yes"/>
      <point x="200.438" y="464.361"/>
      <point x="220.009" y="492.621"/>
      <point x="247.169" y="510.631" type="curve" smooth="yes"/>
      <point x="292.869" y="540.921"/>
      <point x="348.359" y="540.351"/>
      <point x="390.97" y="515.211" type="curve"/>
      <point x="383.35" y="502.271"/>
      <point x="367.89" y="496.7"/>
      <point x="353.5" y="501.021" type="curve" smooth="yes"/>
      <point x="325.67" y="509.381"/>
      <point x="294.34" y="506.311"/>
    </contour>
    <contour>
      <point x="306.618" y="639.251" type="curve" smooth="yes"/>
      <point x="438.958" y="639.251"/>
      <point x="546.238" y="531.971"/>
      <point x="546.238" y="399.621" type="curve" smooth="yes"/>
      <point x="546.238" y="267.281"/>
      <point x="438.958" y="160.001"/>
      <point x="306.618" y="160.001" type="curve" smooth="yes"/>
      <point x="174.288" y="160.001"/>
      <point x="66.998" y="267.281"/>
      <point x="66.998" y="399.621" type="curve" smooth="yes"/>
      <point x="66.998" y="531.971"/>
      <point x="174.288" y="639.251"/>
    </contour>
    <contour>
      <point x="306.618" y="188.231" type="curve" smooth="yes"/>
      <point x="423.178" y="188.231"/>
      <point x="518.019" y="283.052"/>
      <point x="518.019" y="399.622" type="curve" smooth="yes"/>
      <point x="518.019" y="516.202"/>
      <point x="423.198" y="611.032"/>
      <point x="306.618" y="611.032" type="curve" smooth="yes"/>
      <point x="190.048" y="611.032"/>
      <point x="95.2178" y="516.212"/>
      <point x="95.2178" y="399.642" type="curve" smooth="yes"/>
      <point x="95.2178" y="283.062"/>
      <point x="190.048" y="188.231"/>
    </contour>
  </outline>
</glyph>
<glyph name="guillemotleft" format="2">
  <advance width="441"/>
  <unicode hex="00AB"/>
  <outline>
    <contour>
      <point x="241.075" y="468.278" type="curve"/>
      <point x="91.0615" y="318.266" type="line"/>
      <point x="241.075" y="168.266" type="line"/>
      <point x="230.056" y="157.246"/>
      <point x="212.192" y="157.246"/>
      <point x="201.173" y="168.266" type="curve" smooth="yes"/>
      <point x="61.1348" y="308.29" type="line" smooth="yes"/>
      <point x="58.4824" y="310.929"/>
      <point x="57.001" y="314.513"/>
      <point x="57.001" y="318.266" type="curve" smooth="yes"/>
      <point x="57.001" y="322.019"/>
      <point x="58.4824" y="325.588"/>
      <point x="61.1348" y="328.24" type="curve" smooth="yes"/>
      <point x="201.173" y="468.278" type="line" smooth="yes"/>
      <point x="212.192" y="479.298"/>
      <point x="230.056" y="479.298"/>
    </contour>
    <contour>
      <point x="383.626" y="468.279" type="curve"/>
      <point x="233.612" y="318.267" type="line"/>
      <point x="383.626" y="168.267" type="line"/>
      <point x="372.606" y="157.247"/>
      <point x="354.743" y="157.247"/>
      <point x="343.724" y="168.267" type="curve" smooth="yes"/>
      <point x="203.686" y="308.291" type="line" smooth="yes"/>
      <point x="201.033" y="310.93"/>
      <point x="199.552" y="314.514"/>
      <point x="199.552" y="318.267" type="curve" smooth="yes"/>
      <point x="199.552" y="322.02"/>
      <point x="201.033" y="325.589"/>
      <point x="203.686" y="328.241" type="curve" smooth="yes"/>
      <point x="343.724" y="468.279" type="line" smooth="yes"/>
      <point x="354.743" y="479.299"/>
      <point x="372.606" y="479.299"/>
    </contour>
  </outline>
</glyph>
<glyph name="registered" format="2">
  <advance width="614"/>
  <unicode hex="00AE"/>
  <outline>
    <contour>
      <point x="306.62" y="639.25" type="curve" smooth="yes"/>
      <point x="438.96" y="639.25"/>
      <point x="546.24" y="531.97"/>
      <point x="546.24" y="399.62" type="curve" smooth="yes"/>
      <point x="546.24" y="267.28"/>
      <point x="438.96" y="160"/>
      <point x="306.62" y="160" type="curve" smooth="yes"/>
      <point x="174.29" y="160"/>
      <point x="67" y="267.28"/>
      <point x="67" y="399.62" type="curve" smooth="yes"/>
      <point x="67" y="531.97"/>
      <point x="174.29" y="639.25"/>
    </contour>
    <contour>
      <point x="306.62" y="188.23" type="curve" smooth="yes"/>
      <point x="423.18" y="188.23"/>
      <point x="518.021" y="283.051"/>
      <point x="518.021" y="399.621" type="curve" smooth="yes"/>
      <point x="518.021" y="516.201"/>
      <point x="423.2" y="611.031"/>
      <point x="306.62" y="611.031" type="curve" smooth="yes"/>
      <point x="190.05" y="611.031"/>
      <point x="95.2197" y="516.211"/>
      <point x="95.2197" y="399.641" type="curve" smooth="yes"/>
      <point x="95.2197" y="283.061"/>
      <point x="190.05" y="188.23"/>
    </contour>
    <contour>
      <point x="214.812" y="526.671" type="curve" smooth="yes"/>
      <point x="340.522" y="526.67" type="line" smooth="yes"/>
      <point x="380.232" y="526.67"/>
      <point x="412.553" y="494.36"/>
      <point x="412.553" y="454.641" type="curve" smooth="yes"/>
      <point x="412.553" y="451.15" type="line" smooth="yes"/>
      <point x="412.553" y="427.69"/>
      <point x="401.103" y="407.021"/>
      <point x="383.692" y="393.851" type="curve"/>
      <point x="401.093" y="380.761"/>
      <point x="412.553" y="359.431"/>
      <point x="412.553" y="335.23" type="curve" smooth="yes"/>
      <point x="412.553" y="272.601" type="line"/>
      <point x="396.953" y="272.601"/>
      <point x="384.333" y="285.221"/>
      <point x="384.333" y="300.811" type="curve" smooth="yes"/>
      <point x="384.333" y="335.23" type="line" smooth="yes"/>
      <point x="384.333" y="359.41"/>
      <point x="366.293" y="379.11"/>
      <point x="344.143" y="379.11" type="curve"/>
      <point x="344.143" y="379.48" type="line"/>
      <point x="342.902" y="379.41"/>
      <point x="341.742" y="379.11"/>
      <point x="340.502" y="379.11" type="curve" smooth="yes"/>
      <point x="228.922" y="379.11" type="line"/>
      <point x="228.922" y="300.801" type="line" smooth="yes"/>
      <point x="228.922" y="285.211"/>
      <point x="216.282" y="272.581"/>
      <point x="200.702" y="272.581" type="curve"/>
      <point x="200.702" y="512.562" type="line" smooth="yes"/>
      <point x="200.702" y="520.361"/>
      <point x="207.012" y="526.671"/>
    </contour>
    <contour>
      <point x="384.312" y="451.14" type="curve" smooth="yes"/>
      <point x="384.313" y="454.64" type="line" smooth="yes"/>
      <point x="384.313" y="478.779"/>
      <point x="364.663" y="498.449"/>
      <point x="340.503" y="498.449" type="curve" smooth="yes"/>
      <point x="228.923" y="498.449" type="line"/>
      <point x="228.923" y="407.329" type="line"/>
      <point x="340.503" y="407.329" type="line" smooth="yes"/>
      <point x="364.643" y="407.329"/>
      <point x="384.312" y="426.979"/>
    </contour>
  </outline>
</glyph>
<glyph name="degree" format="2">
  <advance width="268"/>
  <unicode hex="00B0"/>
  <outline>
    <contour>
      <point x="133.987" y="611.756" type="curve" smooth="yes"/>
      <point x="105.443" y="611.756"/>
      <point x="82.2188" y="588.531"/>
      <point x="82.2188" y="559.987" type="curve" smooth="yes"/>
      <point x="82.2188" y="531.443"/>
      <point x="105.443" y="508.219"/>
      <point x="133.987" y="508.219" type="curve" smooth="yes"/>
      <point x="162.531" y="508.219"/>
      <point x="185.756" y="531.443"/>
      <point x="185.756" y="559.987" type="curve" smooth="yes"/>
      <point x="185.756" y="588.531"/>
      <point x="162.531" y="611.756"/>
    </contour>
    <contour>
      <point x="54" y="559.987" type="curve" smooth="yes"/>
      <point x="54" y="604.165"/>
      <point x="89.8105" y="639.976"/>
      <point x="133.988" y="639.976" type="curve" smooth="yes"/>
      <point x="178.166" y="639.976"/>
      <point x="213.977" y="604.165"/>
      <point x="213.977" y="559.987" type="curve" smooth="yes"/>
      <point x="213.977" y="515.81"/>
      <point x="178.166" y="479.999"/>
      <point x="133.988" y="479.999" type="curve" smooth="yes"/>
      <point x="89.8105" y="479.999"/>
      <point x="54" y="515.81"/>
    </contour>
  </outline>
</glyph>
<glyph name="plusminus" format="2">
  <advance width="354"/>
  <unicode hex="00B1"/>
  <outline>
    <contour>
      <point x="162.879" y="254.098" type="curve"/>
      <point x="162.879" y="359.977" type="line"/>
      <point x="57" y="359.977" type="line"/>
      <point x="57" y="375.554"/>
      <point x="69.6426" y="388.196"/>
      <point x="85.2197" y="388.196" type="curve" smooth="yes"/>
      <point x="162.879" y="388.196" type="line"/>
      <point x="162.879" y="465.855" type="line" smooth="yes"/>
      <point x="162.879" y="481.433"/>
      <point x="175.521" y="494.075"/>
      <point x="191.099" y="494.075" type="curve"/>
      <point x="191.099" y="388.196" type="line"/>
      <point x="296.978" y="388.196" type="line"/>
      <point x="296.978" y="372.619"/>
      <point x="284.335" y="359.977"/>
      <point x="268.758" y="359.977" type="curve" smooth="yes"/>
      <point x="191.099" y="359.977" type="line"/>
      <point x="191.099" y="282.317" type="line" smooth="yes"/>
      <point x="191.099" y="266.74"/>
      <point x="178.456" y="254.098"/>
    </contour>
    <contour>
      <point x="57" y="160" type="line"/>
      <point x="57" y="175.577"/>
      <point x="69.6426" y="188.22"/>
      <point x="85.2197" y="188.22" type="curve" smooth="yes"/>
      <point x="296.978" y="188.22" type="line"/>
      <point x="296.978" y="172.643"/>
      <point x="284.335" y="160"/>
      <point x="268.758" y="160" type="curve" smooth="yes"/>
    </contour>
  </outline>
</glyph>
<glyph name="twosuperior" format="2">
  <advance width="262"/>
  <unicode hex="00B2"/>
  <outline>
    <contour>
      <point x="179.432" y="507.94" type="line" smooth="yes"/>
      <point x="194.861" y="507.94"/>
      <point x="207.361" y="495.423"/>
      <point x="207.361" y="480.003" type="curve"/>
      <point x="65.9717" y="480.003" type="line" smooth="yes"/>
      <point x="60.3115" y="480.003"/>
      <point x="55.2217" y="483.403"/>
      <point x="53.0615" y="488.623" type="curve" smooth="yes"/>
      <point x="50.9014" y="493.843"/>
      <point x="52.1016" y="499.853"/>
      <point x="56.0918" y="503.853" type="curve" smooth="yes"/>
      <point x="167.432" y="615.162" type="line" smooth="yes"/>
      <point x="182.741" y="630.472"/>
      <point x="182.781" y="650.321"/>
      <point x="177.731" y="663.812" type="curve" smooth="yes"/>
      <point x="171.571" y="680.241"/>
      <point x="157.671" y="690.761"/>
      <point x="140.551" y="691.911" type="curve" smooth="yes"/>
      <point x="120.961" y="693.321"/>
      <point x="102.361" y="684.182"/>
      <point x="91.041" y="668.991" type="curve" smooth="yes"/>
      <point x="82.7207" y="657.812"/>
      <point x="68.2012" y="653.182"/>
      <point x="54.7314" y="656.701" type="curve"/>
      <point x="64.4219" y="693.961"/>
      <point x="98.1318" y="719.98"/>
      <point x="136.672" y="719.98" type="curve" smooth="yes"/>
      <point x="138.622" y="719.98"/>
      <point x="140.542" y="719.91"/>
      <point x="142.462" y="719.78" type="curve" smooth="yes"/>
      <point x="170.372" y="717.9"/>
      <point x="193.922" y="700.21"/>
      <point x="203.892" y="673.61" type="curve" smooth="yes"/>
      <point x="214.252" y="646.03"/>
      <point x="207.842" y="616.061"/>
      <point x="187.191" y="595.4" type="curve" smooth="yes"/>
      <point x="99.6914" y="507.94" type="line"/>
    </contour>
  </outline>
</glyph>
<glyph name="threesuperior" format="2">
  <advance width="254"/>
  <unicode hex="00B3"/>
  <outline>
    <contour>
      <point x="167.5" y="608.243" type="curve"/>
      <point x="186.449" y="595.502"/>
      <point x="198.921" y="574.383"/>
      <point x="198.921" y="550.453" type="curve" smooth="yes"/>
      <point x="198.921" y="511.609"/>
      <point x="166.187" y="480.004"/>
      <point x="125.96" y="480.004" type="curve" smooth="yes"/>
      <point x="85.7334" y="480.004"/>
      <point x="52.999" y="511.609"/>
      <point x="52.999" y="550.453" type="curve"/>
      <point x="70.7773" y="550.453" type="line" smooth="yes"/>
      <point x="76.4072" y="550.453"/>
      <point x="81.0635" y="546.475"/>
      <point x="82.3896" y="541" type="curve" smooth="yes"/>
      <point x="86.9473" y="522.248"/>
      <point x="104.768" y="508.223"/>
      <point x="126.003" y="508.223" type="curve" smooth="yes"/>
      <point x="150.667" y="508.223"/>
      <point x="170.745" y="527.172"/>
      <point x="170.745" y="550.453" type="curve" smooth="yes"/>
      <point x="170.745" y="571.942"/>
      <point x="153.645" y="589.734"/>
      <point x="131.619" y="592.358" type="curve" smooth="yes"/>
      <point x="128.416" y="592.739"/>
      <point x="125.904" y="595.181"/>
      <point x="125.876" y="598.397" type="curve" smooth="yes"/>
      <point x="125.834" y="603.435"/>
      <point x="125.848" y="610.687"/>
      <point x="125.876" y="615.597" type="curve" smooth="yes"/>
      <point x="125.89" y="618.616"/>
      <point x="128.26" y="620.859"/>
      <point x="131.237" y="621.297" type="curve" smooth="yes"/>
      <point x="151.838" y="624.302"/>
      <point x="166.879" y="644.634"/>
      <point x="161.052" y="666.97" type="curve" smooth="yes"/>
      <point x="157.863" y="679.188"/>
      <point x="147.859" y="689.164"/>
      <point x="135.641" y="692.339" type="curve" smooth="yes"/>
      <point x="114.843" y="697.729"/>
      <point x="95.8086" y="685.058"/>
      <point x="90.8701" y="666.673" type="curve" smooth="yes"/>
      <point x="89.4023" y="661.24"/>
      <point x="84.8447" y="657.247"/>
      <point x="79.2295" y="657.247" type="curve" smooth="yes"/>
      <point x="61.4092" y="657.247" type="line"/>
      <point x="61.4092" y="697.347"/>
      <point x="98.165" y="729.022"/>
      <point x="139.746" y="720.359" type="curve" smooth="yes"/>
      <point x="164.424" y="715.224"/>
      <point x="184.206" y="695.089"/>
      <point x="189.187" y="670.383" type="curve" smooth="yes"/>
      <point x="194.224" y="645.395"/>
      <point x="184.488" y="622.678"/>
    </contour>
  </outline>
</glyph>
<glyph name="acute" format="2">
  <advance width="218"/>
  <unicode hex="00B4"/>
  <outline>
    <contour>
      <point x="32.9004" y="-51.7402" type="line" smooth="yes"/>
      <point x="21.8809" y="-62.75"/>
      <point x="4.02051" y="-62.75"/>
      <point x="-6.99902" y="-51.7402" type="curve"/>
      <point x="133.041" y="88.25" type="line" smooth="yes"/>
      <point x="144.061" y="99.2695"/>
      <point x="161.921" y="99.2695"/>
      <point x="172.94" y="88.25" type="curve"/>
    </contour>
  </outline>
</glyph>
<glyph name="paragraph" format="2">
  <advance width="516"/>
  <unicode hex="00B6"/>
  <outline>
    <contour>
      <point x="450.815" y="612.628" type="curve"/>
      <point x="384.924" y="612.628" type="line"/>
      <point x="384.924" y="28.2334" type="line" smooth="yes"/>
      <point x="384.924" y="12.6562"/>
      <point x="372.281" y="0.0136719"/>
      <point x="356.704" y="0.0136719" type="curve"/>
      <point x="356.704" y="612.628" type="line"/>
      <point x="224.977" y="612.628" type="line"/>
      <point x="224.977" y="28.2188" type="line" smooth="yes"/>
      <point x="224.977" y="12.6416"/>
      <point x="212.334" y="-0.000976562"/>
      <point x="196.757" y="-0.000976562" type="curve"/>
      <point x="196.757" y="323.506" type="line"/>
      <point x="121.891" y="336.854"/>
      <point x="65" y="402.153"/>
      <point x="65" y="480.857" type="curve" smooth="yes"/>
      <point x="65" y="569.1"/>
      <point x="136.438" y="640.636"/>
      <point x="224.637" y="640.848" type="curve" smooth="yes"/>
      <point x="422.596" y="640.848" type="line" smooth="yes"/>
      <point x="438.173" y="640.848"/>
      <point x="450.815" y="628.205"/>
    </contour>
  </outline>
</glyph>
<glyph name="cedilla" format="2">
  <advance width="330"/>
  <unicode hex="00B8"/>
  <outline>
    <contour>
      <point x="195.405" y="-71.8213" type="line" smooth="yes"/>
      <point x="225.233" y="-71.8213"/>
      <point x="249.501" y="-96.0762"/>
      <point x="249.501" y="-125.904" type="curve" smooth="yes"/>
      <point x="249.501" y="-155.732"/>
      <point x="225.232" y="-180.001"/>
      <point x="195.404" y="-180.001" type="curve" smooth="yes"/>
      <point x="94.1113" y="-180.001" type="line" smooth="yes"/>
      <point x="86.3086" y="-180.001"/>
      <point x="80.002" y="-173.68"/>
      <point x="80.002" y="-165.892" type="curve" smooth="yes"/>
      <point x="80.002" y="-158.104"/>
      <point x="86.3086" y="-151.782"/>
      <point x="94.1113" y="-151.782" type="curve" smooth="yes"/>
      <point x="195.404" y="-151.782" type="line" smooth="yes"/>
      <point x="209.684" y="-151.782"/>
      <point x="221.282" y="-140.17"/>
      <point x="221.282" y="-125.905" type="curve" smooth="yes"/>
      <point x="221.282" y="-111.641"/>
      <point x="209.684" y="-100.042"/>
      <point x="195.404" y="-100.042" type="curve" smooth="yes"/>
      <point x="94.1113" y="-100.042" type="line" smooth="yes"/>
      <point x="88.4111" y="-100.042"/>
      <point x="83.2471" y="-96.6133"/>
      <point x="81.0742" y="-91.3359" type="curve" smooth="yes"/>
      <point x="78.8877" y="-86.0586"/>
      <point x="80.1016" y="-79.9912"/>
      <point x="84.1367" y="-75.9561" type="curve" smooth="yes"/>
      <point x="156.59" y="-3.5166" type="line"/>
      <point x="196.492" y="-3.5166" type="line"/>
      <point x="128.173" y="-71.8213" type="line"/>
    </contour>
  </outline>
</glyph>
<glyph name="onesuperior" format="2">
  <advance width="205"/>
  <unicode hex="00B9"/>
  <outline>
    <contour>
      <point x="140.067" y="718.89" type="curve" smooth="yes"/>
      <point x="145.373" y="716.703"/>
      <point x="148.815" y="711.539"/>
      <point x="148.815" y="705.811" type="curve" smooth="yes"/>
      <point x="148.815" y="508.331" type="line" smooth="yes"/>
      <point x="148.815" y="492.697"/>
      <point x="136.131" y="480.013"/>
      <point x="120.497" y="480.013" type="curve"/>
      <point x="120.497" y="671.636" type="line"/>
      <point x="87.043" y="638.182" type="line" smooth="yes"/>
      <point x="75.9951" y="627.12"/>
      <point x="58.0615" y="627.12"/>
      <point x="47" y="638.182" type="curve"/>
      <point x="124.646" y="715.813" type="line" smooth="yes"/>
      <point x="128.681" y="719.877"/>
      <point x="134.79" y="721.091"/>
    </contour>
  </outline>
</glyph>
<glyph name="guillemotright" format="2">
  <advance width="441"/>
  <unicode hex="00BB"/>
  <outline>
    <contour>
      <point x="379.491" y="328.254" type="line" smooth="yes"/>
      <point x="382.144" y="325.615"/>
      <point x="383.625" y="322.03"/>
      <point x="383.625" y="318.277" type="curve" smooth="yes"/>
      <point x="383.625" y="314.524"/>
      <point x="382.144" y="310.955"/>
      <point x="379.491" y="308.303" type="curve" smooth="yes"/>
      <point x="239.453" y="168.265" type="line" smooth="yes"/>
      <point x="228.434" y="157.245"/>
      <point x="210.57" y="157.245"/>
      <point x="199.551" y="168.265" type="curve"/>
      <point x="349.564" y="318.278" type="line"/>
      <point x="199.551" y="468.278" type="line"/>
      <point x="210.57" y="479.298"/>
      <point x="228.434" y="479.298"/>
      <point x="239.453" y="468.278" type="curve" smooth="yes"/>
    </contour>
    <contour>
      <point x="241.075" y="318.277" type="curve" smooth="yes"/>
      <point x="241.075" y="314.524"/>
      <point x="239.594" y="310.968"/>
      <point x="236.941" y="308.315" type="curve" smooth="yes"/>
      <point x="96.9033" y="168.277" type="line" smooth="yes"/>
      <point x="85.8838" y="157.258"/>
      <point x="68.0205" y="157.258"/>
      <point x="57.001" y="168.277" type="curve"/>
      <point x="207.015" y="318.277" type="line"/>
      <point x="57.001" y="468.277" type="line"/>
      <point x="68.0205" y="479.297"/>
      <point x="85.8838" y="479.297"/>
      <point x="96.9033" y="468.277" type="curve" smooth="yes"/>
      <point x="236.941" y="328.253" type="line" smooth="yes"/>
      <point x="239.594" y="325.614"/>
      <point x="241.075" y="322.03"/>
    </contour>
  </outline>
</glyph>
<glyph name="questiondown" format="2">
  <advance width="466"/>
  <unicode hex="00BF"/>
  <outline>
    <contour>
      <point x="235.056" y="519.94" type="curve" smooth="yes"/>
      <point x="218.485" y="519.94"/>
      <point x="205.056" y="533.37"/>
      <point x="205.056" y="549.94" type="curve" smooth="yes"/>
      <point x="205.056" y="566.5"/>
      <point x="218.485" y="579.93"/>
      <point x="235.056" y="579.93" type="curve" smooth="yes"/>
      <point x="251.626" y="579.93"/>
      <point x="265.056" y="566.5"/>
      <point x="265.056" y="549.94" type="curve" smooth="yes"/>
      <point x="265.056" y="533.37"/>
      <point x="251.626" y="519.94"/>
    </contour>
    <contour>
      <point x="377.806" y="64.9707" type="curve" smooth="yes"/>
      <point x="381.126" y="79.6611"/>
      <point x="394.095" y="90.1299"/>
      <point x="409.154" y="89.7197" type="curve"/>
      <point x="406.385" y="-10.25"/>
      <point x="319.895" y="-57.9199"/>
      <point x="240.715" y="-59.9395" type="curve" smooth="yes"/>
      <point x="160.135" y="-61.8594"/>
      <point x="69.0645" y="-17.9189"/>
      <point x="61.1143" y="83.6514" type="curve" smooth="yes"/>
      <point x="58.5244" y="142.251"/>
      <point x="99.9141" y="184.811"/>
      <point x="131.294" y="211.74" type="curve" smooth="yes"/>
      <point x="222.514" y="301.891"/>
      <point x="221.604" y="342.331"/>
      <point x="220.464" y="393.531" type="curve" smooth="yes"/>
      <point x="220.464" y="393.781" type="line" smooth="yes"/>
      <point x="220.154" y="408.161"/>
      <point x="231.664" y="419.931"/>
      <point x="246.044" y="419.931" type="curve" smooth="yes"/>
      <point x="248.674" y="419.931" type="line"/>
      <point x="248.454" y="411.101"/>
      <point x="248.484" y="402.48"/>
      <point x="248.675" y="394.171" type="curve" smooth="yes"/>
      <point x="249.865" y="340.791"/>
      <point x="250.985" y="290.361"/>
      <point x="150.396" y="191.001" type="curve"/>
      <point x="106.346" y="153.121"/>
      <point x="87.7256" y="120.731"/>
      <point x="89.2754" y="85.3613" type="curve" smooth="yes"/>
      <point x="95.7656" y="2.5918"/>
      <point x="171.956" y="-33.7686"/>
      <point x="239.996" y="-31.7285" type="curve" smooth="yes"/>
      <point x="300.966" y="-30.1787"/>
      <point x="363.246" y="0.451172"/>
    </contour>
  </outline>
</glyph>
<glyph name="Agrave" format="2">
  <advance width="694"/>
  <unicode hex="00C0"/>
  <outline>
    <contour>
      <point x="394.98" y="692.52" type="line" smooth="yes"/>
      <point x="384.87" y="682.42"/>
      <point x="368.482" y="682.399"/>
      <point x="358.372" y="692.52" type="curve" smooth="yes"/>
      <point x="296.682" y="754.189" type="line"/>
      <point x="307.701" y="765.209"/>
      <point x="325.562" y="765.209"/>
      <point x="336.581" y="754.189" type="curve" smooth="yes"/>
      <point x="396.631" y="694.17" type="line"/>
    </contour>
    <contour>
      <point x="359.282" y="632.059" type="curve" smooth="yes"/>
      <point x="675.304" y="-0.000976562" type="line"/>
      <point x="655.974" y="-0.000976562"/>
      <point x="638.294" y="10.9189"/>
      <point x="629.644" y="28.2188" type="curve" smooth="yes"/>
      <point x="531.323" y="224.869" type="line"/>
      <point x="162.003" y="224.869" type="line"/>
      <point x="63.6729" y="28.2188" type="line" smooth="yes"/>
      <point x="55.0225" y="10.9189"/>
      <point x="37.3428" y="-0.000976562"/>
      <point x="18.0029" y="-0.000976562" type="curve"/>
      <point x="334.033" y="632.059" type="line" smooth="yes"/>
      <point x="336.434" y="636.839"/>
      <point x="341.313" y="639.858"/>
      <point x="346.663" y="639.858" type="curve" smooth="yes"/>
      <point x="352.003" y="639.858"/>
      <point x="356.893" y="636.839"/>
    </contour>
    <contour>
      <point x="176.104" y="253.099" type="line"/>
      <point x="517.203" y="253.099" type="line"/>
      <point x="346.663" y="594.198" type="line"/>
    </contour>
  </outline>
</glyph>
<glyph name="Aacute" format="2">
  <advance width="694"/>
  <unicode hex="00C1"/>
  <outline>
    <contour>
      <point x="334.95" y="688.71" type="line" smooth="yes"/>
      <point x="324.83" y="678.59"/>
      <point x="308.451" y="678.59"/>
      <point x="298.331" y="688.71" type="curve" smooth="yes"/>
      <point x="296.681" y="690.36" type="line"/>
      <point x="356.73" y="750.38" type="line" smooth="yes"/>
      <point x="367.75" y="761.399"/>
      <point x="385.61" y="761.399"/>
      <point x="396.63" y="750.38" type="curve"/>
    </contour>
    <contour>
      <point x="359.301" y="632.06" type="curve" smooth="yes"/>
      <point x="675.302" y="0" type="line"/>
      <point x="655.972" y="-0"/>
      <point x="638.292" y="10.9199"/>
      <point x="629.642" y="28.2197" type="curve" smooth="yes"/>
      <point x="531.321" y="224.87" type="line"/>
      <point x="162.001" y="224.87" type="line"/>
      <point x="63.6709" y="28.2197" type="line" smooth="yes"/>
      <point x="55.0205" y="10.9199"/>
      <point x="37.3408" y="0"/>
      <point x="18.001" y="-0" type="curve"/>
      <point x="334.041" y="632.06" type="line" smooth="yes"/>
      <point x="336.441" y="636.84"/>
      <point x="341.321" y="639.859"/>
      <point x="346.671" y="639.859" type="curve" smooth="yes"/>
      <point x="352.021" y="639.859"/>
      <point x="356.9" y="636.84"/>
    </contour>
    <contour>
      <point x="176.111" y="253.1" type="line"/>
      <point x="517.211" y="253.1" type="line"/>
      <point x="346.671" y="594.199" type="line"/>
    </contour>
  </outline>
</glyph>
<glyph name="Acircumflex" format="2">
  <advance width="694"/>
  <unicode hex="00C2"/>
  <outline>
    <contour>
      <point x="304.78" y="689.25" type="line" smooth="yes"/>
      <point x="294.66" y="679.13"/>
      <point x="278.282" y="679.13"/>
      <point x="268.162" y="689.25" type="curve" smooth="yes"/>
      <point x="266.512" y="690.9" type="line"/>
      <point x="326.562" y="750.92" type="line" smooth="yes"/>
      <point x="332.111" y="756.45"/>
      <point x="339.392" y="759.2"/>
      <point x="346.661" y="759.16" type="curve" smooth="yes"/>
      <point x="353.921" y="759.2"/>
      <point x="361.201" y="756.47"/>
      <point x="366.751" y="750.92" type="curve" smooth="yes"/>
      <point x="426.801" y="690.9" type="line"/>
      <point x="425.15" y="689.25" type="line" smooth="yes"/>
      <point x="415.03" y="679.15"/>
      <point x="398.65" y="679.15"/>
      <point x="388.53" y="689.25" type="curve" smooth="yes"/>
      <point x="346.66" y="731.11" type="line"/>
    </contour>
    <contour>
      <point x="359.302" y="632.06" type="curve" smooth="yes"/>
      <point x="675.303" y="0" type="line"/>
      <point x="655.973" y="-0"/>
      <point x="638.293" y="10.9199"/>
      <point x="629.643" y="28.2197" type="curve" smooth="yes"/>
      <point x="531.322" y="224.87" type="line"/>
      <point x="162.002" y="224.87" type="line"/>
      <point x="63.6719" y="28.2197" type="line" smooth="yes"/>
      <point x="55.0215" y="10.9199"/>
      <point x="37.3418" y="0"/>
      <point x="18.002" y="-0" type="curve"/>
      <point x="334.042" y="632.06" type="line" smooth="yes"/>
      <point x="336.442" y="636.84"/>
      <point x="341.322" y="639.859"/>
      <point x="346.672" y="639.859" type="curve" smooth="yes"/>
      <point x="352.021" y="639.859"/>
      <point x="356.901" y="636.84"/>
    </contour>
    <contour>
      <point x="176.112" y="253.1" type="line"/>
      <point x="517.212" y="253.1" type="line"/>
      <point x="346.672" y="594.199" type="line"/>
    </contour>
  </outline>
</glyph>
<glyph name="Atilde" format="2">
  <advance width="694"/>
  <unicode hex="00C3"/>
  <outline>
    <contour>
      <point x="359.285" y="632.043" type="curve" smooth="yes"/>
      <point x="675.301" y="0" type="line"/>
      <point x="655.971" y="0"/>
      <point x="638.291" y="10.9209"/>
      <point x="629.642" y="28.2197" type="curve" smooth="yes"/>
      <point x="531.325" y="224.866" type="line"/>
      <point x="162.005" y="224.866" type="line"/>
      <point x="63.6748" y="28.2197" type="line" smooth="yes"/>
      <point x="55.0254" y="10.9209"/>
      <point x="37.3457" y="0"/>
      <point x="18.001" y="0" type="curve"/>
      <point x="334.029" y="632.043" type="line" smooth="yes"/>
      <point x="336.428" y="636.826"/>
      <point x="341.31" y="639.846"/>
      <point x="346.657" y="639.846" type="curve" smooth="yes"/>
      <point x="352.005" y="639.846"/>
      <point x="356.887" y="636.826"/>
    </contour>
    <contour>
      <point x="176.101" y="253.085" type="line"/>
      <point x="517.202" y="253.085" type="line"/>
      <point x="346.658" y="594.187" type="line"/>
    </contour>
    <contour>
      <point x="216.285" y="726.126" type="curve" smooth="yes"/>
      <point x="203.756" y="717.956"/>
      <point x="187.262" y="719.256"/>
      <point x="176.665" y="729.824" type="curve"/>
      <point x="241.781" y="795.109"/>
      <point x="301.154" y="761.655"/>
      <point x="353.558" y="732.152" type="curve" smooth="yes"/>
      <point x="396.86" y="707.771"/>
      <point x="435.027" y="686.296"/>
      <point x="476.989" y="713.612" type="curve" smooth="yes"/>
      <point x="489.533" y="721.782"/>
      <point x="506.014" y="720.47"/>
      <point x="516.61" y="709.901" type="curve"/>
      <point x="488.983" y="682.218"/>
      <point x="462.415" y="672.284"/>
      <point x="436.947" y="672.284" type="curve" smooth="yes"/>
      <point x="402.364" y="672.284"/>
      <point x="369.897" y="690.584"/>
      <point x="339.717" y="707.572" type="curve" smooth="yes"/>
      <point x="296.414" y="731.968"/>
      <point x="258.233" y="753.471"/>
    </contour>
  </outline>
</glyph>
<glyph name="Adieresis" format="2">
  <advance width="694"/>
  <unicode hex="00C4"/>
  <outline>
    <contour>
      <point x="398.891" y="689.893" type="curve" smooth="yes"/>
      <point x="382.326" y="689.893"/>
      <point x="368.894" y="703.325"/>
      <point x="368.894" y="719.89" type="curve" smooth="yes"/>
      <point x="368.894" y="736.454"/>
      <point x="382.326" y="749.887"/>
      <point x="398.891" y="749.887" type="curve" smooth="yes"/>
      <point x="415.455" y="749.887"/>
      <point x="428.888" y="736.454"/>
      <point x="428.888" y="719.89" type="curve" smooth="yes"/>
      <point x="428.888" y="703.325"/>
      <point x="415.455" y="689.893"/>
    </contour>
    <contour>
      <point x="294.408" y="689.893" type="curve" smooth="yes"/>
      <point x="277.841" y="689.893"/>
      <point x="264.41" y="703.323"/>
      <point x="264.41" y="719.891" type="curve" smooth="yes"/>
      <point x="264.41" y="736.458"/>
      <point x="277.841" y="749.889"/>
      <point x="294.408" y="749.889" type="curve" smooth="yes"/>
      <point x="310.976" y="749.889"/>
      <point x="324.406" y="736.458"/>
      <point x="324.406" y="719.891" type="curve" smooth="yes"/>
      <point x="324.406" y="703.323"/>
      <point x="310.976" y="689.893"/>
    </contour>
    <contour>
      <point x="359.284" y="632.057" type="curve" smooth="yes"/>
      <point x="675.3" y="0" type="line"/>
      <point x="655.97" y="0"/>
      <point x="638.29" y="10.9209"/>
      <point x="629.641" y="28.2197" type="curve" smooth="yes"/>
      <point x="531.324" y="224.866" type="line"/>
      <point x="162.004" y="224.866" type="line"/>
      <point x="63.6738" y="28.2197" type="line" smooth="yes"/>
      <point x="55.0244" y="10.9209"/>
      <point x="37.3447" y="0"/>
      <point x="18" y="-0" type="curve"/>
      <point x="334.028" y="632.057" type="line" smooth="yes"/>
      <point x="336.427" y="636.84"/>
      <point x="341.309" y="639.859"/>
      <point x="346.656" y="639.859" type="curve" smooth="yes"/>
      <point x="352.004" y="639.859"/>
      <point x="356.886" y="636.84"/>
    </contour>
    <contour>
      <point x="176.1" y="253.1" type="line"/>
      <point x="517.201" y="253.1" type="line"/>
      <point x="346.657" y="594.201" type="line"/>
    </contour>
  </outline>
</glyph>
<glyph name="Aring" format="2">
  <advance width="690"/>
  <unicode hex="00C5"/>
  <outline>
    <contour>
      <point x="357.285" y="632.057" type="curve" smooth="yes"/>
      <point x="673.299" y="0.0136719" type="line"/>
      <point x="653.969" y="0.0136719"/>
      <point x="636.289" y="10.9346"/>
      <point x="627.64" y="28.2334" type="curve" smooth="yes"/>
      <point x="529.323" y="224.88" type="line"/>
      <point x="160.003" y="224.88" type="line"/>
      <point x="61.6729" y="28.2334" type="line" smooth="yes"/>
      <point x="53.0234" y="10.9346"/>
      <point x="35.3438" y="0.0136719"/>
      <point x="15.999" y="0.0136719" type="curve"/>
      <point x="332.042" y="632.057" type="line" smooth="yes"/>
      <point x="333.044" y="634.046"/>
      <point x="334.554" y="635.641"/>
      <point x="336.275" y="636.938" type="curve"/>
      <point x="310.412" y="640.96"/>
      <point x="290.489" y="663.211"/>
      <point x="290.489" y="690.203" type="curve" smooth="yes"/>
      <point x="290.489" y="720.031"/>
      <point x="314.758" y="744.3"/>
      <point x="344.586" y="744.3" type="curve" smooth="yes"/>
      <point x="374.414" y="744.3"/>
      <point x="398.697" y="720.031"/>
      <point x="398.697" y="690.203" type="curve" smooth="yes"/>
      <point x="398.697" y="663.268"/>
      <point x="378.845" y="641.045"/>
      <point x="353.038" y="636.953" type="curve"/>
      <point x="354.773" y="635.669"/>
      <point x="356.283" y="634.061"/>
    </contour>
    <contour>
      <point x="318.709" y="690.217" type="curve" smooth="yes"/>
      <point x="318.709" y="675.938"/>
      <point x="330.307" y="664.325"/>
      <point x="344.586" y="664.325" type="curve" smooth="yes"/>
      <point x="358.865" y="664.325"/>
      <point x="370.478" y="675.938"/>
      <point x="370.478" y="690.217" type="curve" smooth="yes"/>
      <point x="370.478" y="704.496"/>
      <point x="358.865" y="716.095"/>
      <point x="344.586" y="716.095" type="curve" smooth="yes"/>
      <point x="330.307" y="716.095"/>
      <point x="318.709" y="704.496"/>
    </contour>
    <contour>
      <point x="174.112" y="253.099" type="line"/>
      <point x="515.214" y="253.099" type="line"/>
      <point x="344.67" y="594.2" type="line"/>
    </contour>
  </outline>
</glyph>
<glyph name="AE" format="2">
  <advance width="770"/>
  <unicode hex="00C6"/>
  <outline>
    <contour>
      <point x="716.697" y="33.6104" type="line" smooth="yes"/>
      <point x="732.287" y="33.6104"/>
      <point x="744.929" y="20.9688"/>
      <point x="744.929" y="5.37891" type="curve"/>
      <point x="344.969" y="5.37891" type="line" smooth="yes"/>
      <point x="337.179" y="5.37891"/>
      <point x="330.858" y="11.6992"/>
      <point x="330.858" y="19.4893" type="curve" smooth="yes"/>
      <point x="330.858" y="241.77" type="line"/>
      <point x="158.509" y="241.77" type="line"/>
      <point x="37.6084" y="0" type="line"/>
      <point x="23.6582" y="6.98047"/>
      <point x="18.0186" y="23.9307"/>
      <point x="24.9883" y="37.8711" type="curve" smooth="yes"/>
      <point x="319.738" y="627.331" type="line" smooth="yes"/>
      <point x="324.559" y="636.981"/>
      <point x="334.188" y="642.531"/>
      <point x="344.259" y="642.791" type="curve" smooth="yes"/>
      <point x="344.499" y="642.811"/>
      <point x="344.699" y="642.94"/>
      <point x="344.949" y="642.94" type="curve" smooth="yes"/>
      <point x="716.699" y="642.94" type="line" smooth="yes"/>
      <point x="732.289" y="642.94"/>
      <point x="744.919" y="630.311"/>
      <point x="744.919" y="614.721" type="curve"/>
      <point x="359.059" y="614.721" type="line"/>
      <point x="359.059" y="338.28" type="line"/>
      <point x="650.809" y="338.28" type="line"/>
      <point x="650.809" y="322.7"/>
      <point x="638.158" y="310.061"/>
      <point x="622.588" y="310.061" type="curve" smooth="yes"/>
      <point x="359.058" y="310.061" type="line"/>
      <point x="359.058" y="33.6104" type="line"/>
    </contour>
    <contour>
      <point x="172.599" y="269.999" type="line"/>
      <point x="330.839" y="269.999" type="line"/>
      <point x="330.839" y="586.449" type="line"/>
    </contour>
  </outline>
</glyph>
<glyph name="Ccedilla" format="2">
  <advance width="557"/>
  <unicode hex="00C7"/>
  <outline>
    <contour>
      <point x="529.185" y="44.1885" type="curve"/>
      <point x="481.606" y="16.124"/>
      <point x="427.27" y="1.05566"/>
      <point x="371.776" y="0.208984" type="curve"/>
      <point x="329.419" y="-42.7549" type="line"/>
      <point x="388.708" y="-42.7549" type="line" smooth="yes"/>
      <point x="419.171" y="-42.7549"/>
      <point x="446.431" y="-64.9639"/>
      <point x="449.394" y="-95.2852" type="curve" smooth="yes"/>
      <point x="452.794" y="-130.065"/>
      <point x="425.421" y="-159.484"/>
      <point x="391.317" y="-159.484" type="curve" smooth="yes"/>
      <point x="281.728" y="-159.992" type="line"/>
      <point x="281.728" y="-144.387"/>
      <point x="294.342" y="-131.716"/>
      <point x="309.947" y="-131.646" type="curve" smooth="yes"/>
      <point x="391.317" y="-131.278" type="line" smooth="yes"/>
      <point x="408.969" y="-131.278"/>
      <point x="423.135" y="-116.012"/>
      <point x="421.301" y="-97.9795" type="curve" smooth="yes"/>
      <point x="419.692" y="-82.3037"/>
      <point x="405.301" y="-70.9873"/>
      <point x="389.54" y="-70.9873" type="curve" smooth="yes"/>
      <point x="295.696" y="-70.9873" type="line" smooth="yes"/>
      <point x="290.01" y="-70.9873"/>
      <point x="284.874" y="-67.5732"/>
      <point x="282.688" y="-62.3242" type="curve" smooth="yes"/>
      <point x="280.486" y="-57.0752"/>
      <point x="281.657" y="-51.0225"/>
      <point x="285.65" y="-46.9727" type="curve" smooth="yes"/>
      <point x="333.693" y="1.76172" type="line"/>
      <point x="172.843" y="18.4395"/>
      <point x="46.999" y="154.753"/>
      <point x="46.999" y="319.949" type="curve" smooth="yes"/>
      <point x="46.999" y="496.349"/>
      <point x="190.509" y="639.872"/>
      <point x="366.908" y="639.886" type="curve" smooth="yes"/>
      <point x="424.081" y="639.886"/>
      <point x="480.195" y="624.604"/>
      <point x="529.17" y="595.722" type="curve"/>
      <point x="521.311" y="582.388"/>
      <point x="504.647" y="577.591"/>
      <point x="490.622" y="584.151" type="curve" smooth="yes"/>
      <point x="452.117" y="602.184"/>
      <point x="409.845" y="611.623"/>
      <point x="366.909" y="611.623" type="curve" smooth="yes"/>
      <point x="206.102" y="611.623"/>
      <point x="75.248" y="480.77"/>
      <point x="75.2617" y="319.947" type="curve" smooth="yes"/>
      <point x="75.2617" y="161.396"/>
      <point x="202.503" y="32.251"/>
      <point x="360.192" y="28.625" type="curve"/>
      <point x="360.644" y="29.0908" type="line"/>
      <point x="361.166" y="28.583" type="line" smooth="yes"/>
      <point x="363.099" y="28.541"/>
      <point x="364.976" y="28.2871"/>
      <point x="366.923" y="28.2871" type="curve" smooth="yes"/>
      <point x="409.845" y="28.2871"/>
      <point x="452.117" y="37.7266"/>
      <point x="490.637" y="55.7588" type="curve" smooth="yes"/>
      <point x="504.662" y="62.3193"/>
      <point x="521.325" y="57.5225"/>
    </contour>
  </outline>
</glyph>
<glyph name="Egrave" format="2">
  <advance width="522"/>
  <unicode hex="00C8"/>
  <outline>
    <contour>
      <point x="465.857" y="28.2197" type="line" smooth="yes"/>
      <point x="481.435" y="28.2197"/>
      <point x="494.077" y="15.5791"/>
      <point x="494.077" y="0.00195312" type="curve"/>
      <point x="94.1104" y="0.00195312" type="line" smooth="yes"/>
      <point x="86.3223" y="0.00195312"/>
      <point x="80.001" y="6.32324"/>
      <point x="80.001" y="14.1113" type="curve" smooth="yes"/>
      <point x="80.001" y="625.737" type="line" smooth="yes"/>
      <point x="80.001" y="633.525"/>
      <point x="86.3223" y="639.847"/>
      <point x="94.1104" y="639.847" type="curve" smooth="yes"/>
      <point x="494.077" y="639.847" type="line"/>
      <point x="494.077" y="624.27"/>
      <point x="481.435" y="611.627"/>
      <point x="465.857" y="611.627" type="curve" smooth="yes"/>
      <point x="108.22" y="611.627" type="line"/>
      <point x="108.22" y="334.132" type="line"/>
      <point x="422.823" y="334.132" type="line"/>
      <point x="422.823" y="318.555"/>
      <point x="410.181" y="305.912"/>
      <point x="394.604" y="305.912" type="curve" smooth="yes"/>
      <point x="108.22" y="305.912" type="line"/>
      <point x="108.22" y="28.2197" type="line"/>
    </contour>
    <contour>
      <point x="335.371" y="688.724" type="line" smooth="yes"/>
      <point x="325.255" y="678.621"/>
      <point x="308.872" y="678.593"/>
      <point x="298.756" y="688.709" type="curve" smooth="yes"/>
      <point x="237.068" y="750.383" type="line"/>
      <point x="248.088" y="761.402"/>
      <point x="265.951" y="761.402"/>
      <point x="276.971" y="750.383" type="curve" smooth="yes"/>
      <point x="337.021" y="690.374" type="line"/>
    </contour>
  </outline>
</glyph>
